<svg width="60" height="50" viewBox="0 0 60 50" fill="none" xmlns="http://www.w3.org/2000/svg">
<path d="M27.812 44.8139C37.9803 44.8139 46.2233 36.5728 46.2233 26.4069C46.2233 16.2411 37.9803 8 27.812 8C17.6437 8 9.40063 16.2411 9.40063 26.4069C9.40063 36.5728 17.6437 44.8139 27.812 44.8139Z" fill="#0085CD"/>
<path d="M16.8074 11.6551C19.3735 10.274 18.845 16.0719 18.6955 17.5077C18.5461 18.9436 19.6761 21.0426 16.4975 21.1447C13.319 21.2467 13.33 24.0309 13.33 24.0309C13.33 24.0309 13.1914 27.2997 9.47346 28.065C8.6278 22.8465 12.0141 14.2316 16.8037 11.6551H16.8074Z" fill="#84C17A"/>
<path d="M9.60486 29.1546C9.60486 29.1546 15.386 27.3945 15.2329 32.0226L15.0834 36.6544C15.0834 36.6544 18.076 36.5451 18.7321 38.5239C19.3883 40.5027 21.0468 43.5311 21.0468 43.5311C21.0468 43.5311 11.4493 40.4335 9.60486 29.151V29.1546Z" fill="#84C17A"/>
<path d="M21.6153 9.07498C21.6153 9.07498 20.1135 11.8883 23.3175 11.6332C26.5215 11.3781 28.1801 11.0173 29.2882 11.8264C30.3963 12.6354 35.9915 9.91315 35.9915 9.91315C35.9915 9.91315 29.9115 6.4803 21.6153 9.07498V9.07498Z" fill="#84C17A"/>
<path d="M22.9492 44.1651C22.9492 44.1651 24.7936 42.3722 26.4303 42.7657C28.0669 43.1557 29.6817 44.1797 30.2394 42.8896C30.7971 41.5996 36.4579 41.1878 36.8734 41.6907C36.8734 41.6907 38.1492 40.3205 39.0386 41.0056C38.3461 41.8911 30.593 46.5812 22.9529 44.1651H22.9492Z" fill="#84C17A"/>
<path d="M26.2411 21.8662C28.1621 22.1031 24.455 22.7846 24.6992 24.3516C24.9435 25.9186 25.9677 24.2969 26.1172 25.7619C26.263 27.2305 25.8985 26.5345 26.263 27.2305C26.6275 27.9265 27.495 28.6335 28.0491 27.9703C28.6031 27.307 29.2447 25.5615 29.2556 25.1278C29.2665 24.6941 29.8935 23.4478 30.1851 23.5535C30.4767 23.6592 32.4232 23.7248 32.4961 24.5046C32.569 25.2845 35.4668 26.0644 35.4668 26.0644C35.4668 26.0644 34.0088 25.9186 34.1619 27.1904C34.315 28.4622 36.1521 31.9352 38.1168 31.5125C40.0815 31.0897 42.2941 29.0162 42.3196 28.2363C42.3451 27.4564 42.1884 26.283 42.4253 24.9237C42.6659 23.5681 44.3062 24.009 44.2697 25.1788C44.2333 26.3486 44.9258 31.0423 45.6221 31.0679C46.1397 29.253 46.6609 22.821 44.1968 18.0106C41.7327 13.2003 40.4497 13.94 39.9066 14.0202C39.3634 14.1004 37.0087 12.7775 36.3344 14.2935C35.6491 15.8314 34.0744 14.8037 34.1437 15.6856C34.2129 16.5675 34.1838 17.4421 34.9638 17.4676C35.7439 17.4932 34.7269 18.7285 33.462 18.6848C32.1972 18.6447 28.9859 18.4407 28.9567 19.3189C28.9275 20.1972 25.5085 17.3547 25.4611 18.816C25.4137 20.2773 25.1731 21.7314 26.2411 21.8626V21.8662Z" fill="#84C17A"/>
<path d="M25.0161 14.0275C24.021 15.1645 21.9433 16.0719 23.2081 16.112C24.473 16.1521 26.6491 18.2694 26.7985 16.6186C26.948 14.9677 25.0124 14.0275 25.0124 14.0275H25.0161Z" fill="#84C17A"/>
<path d="M25.0488 28.5716C22.6504 28.5716 20.3685 29.2786 20.6128 30.3609C20.8606 31.4396 19.3151 36.1807 22.151 36.3629C24.9869 36.5452 25.0598 40.306 26.4194 40.4226C27.779 40.5392 30.6732 38.5823 30.757 35.9548C30.8409 33.3237 32.6707 31.0424 30.9065 31.3266C29.1423 31.6109 27.4838 28.5716 25.0488 28.5716V28.5716Z" fill="#84C17A"/>
<path d="M34.3293 34.1181C32.7874 34.9344 33.0899 36.2244 34.2564 36.3593C35.4228 36.4941 36.4142 33.0175 34.3293 34.1181Z" fill="#84C17A"/>
<path d="M22.7488 32C23.6582 25.9754 27.7081 26.1709 27.7081 26.1709C27.7081 26.1709 31.7579 26.3663 30.5479 33.276" stroke="#6B3600" stroke-width="2.73187" stroke-miterlimit="10"/>
<path d="M35.19 27.8927C36.0809 28.0384 37.0259 26.7946 37.3007 25.1144C37.5755 23.4342 37.0761 21.954 36.1852 21.8083C35.2944 21.6625 34.3494 22.9064 34.0745 24.5866C33.7997 26.2667 34.2991 27.7469 35.19 27.8927Z" fill="#6B3600"/>
<path d="M19.613 25.3483C20.5039 25.4941 21.4489 24.2502 21.7237 22.57C21.9985 20.8899 21.4991 19.4097 20.6082 19.2639C19.7173 19.1182 18.7723 20.362 18.4975 22.0422C18.2227 23.7224 18.7221 25.2025 19.613 25.3483Z" fill="#6B3600"/>
<g style="mix-blend-mode:multiply">
<path d="M10.6592 19.7048C13.3397 12.853 20.0089 8 27.812 8C37.906 8 46.1027 16.1211 46.222 26.1844C42.1847 28.5903 37.2837 30 32 30C22.9664 30 15.052 25.8795 10.6592 19.7048Z" fill="#CACACA"/>
</g>
<path d="M24 39.9968L3.03401 39.6484C3.03401 39.6484 2.3563 34.4544 7.05101 34.2073C9.34599 30.052 13.3353 30.014 15.4485 33.6309C19.8598 32.3926 22.8386 34.4702 24 40V39.9968Z" fill="#5A5A5A"/>
<path d="M45.1989 9.6729C44.9171 9.61844 44.6294 9.71609 44.3492 9.92153C44.4855 7.89609 43.8635 6.24368 42.8392 6.08334C41.8136 5.92703 40.749 7.29793 40.2779 9.25289C39.9625 9.02997 39.6235 8.91425 39.2742 8.93609C38.041 9.02478 37.175 10.7987 37.3424 12.8941C37.3867 13.4835 37.5133 14.0363 37.6957 14.5224C38.1686 15.9758 39.4697 17.1345 41.1449 17.3949C42.9268 17.6701 44.6052 16.8454 45.4427 15.4454C45.7878 14.9078 46.0704 14.1798 46.2248 13.3603C46.5721 11.491 46.1144 9.83988 45.2002 9.66887L45.1989 9.6729Z" fill="#E42C2C"/>
<path d="M43.8068 12.0563C43.6411 12.0263 43.4725 12.0844 43.3079 12.2082C43.3966 10.9956 43.0399 10.0075 42.4426 9.91971C41.8417 9.83081 41.2139 10.6583 40.9315 11.8285C40.7489 11.6966 40.5473 11.6275 40.344 11.6427C39.6236 11.6993 39.1062 12.7661 39.1957 14.0205C39.2196 14.375 39.2911 14.7034 39.3942 14.993C39.6638 15.8618 40.4172 16.55 41.3978 16.6972C42.4389 16.8547 43.4249 16.3535 43.9174 15.5134C44.1231 15.188 44.2937 14.7552 44.3835 14.2615C44.5948 13.1425 44.3333 12.155 43.8032 12.0552L43.8068 12.0563Z" fill="#FFC700"/>
<path d="M18.1341 13.1639C17.7624 13.0921 17.3829 13.2209 17.0132 13.4919C17.193 10.8202 16.3726 8.64051 15.0214 8.42901C13.6687 8.22283 12.2644 10.0312 11.6429 12.6099C11.2268 12.3158 10.7798 12.1632 10.3189 12.192C8.69221 12.309 7.54989 14.649 7.7708 17.4129C7.82922 18.1904 7.99622 18.9196 8.23679 19.5608C8.86064 21.4779 10.5768 23.0063 12.7865 23.3499C15.137 23.7129 17.351 22.6251 18.4557 20.7783C18.9109 20.0692 19.2836 19.1089 19.4873 18.0278C19.9454 15.5621 19.3417 13.3842 18.1357 13.1586L18.1341 13.1639Z" fill="#E42C2C"/>
<path d="M16.2978 16.3078C16.0791 16.2683 15.8568 16.3449 15.6397 16.5082C15.7566 14.9086 15.2861 13.6053 14.4983 13.4895C13.7056 13.3722 12.8775 14.4638 12.505 16.0073C12.2641 15.8333 11.9982 15.7422 11.7301 15.7623C10.7798 15.837 10.0973 17.2442 10.2153 18.8988C10.2468 19.3664 10.3411 19.7996 10.4772 20.1816C10.8328 21.3277 11.8266 22.2354 13.1201 22.4296C14.4933 22.6373 15.7939 21.9762 16.4436 20.868C16.7149 20.4388 16.94 19.8678 17.0584 19.2166C17.3372 17.7406 16.9922 16.438 16.293 16.3064L16.2978 16.3078Z" fill="#FFC700"/>
<path d="M41.9656 37.8093C41.6603 37.7503 41.3486 37.8561 41.045 38.0786C41.1927 35.8844 40.5189 34.0943 39.4092 33.9206C38.2982 33.7512 37.1448 35.2364 36.6344 37.3542C36.2927 37.1127 35.9256 36.9874 35.5471 37.0111C34.2111 37.1071 33.2729 39.0289 33.4544 41.2989C33.5023 41.9374 33.6395 42.5363 33.8371 43.0629C34.3494 44.6374 35.7589 45.8926 37.5736 46.1748C39.5041 46.4729 41.3224 45.5795 42.2297 44.0628C42.6035 43.4804 42.9096 42.6917 43.0769 41.8039C43.4532 39.7788 42.9573 37.9902 41.9669 37.8049L41.9656 37.8093Z" fill="#E42C2C"/>
<path d="M40.4574 40.3913C40.2778 40.3588 40.0952 40.4217 39.9169 40.5558C40.0129 39.2422 39.6265 38.1718 38.9794 38.0767C38.3285 37.9803 37.6484 38.8768 37.3424 40.1445C37.1446 40.0016 36.9262 39.9268 36.706 39.9432C35.9255 40.0046 35.365 41.1603 35.4619 42.5192C35.4878 42.9032 35.5653 43.259 35.677 43.5727C35.9691 44.514 36.7853 45.2595 37.8476 45.419C38.9754 45.5895 40.0435 45.0466 40.5771 44.1365C40.7999 43.784 40.9848 43.3151 41.082 42.7802C41.311 41.568 41.0276 40.4982 40.4534 40.3901L40.4574 40.3913Z" fill="#FFC700"/>
<path d="M29 23H55.9416C55.9416 23 56.9178 17.1045 50.8888 16.7344C48.026 11.9621 42.8988 11.8449 40.1133 15.9186C34.4708 14.4277 30.6032 16.7344 29 23Z" fill="#5A5A5A"/>
</svg>
