<svg width="60" height="50" viewBox="0 0 60 50" fill="none" xmlns="http://www.w3.org/2000/svg">
<path d="M27.812 44.8139C37.9803 44.8139 46.2233 36.5728 46.2233 26.4069C46.2233 16.2411 37.9803 8 27.812 8C17.6437 8 9.40063 16.2411 9.40063 26.4069C9.40063 36.5728 17.6437 44.8139 27.812 44.8139Z" fill="#0085CD"/>
<path d="M16.8074 11.6551C19.3735 10.274 18.845 16.0719 18.6955 17.5077C18.5461 18.9436 19.6761 21.0426 16.4975 21.1447C13.319 21.2467 13.33 24.0309 13.33 24.0309C13.33 24.0309 13.1914 27.2997 9.47346 28.065C8.6278 22.8465 12.0141 14.2316 16.8037 11.6551H16.8074Z" fill="#84C17A"/>
<path d="M9.60486 29.1546C9.60486 29.1546 15.386 27.3945 15.2329 32.0226L15.0834 36.6544C15.0834 36.6544 18.076 36.5451 18.7321 38.5239C19.3883 40.5027 21.0468 43.5311 21.0468 43.5311C21.0468 43.5311 11.4493 40.4335 9.60486 29.151V29.1546Z" fill="#84C17A"/>
<path d="M21.6153 9.07498C21.6153 9.07498 20.1135 11.8883 23.3175 11.6332C26.5215 11.3781 28.1801 11.0173 29.2882 11.8264C30.3963 12.6354 35.9915 9.91315 35.9915 9.91315C35.9915 9.91315 29.9115 6.4803 21.6153 9.07498V9.07498Z" fill="#84C17A"/>
<path d="M22.9492 44.1651C22.9492 44.1651 24.7936 42.3722 26.4303 42.7657C28.0669 43.1557 29.6817 44.1797 30.2394 42.8896C30.7971 41.5996 36.4579 41.1878 36.8734 41.6907C36.8734 41.6907 38.1492 40.3205 39.0386 41.0056C38.3461 41.8911 30.593 46.5812 22.9529 44.1651H22.9492Z" fill="#84C17A"/>
<path d="M26.2411 21.8662C28.1621 22.1031 24.455 22.7846 24.6992 24.3516C24.9435 25.9186 25.9677 24.2969 26.1172 25.7619C26.263 27.2305 25.8985 26.5345 26.263 27.2305C26.6275 27.9265 27.495 28.6335 28.0491 27.9703C28.6031 27.307 29.2447 25.5615 29.2556 25.1278C29.2665 24.6941 29.8935 23.4478 30.1851 23.5535C30.4767 23.6592 32.4232 23.7248 32.4961 24.5046C32.569 25.2845 35.4668 26.0644 35.4668 26.0644C35.4668 26.0644 34.0088 25.9186 34.1619 27.1904C34.315 28.4622 36.1521 31.9352 38.1168 31.5125C40.0815 31.0897 42.2941 29.0162 42.3196 28.2363C42.3451 27.4564 42.1884 26.283 42.4253 24.9237C42.6659 23.5681 44.3062 24.009 44.2697 25.1788C44.2333 26.3486 44.9258 31.0423 45.6221 31.0679C46.1397 29.253 46.6609 22.821 44.1968 18.0106C41.7327 13.2003 40.4497 13.94 39.9066 14.0202C39.3634 14.1004 37.0087 12.7775 36.3344 14.2935C35.6491 15.8314 34.0744 14.8037 34.1437 15.6856C34.2129 16.5675 34.1838 17.4421 34.9638 17.4676C35.7439 17.4932 34.7269 18.7285 33.462 18.6848C32.1972 18.6447 28.9859 18.4407 28.9567 19.3189C28.9275 20.1972 25.5085 17.3547 25.4611 18.816C25.4137 20.2773 25.1731 21.7314 26.2411 21.8626V21.8662Z" fill="#84C17A"/>
<path d="M25.0161 14.0275C24.021 15.1645 21.9433 16.0719 23.2081 16.112C24.473 16.1521 26.6491 18.2694 26.7985 16.6186C26.948 14.9677 25.0124 14.0275 25.0124 14.0275H25.0161Z" fill="#84C17A"/>
<path d="M25.0488 28.5716C22.6504 28.5716 20.3685 29.2786 20.6128 30.3609C20.8606 31.4396 19.3151 36.1807 22.151 36.3629C24.9869 36.5452 25.0598 40.306 26.4194 40.4226C27.779 40.5392 30.6732 38.5823 30.757 35.9548C30.8409 33.3237 32.6707 31.0424 30.9065 31.3266C29.1423 31.6109 27.4838 28.5716 25.0488 28.5716V28.5716Z" fill="#84C17A"/>
<path d="M34.3293 34.1181C32.7874 34.9344 33.0899 36.2244 34.2564 36.3593C35.4228 36.4941 36.4142 33.0175 34.3293 34.1181Z" fill="#84C17A"/>
<path d="M23.3418 28.1331C22.9295 32.7538 27.0281 33.1197 27.0281 33.1197C27.0281 33.1197 30.801 33.4566 31.2133 28.8359" stroke="#6B3600" stroke-width="2.73187" stroke-miterlimit="10"/>
<path d="M35.3494 26.6856C36.2485 26.7659 37.1001 25.4563 37.2514 23.7605C37.4027 22.0648 36.7965 20.625 35.8974 20.5448C34.9982 20.4645 34.1466 21.7741 33.9953 23.4698C33.844 25.1656 34.4502 26.6053 35.3494 26.6856Z" fill="#6B3600"/>
<path d="M19.6281 25.2862C20.5272 25.3665 21.3788 24.0569 21.5301 22.3611C21.6814 20.6654 21.0752 19.2256 20.176 19.1453C19.2769 19.0651 18.4253 20.3747 18.274 22.0704C18.1227 23.7662 18.7289 25.2059 19.6281 25.2862Z" fill="#6B3600"/>
<path d="M14.0411 6.23913C14.3238 5.28426 15.6762 5.28426 15.9589 6.23913L16.1333 6.82849C16.7864 9.03458 18.3576 10.8527 20.4458 11.8186L21.0378 12.0924C21.8114 12.4502 21.8114 13.5498 21.0378 13.9076L20.4458 14.1814C18.3576 15.1473 16.7864 16.9654 16.1333 19.1715L15.9589 19.7609C15.6762 20.7157 14.3238 20.7157 14.0411 19.7609L13.8667 19.1715C13.2136 16.9654 11.6424 15.1473 9.55419 14.1814L8.96223 13.9076C8.18864 13.5498 8.18864 12.4502 8.96223 12.0924L9.55419 11.8186C11.6424 10.8527 13.2136 9.03458 13.8667 6.82849L14.0411 6.23913Z" fill="white"/>
<path d="M8.47845 19.7618C8.6322 19.2425 9.3678 19.2425 9.52155 19.7618V19.7618C9.87676 20.9618 10.7314 21.9507 11.8672 22.476L11.9082 22.495C12.3386 22.6941 12.3386 23.3059 11.9082 23.505L11.8672 23.524C10.7314 24.0493 9.87676 25.0382 9.52155 26.2382V26.2382C9.3678 26.7575 8.6322 26.7575 8.47845 26.2382V26.2382C8.12324 25.0382 7.26861 24.0493 6.13282 23.524L6.09179 23.505C5.66137 23.3059 5.66137 22.6941 6.0918 22.495L6.13282 22.476C7.26861 21.9507 8.12324 20.9618 8.47845 19.7618V19.7618Z" fill="white"/>
</svg>
