<svg width="60" height="50" viewBox="0 0 60 50" fill="none" xmlns="http://www.w3.org/2000/svg">
<path d="M27.812 44.8139C37.9803 44.8139 46.2233 36.5728 46.2233 26.4069C46.2233 16.2411 37.9803 8 27.812 8C17.6437 8 9.40063 16.2411 9.40063 26.4069C9.40063 36.5728 17.6437 44.8139 27.812 44.8139Z" fill="#0085CD"/>
<path d="M16.8074 11.6551C19.3735 10.274 18.845 16.0719 18.6955 17.5077C18.5461 18.9436 19.6761 21.0426 16.4975 21.1447C13.319 21.2467 13.33 24.0309 13.33 24.0309C13.33 24.0309 13.1914 27.2997 9.47346 28.065C8.6278 22.8465 12.0141 14.2316 16.8037 11.6551H16.8074Z" fill="#84C17A"/>
<path d="M9.60486 29.1546C9.60486 29.1546 15.386 27.3945 15.2329 32.0226L15.0834 36.6544C15.0834 36.6544 18.076 36.5451 18.7321 38.5239C19.3883 40.5027 21.0468 43.5311 21.0468 43.5311C21.0468 43.5311 11.4493 40.4335 9.60486 29.151V29.1546Z" fill="#84C17A"/>
<path d="M21.6153 9.07498C21.6153 9.07498 20.1135 11.8883 23.3175 11.6332C26.5215 11.3781 28.1801 11.0173 29.2882 11.8264C30.3963 12.6354 35.9915 9.91315 35.9915 9.91315C35.9915 9.91315 29.9115 6.4803 21.6153 9.07498V9.07498Z" fill="#84C17A"/>
<path d="M22.9492 44.1651C22.9492 44.1651 24.7936 42.3722 26.4303 42.7657C28.0669 43.1557 29.6817 44.1797 30.2394 42.8896C30.7971 41.5996 36.4579 41.1878 36.8734 41.6907C36.8734 41.6907 38.1492 40.3205 39.0386 41.0056C38.3461 41.8911 30.593 46.5812 22.9529 44.1651H22.9492Z" fill="#84C17A"/>
<path d="M26.2411 21.8662C28.1621 22.1031 24.455 22.7846 24.6992 24.3516C24.9435 25.9186 25.9677 24.2969 26.1172 25.7619C26.263 27.2305 25.8985 26.5345 26.263 27.2305C26.6275 27.9265 27.495 28.6335 28.0491 27.9703C28.6031 27.307 29.2447 25.5615 29.2556 25.1278C29.2665 24.6941 29.8935 23.4478 30.1851 23.5535C30.4767 23.6592 32.4232 23.7248 32.4961 24.5046C32.569 25.2845 35.4668 26.0644 35.4668 26.0644C35.4668 26.0644 34.0088 25.9186 34.1619 27.1904C34.315 28.4622 36.1521 31.9352 38.1168 31.5125C40.0815 31.0897 42.2941 29.0162 42.3196 28.2363C42.3451 27.4564 42.1884 26.283 42.4253 24.9237C42.6659 23.5681 44.3062 24.009 44.2697 25.1788C44.2333 26.3486 44.9258 31.0423 45.6221 31.0679C46.1397 29.253 46.6609 22.821 44.1968 18.0106C41.7327 13.2003 40.4497 13.94 39.9066 14.0202C39.3634 14.1004 37.0087 12.7775 36.3344 14.2935C35.6491 15.8314 34.0744 14.8037 34.1437 15.6856C34.2129 16.5675 34.1838 17.4421 34.9638 17.4676C35.7439 17.4932 34.7269 18.7285 33.462 18.6848C32.1972 18.6447 28.9859 18.4407 28.9567 19.3189C28.9275 20.1972 25.5085 17.3547 25.4611 18.816C25.4137 20.2773 25.1731 21.7314 26.2411 21.8626V21.8662Z" fill="#84C17A"/>
<path d="M25.0161 14.0275C24.021 15.1645 21.9433 16.0719 23.2081 16.112C24.473 16.1521 26.6491 18.2694 26.7985 16.6186C26.948 14.9677 25.0124 14.0275 25.0124 14.0275H25.0161Z" fill="#84C17A"/>
<path d="M25.0488 28.5716C22.6504 28.5716 20.3685 29.2786 20.6128 30.3609C20.8606 31.4396 19.3151 36.1807 22.151 36.3629C24.9869 36.5452 25.0598 40.306 26.4194 40.4226C27.779 40.5392 30.6732 38.5823 30.757 35.9548C30.8409 33.3237 32.6707 31.0424 30.9065 31.3266C29.1423 31.6109 27.4838 28.5716 25.0488 28.5716V28.5716Z" fill="#84C17A"/>
<path d="M34.3293 34.1181C32.7874 34.9344 33.0899 36.2244 34.2564 36.3593C35.4228 36.4941 36.4142 33.0175 34.3293 34.1181Z" fill="#84C17A"/>
<path d="M22.7488 32C23 30 27 30.5 27 30.5C27 30.5 31 31 30.5479 33.276" stroke="#6B3600" stroke-width="2.73187" stroke-miterlimit="10"/>
<path d="M35.19 27.8927C36.0809 28.0384 37.0259 26.7946 37.3007 25.1144C37.5755 23.4342 37.0761 21.954 36.1852 21.8083C35.2944 21.6625 34.3494 22.9064 34.0745 24.5866C33.7997 26.2667 34.2991 27.7469 35.19 27.8927Z" fill="#6B3600"/>
<path d="M19.613 25.3483C20.5039 25.4941 21.4489 24.2502 21.7237 22.57C21.9985 20.8899 21.4991 19.4097 20.6082 19.2639C19.7173 19.1182 18.7723 20.362 18.4975 22.0422C18.2227 23.7224 18.7221 25.2025 19.613 25.3483Z" fill="#6B3600"/>
<g style="mix-blend-mode:multiply">
<path d="M10.6592 19.7048C13.3397 12.853 20.0089 8 27.812 8C37.906 8 46.1027 16.1211 46.222 26.1844C42.1847 28.5903 37.2837 30 32 30C22.9664 30 15.052 25.8795 10.6592 19.7048Z" fill="#D9D9D9"/>
</g>
<path d="M24 41.9968L3.03401 41.6484C3.03401 41.6484 2.3563 36.4544 7.05101 36.2073C9.34599 32.052 13.3353 32.014 15.4485 35.6309C19.8598 34.3926 22.8386 36.4702 24 42V41.9968Z" fill="#E3E3E3"/>
<path d="M23 23H54.9308C54.9308 23 56.0878 15.9253 48.9423 15.4812C45.5493 9.75456 39.4726 9.61382 36.1713 14.5023C29.4839 12.7133 24.9 15.4812 23 23Z" fill="#E3E3E3"/>
</svg>
