<?xml version="1.0" encoding="utf-8"?>
<!-- Generator: Adobe Illustrator 26.3.1, SVG Export Plug-In . SVG Version: 6.00 Build 0)  -->
<svg version="1.1" id="Calque_1" xmlns="http://www.w3.org/2000/svg" xmlns:xlink="http://www.w3.org/1999/xlink" x="0px" y="0px"
	 viewBox="0 0 50 50" style="enable-background:new 0 0 50 50;" xml:space="preserve">
<style type="text/css">
	.st0{fill:#FF9FB2;}
	.st1{fill:#442009;}
	.st2{fill:#FFFFFF;}
	.st3{fill:#B7A398;}
	.st4{fill:#FDFFFE;}
</style>
<g>
	<path class="st0" d="M50,25c0,13.8-11.2,25-25,25S0,38.8,0,25S11.2,0,25,0S50,11.2,50,25z"/>
	<path class="st1" d="M33.7,17.2H16.4v17.3h17.3V17.2z"/>
	<path class="st2" d="M19.6,19.9h-4.7v12.3h4.7V19.9z"/>
	<path class="st2" d="M20.5,17.2H14v2h6.5V17.2z"/>
	<path class="st2" d="M20.5,32.5H14v2h6.5V32.5z"/>
	<path class="st3" d="M19.6,19.2h-4.7v0.7h4.7V19.2z"/>
	<path class="st3" d="M19.6,31.8h-4.7v0.7h4.7V31.8z"/>
	<path class="st2" d="M27.3,19.9h-4.7v12.3h4.7V19.9z"/>
	<path class="st2" d="M28.2,17.2h-6.5v2h6.5V17.2z"/>
	<path class="st2" d="M28.2,32.5h-6.5v2h6.5V32.5z"/>
	<path class="st3" d="M27.3,19.2h-4.7v0.7h4.7V19.2z"/>
	<path class="st3" d="M27.3,31.8h-4.7v0.7h4.7V31.8z"/>
	<path class="st2" d="M34.9,19.9h-4.7v12.3h4.7V19.9z"/>
	<path class="st2" d="M35.8,17.2h-6.5v2h6.5V17.2z"/>
	<path class="st2" d="M35.8,32.5h-6.5v2h6.5V32.5z"/>
	<path class="st3" d="M34.9,19.2h-4.7v0.7h4.7V19.2z"/>
	<path class="st3" d="M34.9,31.8h-4.7v0.7h4.7V31.8z"/>
	<path class="st3" d="M37.2,34.5H12.6V35h24.6V34.5z"/>
	<path class="st3" d="M37.2,36H12.6v0.8h24.6V36z"/>
	<path class="st2" d="M37.2,35H12.6v1h24.6V35z"/>
	<path class="st3" d="M37.3,16.7H12.7v0.5h24.6V16.7z"/>
	<path class="st3" d="M37.3,15H12.7v0.8h24.6V15z"/>
	<path class="st2" d="M37.3,15.7H12.7v1h24.6V15.7z"/>
	<path class="st2" d="M38.4,36.7H11.6v1.8h26.8V36.7z"/>
	<path class="st4" d="M11.6,15h26.8L24.9,7.2L11.6,15z"/>
	<path class="st3" d="M16.4,13.8h16.9l-8.5-4.9L16.4,13.8z"/>
	<path class="st2" d="M19,13.1h11.9l-6-3.4L19,13.1z"/>
</g>
</svg>
