<?xml version="1.0" encoding="utf-8"?>
<!-- Generator: Adobe Illustrator 26.3.1, SVG Export Plug-In . SVG Version: 6.00 Build 0)  -->
<svg version="1.1" id="Calque_1" xmlns="http://www.w3.org/2000/svg" xmlns:xlink="http://www.w3.org/1999/xlink" x="0px" y="0px"
	 viewBox="0 0 50 50" style="enable-background:new 0 0 50 50;" xml:space="preserve">
<style type="text/css">
	.st0{fill:#2B58CD;}
	.st1{fill:none;stroke:#F9F5E4;stroke-width:0.8748;stroke-miterlimit:10;}
	.st2{fill:#FF9FB2;}
	.st3{fill:#FA5569;}
	.st4{fill:#FFC700;}
	.st5{fill:#FFFFFF;}
</style>
<g>
	<path class="st0" d="M49.9,25c0,13.8-11.2,25-25,25s-25-11.2-25-25s11.2-25,25-25S49.9,11.2,49.9,25z"/>
	<path class="st1" d="M35.2,29.2c0,0-1.4,9.4-5.4,10.5"/>
	<g>
		<ellipse class="st2" cx="35.2" cy="21.3" rx="7.3" ry="7.9"/>
		<path class="st2" d="M34.6,28.5c0.1,0,0.2,0,0.3,0.1c0.1-0.1,0.2-0.1,0.3-0.1c0.1,0,0.2,0.1,0.3,0.2c0.1-0.1,0.2-0.2,0.3-0.2
			c0.3,0,0.5,0.4,0.5,0.8s-0.2,0.8-0.5,0.8c-0.1,0-0.2-0.1-0.3-0.2c-0.1,0.1-0.2,0.2-0.3,0.2c-0.1,0-0.2,0-0.3-0.1
			c-0.1,0.1-0.2,0.1-0.3,0.1c-0.3,0-0.5-0.4-0.5-0.8S34.3,28.5,34.6,28.5z"/>
	</g>
	<path class="st1" d="M24.1,28.5c0,0,0.8,11.2,0,12.3"/>
	<path class="st1" d="M14.7,29.2c0,0,1.4,9.4,5.4,10.5"/>
	<g>
		<ellipse class="st3" cx="14.7" cy="21.3" rx="7.3" ry="7.9"/>
		<path class="st3" d="M14,28.5c0.1,0,0.2,0,0.3,0.1c0.1-0.1,0.2-0.1,0.3-0.1c0.1,0,0.2,0.1,0.3,0.2c0.1-0.1,0.2-0.2,0.3-0.2
			c0.3,0,0.5,0.4,0.5,0.8s-0.2,0.8-0.5,0.8c-0.1,0-0.2-0.1-0.3-0.2c-0.1,0.1-0.2,0.2-0.3,0.2c-0.1,0-0.2,0-0.3-0.1
			c-0.1,0.1-0.2,0.1-0.3,0.1c-0.3,0-0.5-0.4-0.5-0.8S13.7,28.5,14,28.5z"/>
	</g>
	<g>
		<ellipse class="st4" cx="24.1" cy="18.9" rx="8.8" ry="9.7"/>
		<path class="st4" d="M24.9,27.7c-0.1,0-0.3,0.1-0.4,0.2c-0.1-0.1-0.2-0.2-0.4-0.2c-0.2,0-0.3,0.1-0.4,0.2
			c-0.1-0.1-0.3-0.2-0.4-0.2c-0.4,0-0.7,0.5-0.7,1s0.3,1,0.7,1c0.2,0,0.3-0.1,0.4-0.2c0.1,0.1,0.3,0.2,0.4,0.2
			c0.1,0,0.3-0.1,0.4-0.2c0.1,0.1,0.2,0.2,0.4,0.2c0.4,0,0.7-0.5,0.7-1S25.3,27.7,24.9,27.7z"/>
		<ellipse transform="matrix(0.8254 -0.5645 0.5645 0.8254 -2.6576 18.1043)" class="st5" cx="27.9" cy="13.3" rx="1.3" ry="2.1"/>
	</g>
</g>
</svg>
