<?xml version="1.0" encoding="utf-8"?>
<!-- Generator: Adobe Illustrator 26.3.1, SVG Export Plug-In . SVG Version: 6.00 Build 0)  -->
<svg version="1.1" id="Calque_1" xmlns="http://www.w3.org/2000/svg" xmlns:xlink="http://www.w3.org/1999/xlink" x="0px" y="0px"
	 viewBox="0 0 50 50" style="enable-background:new 0 0 50 50;" xml:space="preserve">
<style type="text/css">
	.st0{fill:#84C17A;}
	.st1{fill:#FA5569;}
	.st2{fill:#422B28;}
	.st3{fill:#FFFFFF;}
</style>
<g>
	<path class="st0" d="M50,25c0,13.8-11.2,25-25,25S0,38.8,0,25S11.2,0,25,0S50,11.2,50,25z"/>
	<g>
		<path class="st1" d="M29,13.3c-1.4,0-2.8,0.3-4,0.9c-1.2-0.6-2.6-0.9-4-0.9c-5.6,0-10.2,5.4-10.2,12c0,6.6,4.6,12,10.2,12
			c1.4,0,2.8-0.3,4-0.9c1.2,0.6,2.6,0.9,4,0.9c5.6,0,10.2-5.4,10.2-12C39.2,18.6,34.6,13.3,29,13.3z"/>
		<path class="st2" d="M25.4,14.2c-0.4,1.9-3.5-5.3,0-5.3S26.9,7.7,25.4,14.2z"/>
		<g>
			<ellipse transform="matrix(0.9068 -0.4216 0.4216 0.9068 -4.9887 15.8496)" class="st3" cx="33.3" cy="19.2" rx="1.6" ry="3.3"/>
		</g>
	</g>
</g>
</svg>
