<?xml version="1.0" encoding="utf-8"?>
<!-- Generator: Adobe Illustrator 26.3.1, SVG Export Plug-In . SVG Version: 6.00 Build 0)  -->
<svg version="1.1" id="Calque_1" xmlns="http://www.w3.org/2000/svg" xmlns:xlink="http://www.w3.org/1999/xlink" x="0px" y="0px"
	 viewBox="0 0 50 50" style="enable-background:new 0 0 50 50;" xml:space="preserve">
<style type="text/css">
	.st0{fill:#EBD6FB;}
	.st1{fill:none;stroke:#ED0000;stroke-width:1.6893;stroke-linecap:round;stroke-linejoin:round;stroke-miterlimit:10;}
	.st2{fill:#0085CD;}
	.st3{fill:none;stroke:#422BCD;stroke-width:1.6893;stroke-linecap:round;stroke-linejoin:round;stroke-miterlimit:10;}
	.st4{fill:#FFFFFF;}
</style>
<path class="st0" d="M50,25c0,13.8-11.2,25-25,25S0,38.8,0,25S11.2,0,25,0S50,11.2,50,25z"/>
<g>
	<path class="st1" d="M11.2,19.8"/>
	<path class="st2" d="M10.3,20.4l12.5,15.9c1,1.3,3.4,1.3,4.3,0l12.5-15.9H10.3z"/>
	<path class="st2" d="M39.7,20.4H10.3l3.3-5.6c0.4-0.8,1.3-1.3,2.2-1.3h18.3c0.9,0,1.7,0.5,2.2,1.3L39.7,20.4z"/>
	<polyline class="st3" points="34.7,14.4 29.9,19.8 25,14.1 20.1,19.8 15.2,14.4 	"/>
	<polyline class="st3" points="30.2,20.5 25,36.3 19.8,20.5 	"/>
	<line class="st3" x1="11.2" y1="20.4" x2="38.8" y2="20.4"/>
</g>
<path class="st4" d="M36.5,11.4c0.2-0.6,1.1-0.6,1.3,0l0.1,0.4c0.4,1.5,1.5,2.7,2.8,3.3l0.4,0.2c0.5,0.2,0.5,1,0,1.2l-0.4,0.2
	c-1.4,0.6-2.4,1.8-2.8,3.3l-0.1,0.4c-0.2,0.6-1.1,0.6-1.3,0L36.4,20c-0.4-1.5-1.5-2.7-2.8-3.3l-0.4-0.2c-0.5-0.2-0.5-1,0-1.2
	l0.4-0.2c1.4-0.6,2.4-1.8,2.8-3.3L36.5,11.4z"/>
<path class="st4" d="M16.3,26.3c0.2-0.5,0.9-0.5,1,0l0,0c0.4,1.2,1.2,2.2,2.3,2.7l0,0c0.4,0.2,0.4,0.8,0,1l0,0
	c-1.1,0.5-2,1.5-2.3,2.7l0,0c-0.2,0.5-0.9,0.5-1,0l0,0c-0.4-1.2-1.2-2.2-2.3-2.7l0,0c-0.4-0.2-0.4-0.8,0-1l0,0
	C15.1,28.5,15.9,27.5,16.3,26.3L16.3,26.3z"/>
</svg>
