<?xml version="1.0" encoding="utf-8"?>
<!-- Generator: Adobe Illustrator 26.3.1, SVG Export Plug-In . SVG Version: 6.00 Build 0)  -->
<svg version="1.1" id="Calque_1" xmlns="http://www.w3.org/2000/svg" xmlns:xlink="http://www.w3.org/1999/xlink" x="0px" y="0px"
	 viewBox="0 0 50 50" style="enable-background:new 0 0 50 50;" xml:space="preserve">
<style type="text/css">
	.st0{fill:#BCECFB;}
	.st1{fill:#BCECFB;filter:url(#Adobe_OpacityMaskFilter);}
	.st2{mask:url(#mask0_541_500_00000088091718958274142230000002921603985230566075_);}
	.st3{fill:#76BAD1;}
	.st4{fill:none;stroke:#386370;stroke-width:1.5781;stroke-miterlimit:10;}
</style>
<g>
	<path class="st0" d="M24.9,50c13.8,0,25-11.2,25-25S38.7,0,24.9,0s-25,11.2-25,25S11.1,50,24.9,50z"/>
	<defs>
		<filter id="Adobe_OpacityMaskFilter" filterUnits="userSpaceOnUse" x="-2" y="14.8" width="52.7" height="35.2">
			<feColorMatrix  type="matrix" values="1 0 0 0 0  0 1 0 0 0  0 0 1 0 0  0 0 0 1 0"/>
		</filter>
	</defs>
	
		<mask maskUnits="userSpaceOnUse" x="-2" y="14.8" width="52.7" height="35.2" id="mask0_541_500_00000088091718958274142230000002921603985230566075_">
		<path class="st1" d="M24.9,50c13.8,0,25-11.2,25-25S38.7,0,24.9,0s-25,11.2-25,25S11.1,50,24.9,50z"/>
	</mask>
	<g class="st2">
		<path class="st3" d="M38.7,34c-5-1.5-2.3-7.4-8.7-8.5c-6.4-1.1-9.8,7.4-13.6,3.3c-3.8-4.1-1.1-7.5,5-10.4
			C9.8,10.3,2.7,21.9,0,27.6C1.3,40.2,12,50,24.9,50c12.2,0,22.4-8.8,24.6-20.4C47.1,31.6,42.3,35,38.7,34L38.7,34z"/>
		<path class="st4" d="M-1.2,30.2c0,0,2.1-12.9,14.9-14.6c7.8,0,7.7,2.8,7.7,2.8s-10.2,4.9-5.8,9.2c4.4,4.4,8-0.2,9.3-1.1
			c0.7-0.6,2.7-1.9,6-1.2c5.2,1.1,4.9,5.2,5,6.5c0.2,1.9,0.8,3,4.4,2.5c3.5-0.5,10.1-5.5,10.1-5.5"/>
		<path class="st4" d="M0.5,37.5c0,0,5.9-6.8,11.5-0.8c5.6,6.1,12,3.4,13.7,1.6c1.6-1.8,5.6-3.5,9.7,3.5c4.2,7.1,10,1.3,10,1.3"/>
	</g>
</g>
</svg>
