<?xml version="1.0" encoding="utf-8"?>
<!-- Generator: Adobe Illustrator 26.3.1, SVG Export Plug-In . SVG Version: 6.00 Build 0)  -->
<svg version="1.1" id="Calque_1" xmlns="http://www.w3.org/2000/svg" xmlns:xlink="http://www.w3.org/1999/xlink" x="0px" y="0px"
	 viewBox="0 0 50 50" style="enable-background:new 0 0 50 50;" xml:space="preserve">
<style type="text/css">
	.st0{fill:#D1E2D9;}
	.st1{fill:#84C17A;}
	.st2{fill:#40543C;}
</style>
<path class="st0" d="M50,25c0,13.8-11.2,25-25,25S0,38.8,0,25S11.2,0,25,0S50,11.2,50,25z"/>
<g>
	<path class="st1" d="M18,31.7C3.3,24.3,19.3,13.1,34.8,12C37.2,25.6,33.5,46.2,18,31.7z"/>
	<path class="st2" d="M27.7,22.4l0.3,0.3c0.3,0.3,0.3,0.8,0,1.2L14.1,37.8c-0.3,0.3-0.8,0.3-1.2,0l-0.3-0.3c-0.3-0.3-0.3-0.8,0-1.2
		l13.9-13.9C26.9,22.1,27.4,22.1,27.7,22.4z"/>
</g>
</svg>
