<?xml version="1.0" encoding="utf-8"?>
<!-- Generator: Adobe Illustrator 26.3.1, SVG Export Plug-In . SVG Version: 6.00 Build 0)  -->
<svg version="1.1" id="Calque_1" xmlns="http://www.w3.org/2000/svg" xmlns:xlink="http://www.w3.org/1999/xlink" x="0px" y="0px"
	 viewBox="0 0 50 50" style="enable-background:new 0 0 50 50;" xml:space="preserve">
<style type="text/css">
	.st0{fill:#FA5569;}
	.st1{fill:#FFFFFF;}
	.st2{fill:#442009;}
</style>
<path class="st0" d="M50,25c0,13.8-11.2,25-25,25S0,38.8,0,25S11.2,0,25,0S50,11.2,50,25z"/>
<g>
	<circle class="st1" cx="25" cy="25" r="14"/>
	<polygon class="st2" points="25,18.2 19.2,22.4 21.5,29.2 28.6,29.2 30.8,22.4 	"/>
	<path class="st2" d="M11.4,28.4h0.8l2.8-4.9l-2.6-4.5C11.5,20.8,11,22.8,11,25C11,26.2,11.2,27.3,11.4,28.4z"/>
	<path class="st2" d="M14.3,16l1.5,1.2L21,15l0.4-3.5C18.6,12.3,16.1,13.9,14.3,16z"/>
	<path class="st2" d="M30.2,15l5.2,2.2l0.8-0.6c-1.6-2.1-3.8-3.8-6.4-4.7L30.2,15z"/>
	<path class="st2" d="M14.9,30.8l-1.7,1.7c1.8,2.8,4.6,4.9,7.9,5.9l0.8-0.8l-1.6-5.4L14.9,30.8z"/>
	<path class="st2" d="M29.5,38.2c3.2-1.1,5.9-3.3,7.6-6.2l-1.7-1.3l-5.2,2.2L29.5,38.2z"/>
	<path class="st2" d="M35,23.5l2.8,4.9h0.7c0.3-1.1,0.4-2.2,0.4-3.4c0-2.2-0.5-4.2-1.4-6L35,23.5z"/>
</g>
</svg>
