<svg width="54" height="54" viewBox="0 0 54 54" fill="none" xmlns="http://www.w3.org/2000/svg">
<path d="M27 54C41.9117 54 54 41.9117 54 27C54 12.0883 41.9117 0 27 0C12.0883 0 0 12.0883 0 27C0 41.9117 12.0883 54 27 54Z" fill="#2B58CD"/>
<path d="M27 54C41.9117 54 54 41.9117 54 27C54 12.0883 41.9117 0 27 0C12.0883 0 0 12.0883 0 27C0 41.9117 12.0883 54 27 54Z" stroke="#FAF1E5"/>
<path d="M35.6586 19.209H18.3691V36.4797H35.6586V19.209Z" fill="#442009"/>
<path d="M21.5788 21.8564H16.8638V34.1592H21.5788V21.8564Z" fill="white"/>
<path d="M22.4523 19.209H15.9907V21.2013H22.4523V19.209Z" fill="white"/>
<path d="M22.4523 34.4893H15.9907V36.4816H22.4523V34.4893Z" fill="white"/>
<path d="M21.5788 21.2012H16.8638V21.859H21.5788V21.2012Z" fill="#B7A398"/>
<path d="M21.5788 33.832H16.8638V34.4899H21.5788V33.832Z" fill="#B7A398"/>
<path d="M29.281 21.8564H24.5659V34.1592H29.281V21.8564Z" fill="white"/>
<path d="M30.1544 19.209H23.6929V21.2013H30.1544V19.209Z" fill="white"/>
<path d="M30.1544 34.4893H23.6929V36.4816H30.1544V34.4893Z" fill="white"/>
<path d="M29.281 21.2012H24.5659V21.859H29.281V21.2012Z" fill="#B7A398"/>
<path d="M29.281 33.832H24.5659V34.4899H29.281V33.832Z" fill="#B7A398"/>
<path d="M36.925 21.8564H32.21V34.1592H36.925V21.8564Z" fill="white"/>
<path d="M37.7985 19.209H31.3369V21.2013H37.7985V19.209Z" fill="white"/>
<path d="M37.7985 34.4893H31.3369V36.4816H37.7985V34.4893Z" fill="white"/>
<path d="M36.925 21.2012H32.21V21.859H36.925V21.2012Z" fill="#B7A398"/>
<path d="M36.925 33.832H32.21V34.4899H36.925V33.832Z" fill="#B7A398"/>
<path d="M39.1891 36.4795H14.5977V37.0156H39.1891V36.4795Z" fill="#B7A398"/>
<path d="M39.2194 37.9707H14.6279V38.7269H39.2194V37.9707Z" fill="#B7A398"/>
<path d="M39.1891 37.0156H14.5977V37.9708H39.1891V37.0156Z" fill="white"/>
<path d="M39.2941 18.6729H14.7026V19.209H39.2941V18.6729Z" fill="#B7A398"/>
<path d="M39.3249 16.9619H14.7334V17.7181H39.3249V16.9619Z" fill="#B7A398"/>
<path d="M39.2941 17.7197H14.7026V18.6749H39.2941V17.7197Z" fill="white"/>
<path d="M40.4392 38.7275H13.5908V40.5068H40.4392V38.7275Z" fill="white"/>
<path d="M13.5908 16.9615H40.4392L26.8956 9.20996L13.5908 16.9615Z" fill="#FDFFFE"/>
<path d="M18.4463 15.7813H35.3424L26.8183 10.9023L18.4463 15.7813Z" fill="#B7A398"/>
<path d="M20.9912 15.0554H32.8585L26.8722 11.6279L20.9912 15.0554Z" fill="white"/>
</svg>
