<svg width="107" height="105" viewBox="0 0 107 105" fill="none" xmlns="http://www.w3.org/2000/svg">
<path d="M63.3892 84.9069C81.2885 77.197 89.5625 56.4373 81.8526 38.5381C74.1426 20.6389 53.383 12.3648 35.4838 20.0748C17.5845 27.7847 9.31047 48.5444 17.0204 66.4436C24.7304 84.3428 45.49 92.6169 63.3892 84.9069Z" fill="#0085CD"/>
<path d="M18.3217 35.8575C21.6465 31.3671 25.4463 41.8568 26.3592 44.4736C27.272 47.0904 30.945 49.8093 25.5115 52.5657C20.0879 55.3386 22.3698 60.1381 22.3698 60.1381C22.3698 60.1381 24.8015 65.926 18.9635 70.277C13.2584 61.91 12.1107 44.19 18.3281 35.8311L18.3217 35.8575Z" fill="#007B00"/>
<path d="M20.0872 72.093C20.0872 72.093 28.6915 64.3326 32.1964 72.4827L35.7013 80.6328C35.7013 80.6328 40.809 78.0065 43.5564 80.9046C46.3039 83.8026 51.6445 87.7135 51.6445 87.7135C51.6445 87.7135 32.4766 90.1443 20.0773 72.0766L20.0872 72.093Z" fill="#007B00"/>
<path d="M24.5627 27.463C24.5627 27.463 24.2428 33.5709 29.609 30.5181C34.9587 27.4752 37.5407 25.5041 40.1247 25.9829C42.7023 26.488 50.2078 17.2129 50.2078 17.2129C50.2078 17.2129 36.8658 16.1995 24.5791 27.453L24.5627 27.463Z" fill="#007B00"/>
<path d="M55.4481 87.2735C55.4481 87.2735 57.193 82.6621 60.3485 82.0072C63.5041 81.3522 67.1398 81.8225 67.0575 79.1291C66.9752 76.4357 76.4519 71.1143 77.5821 71.6429C77.5821 71.6429 78.6832 68.2316 80.7825 68.6896C80.308 70.7988 70.6712 85.2345 55.4481 87.2735Z" fill="#007B00"/>
<path d="M43.0049 45.8923C46.5339 44.7409 40.6491 48.9404 42.356 51.4578C44.063 53.9751 44.5069 50.3329 45.9563 52.7592C47.4221 55.1755 46.201 54.2747 47.4221 55.1755C48.6267 56.0862 50.7065 56.6235 51.1174 55.0026C51.5382 53.3981 51.2308 49.8518 50.9007 49.0852C50.5706 48.3185 50.6367 45.6475 51.2366 45.5984C51.82 45.5593 55.2617 44.0787 56.023 45.3708C56.7843 46.6629 62.4473 45.6561 62.4473 45.6561C62.4473 45.6561 59.7976 46.5889 61.1068 48.673C62.416 50.757 68.419 55.278 71.4807 52.9485C74.5423 50.619 76.7054 45.2143 76.102 43.8489C75.515 42.4736 74.2891 40.5639 73.5975 38.0152C72.9059 35.4665 76.1113 34.8938 77.0049 36.9601C77.8986 39.0263 82.9174 46.5954 84.1513 46.0717C83.5669 42.5136 79.244 30.9022 71.0395 24.5685C62.8515 18.2249 61.2308 20.5573 60.3466 21.1386C59.4625 21.7199 54.3072 21.3394 54.3688 24.5176C54.4174 27.7486 50.8738 27.2448 51.702 28.7212C52.5301 30.1976 53.2004 31.7474 54.5658 31.1439C55.9412 30.557 55.1741 33.5183 52.9499 34.4852C50.7257 35.4522 44.9831 37.6991 45.6369 39.2588C46.3071 40.8085 38.0571 38.6625 39.1642 41.2289C40.2713 43.7954 41.0297 46.5283 42.995 45.8759L43.0049 45.8923Z" fill="#007B00"/>
<path d="M34.5024 33.283C33.695 36.0664 30.8389 39.328 33.0731 38.3775C35.2973 37.4105 40.803 39.3324 39.7201 36.324C38.6472 33.3321 34.5189 33.273 34.5189 33.273L34.5024 33.283Z" fill="#007B00"/>
<path d="M46.3997 58.4918C42.2383 60.4541 38.8507 63.5435 40.1512 65.2055C41.4618 66.884 42.642 76.3544 47.7166 74.3778C52.7813 72.3848 55.9681 78.8615 58.43 77.9527C60.8919 77.0439 64.3129 71.3034 62.3121 66.6707C60.3113 62.038 61.6333 56.5813 58.8072 58.5206C55.981 60.4599 50.6304 56.5326 46.3933 58.5182L46.3997 58.4918Z" fill="#007B00"/>
<path d="M67.0236 60.5775C64.9989 63.2448 66.5946 65.245 68.7177 64.5193C70.8508 63.8099 69.7395 56.9737 67.0236 60.5775Z" fill="#007B00"/>
<path d="M48.7588 66.347C51.3032 72.2465 57.3706 69.6452 57.3706 69.6452C57.3706 69.6452 62.9707 67.2375 60.4427 61.328" stroke="#442009" stroke-width="3.95533" stroke-miterlimit="10"/>
<path d="M75.7441 21.8697C75.2505 22.0567 74.8735 22.5103 74.6555 23.1147C72.852 19.734 70.234 17.6794 68.4506 18.4464C66.6673 19.2134 66.3567 22.4824 67.558 26.0935C66.839 26.0575 66.1869 26.2057 65.6579 26.5941C63.7851 27.955 64.1758 31.6756 66.5257 34.8822C67.1863 35.7858 67.9384 36.5438 68.7129 37.1533C70.9014 39.0187 74.1222 39.5834 77.0308 38.3362C80.1302 36.9956 81.9819 34.006 81.9109 30.9235C81.9313 29.6968 81.6508 28.2705 81.0896 26.7895C79.7809 23.446 77.4094 21.2418 75.787 21.8662L75.7441 21.8697Z" fill="#ED0000"/>
<path d="M75.7941 26.8094C75.4684 26.9395 75.2323 27.2177 75.076 27.6273C73.8948 25.4206 72.1804 24.0771 71.0222 24.5773C69.864 25.0775 69.6501 27.2085 70.4298 29.5688C69.9615 29.5381 69.5301 29.6424 69.1884 29.8946C67.9761 30.7875 68.2351 33.2162 69.7521 35.3092C70.1803 35.9039 70.6773 36.3894 71.1672 36.7893C72.6041 38.0089 74.6963 38.3812 76.6047 37.5608C78.6381 36.6871 79.832 34.7261 79.7894 32.7282C79.802 31.9335 79.6128 30.9914 79.2487 30.0205C78.3973 27.8387 76.8472 26.3954 75.7941 26.8094Z" fill="#FFB200"/>
<path d="M58.4873 54.3986C55.5694 47.6239 48.5939 50.6186 48.5939 50.6186C48.5939 50.6186 42.1614 53.3964 45.0694 60.1547" stroke="#442009" stroke-width="4.53633" stroke-miterlimit="10"/>
<path d="M15.3018 66.3144C15.3018 66.3144 15.3716 66.4294 15.4015 66.4788C19.3637 74.4189 29.1116 78.1073 37.335 74.7603C46.2922 71.1031 50.4726 60.8319 46.661 51.9909L46.6211 51.9251C45.0806 48.3848 40.8266 46.8954 37.2764 48.4194L19.2685 56.1728C15.3432 57.8569 13.4598 62.4623 15.3183 66.3044L15.3018 66.3144Z" fill="#442009"/>
<path d="M51.7852 50.6171C51.7852 50.6171 51.8386 50.7421 51.8849 50.7815C55.8471 58.7216 65.595 62.41 73.8184 59.063C82.7756 55.4058 86.956 45.1346 83.1444 36.2936L83.1045 36.2279C81.564 32.6876 77.31 31.1981 73.7598 32.7222L55.7519 40.4755C51.8266 42.1596 49.9432 46.7651 51.8016 50.6071L51.7852 50.6171Z" fill="#442009"/>
<path d="M18.3545 38.3578C17.8608 38.5449 17.5003 38.9885 17.2658 39.6029C15.4723 36.2386 12.8643 34.2004 11.0809 34.9674C9.314 35.7244 8.99348 38.977 10.1847 42.5717C9.46577 42.5357 8.81365 42.6839 8.28469 43.0722C6.43831 44.4396 6.80902 48.1274 9.14902 51.3176C9.80954 52.2211 10.5517 52.9627 11.3262 53.5722C13.5147 55.4377 16.709 55.9959 19.6013 54.7586C22.6843 53.428 24.5195 50.4484 24.442 47.3922C24.456 46.192 24.1819 44.7393 23.6143 43.2847C22.3155 39.9575 19.954 37.7698 18.348 38.3843L18.3545 38.3578Z" fill="#ED0000"/>
<path d="M18.4115 43.2709C18.0857 43.4011 17.8496 43.6792 17.7098 44.0788C16.5386 41.8886 14.8241 40.5451 13.6659 41.0452C12.5077 41.5454 12.3103 43.6665 13.08 46.0104C12.6117 45.9797 12.1803 46.084 11.8386 46.3362C10.6263 47.229 10.8918 49.6314 12.4088 51.7243C12.837 52.319 13.3339 52.8046 13.8238 53.2045C15.2508 54.4076 17.3265 54.7899 19.2349 53.9695C21.2519 53.1058 22.4459 51.1448 22.4032 49.1469C22.4158 48.3522 22.2266 47.4101 21.856 46.4656C21.0047 44.2837 19.4645 42.8569 18.4115 43.2709Z" fill="#FFB200"/>
<path d="M89.1796 73.7826C93.355 71.9918 95.2866 67.1323 93.4793 62.9668C91.6885 58.7914 86.8454 56.8498 82.6635 58.667C78.4881 60.4579 76.5564 65.3174 78.3637 69.4828C80.1546 73.6583 84.9977 75.5999 89.1796 73.7826Z" fill="#0085CD"/>
<path d="M95.2291 46.6146C95.5807 45.0072 94.5707 43.4162 92.9468 43.0746C91.3393 42.723 89.7484 43.7331 89.3968 45.3405L85.2712 64.1907C84.9197 65.7982 85.9297 67.3891 87.5536 67.7307C89.161 68.0823 90.752 67.0723 91.1035 65.4648L95.2291 46.6146Z" fill="#0085CD"/>
<path d="M80.0132 44.8472C79.3629 43.3303 77.6153 42.6365 76.0984 43.2868C74.5816 43.9371 73.8878 45.6847 74.5381 47.2016L82.1319 64.9464C82.7822 66.4632 84.5298 67.157 86.0466 66.5067C87.5635 65.8564 88.2573 64.1088 87.607 62.592L80.0132 44.8472Z" fill="#0085CD"/>
<path d="M93.1027 64.2746C93.1027 64.2746 84.0117 58.7036 83.9171 63.663C83.8325 68.6389 89.3571 70.3695 89.3571 70.3695" stroke="#0075A8" stroke-width="2.30169" stroke-miterlimit="10" stroke-linecap="round"/>
</svg>
