<svg width="60" height="50" viewBox="0 0 60 50" fill="none" xmlns="http://www.w3.org/2000/svg">
<g clip-path="url(#clip0_1256_16405)">
<ellipse rx="19.0051" ry="19.0307" transform="matrix(0.950915 -0.309453 0.309557 0.950881 27.9706 26.4938)" fill="#FFC700"/>
<path d="M21.1871 28.3268C21.9729 28.0545 22.1935 26.6324 21.6798 25.1505C21.1662 23.6685 20.1127 22.688 19.327 22.9603C18.5412 23.2327 18.3206 24.6548 18.8343 26.1367C19.3479 27.6186 20.4014 28.5991 21.1871 28.3268Z" fill="#6B3600"/>
<path d="M34.9246 23.5616C35.7104 23.2892 35.931 21.8672 35.4173 20.3852C34.9036 18.9033 33.8502 17.9228 33.0644 18.1951C32.2786 18.4675 32.058 19.8896 32.5717 21.3715C33.0854 22.8534 34.1388 23.8339 34.9246 23.5616Z" fill="#6B3600"/>
<path d="M15.4761 37.2055C17.9256 36.3566 19.2221 33.6801 18.3719 31.2274C17.5216 28.7746 14.8467 27.4745 12.3971 28.3234C9.94763 29.1724 8.65116 31.8489 9.5014 34.3016C10.3516 36.7543 13.0266 38.0544 15.4761 37.2055Z" fill="#FA5569"/>
<path d="M44.5706 27.6198C47.0201 26.7709 48.3166 24.0944 47.4663 21.6416C46.6161 19.1889 43.9411 17.8888 41.4916 18.7377C39.0421 19.5866 37.7456 22.2632 38.5959 24.7159C39.4461 27.1686 42.1211 28.4687 44.5706 27.6198Z" fill="#FA5569"/>
<path d="M26.7396 33.1966C25.11 28.4954 28.6919 27.254 28.6919 27.254C28.6919 27.254 31.9891 26.1112 33.6187 30.8124" fill="#6B3600"/>
<path d="M26.7396 33.1966C25.11 28.4954 28.6919 27.254 28.6919 27.254C28.6919 27.254 31.9891 26.1112 33.6187 30.8124" stroke="#6B3600" stroke-width="2.73187" stroke-miterlimit="10"/>
</g>
<defs>
<clipPath id="clip0_1256_16405">
<rect width="60" height="50" fill="white"/>
</clipPath>
</defs>
</svg>
