<svg width="55" height="53" viewBox="0 0 55 53" fill="none" xmlns="http://www.w3.org/2000/svg">
<ellipse rx="20.6297" ry="20.6575" transform="matrix(0.950915 -0.309453 0.309557 0.950881 27.1051 26.4152)" fill="#FFC700"/>
<path d="M19.7418 28.405C20.5948 28.1093 20.8342 26.5657 20.2766 24.9571C19.7191 23.3485 18.5756 22.2841 17.7226 22.5797C16.8697 22.8754 16.6302 24.419 17.1878 26.0276C17.7454 27.6362 18.8889 28.7006 19.7418 28.405Z" fill="#6B3600"/>
<path d="M34.6535 23.2324C35.5065 22.9368 35.7459 21.3931 35.1883 19.7845C34.6307 18.1759 33.4873 17.1116 32.6343 17.4072C31.7814 17.7028 31.5419 19.2465 32.0995 20.8551C32.6571 22.4637 33.8006 23.528 34.6535 23.2324Z" fill="#6B3600"/>
<path d="M13.5426 38.0426C16.2015 37.1211 17.6088 34.2158 16.6859 31.5534C15.763 28.8911 12.8594 27.4798 10.2005 28.4013C7.54157 29.3228 6.13428 32.2281 7.05719 34.8905C7.9801 37.5528 10.8837 38.9641 13.5426 38.0426Z" fill="#FA5569"/>
<path d="M45.124 27.6375C47.7829 26.716 49.1902 23.8107 48.2673 21.1483C47.3444 18.486 44.4408 17.0747 41.7819 17.9962C39.123 18.9177 37.7157 21.823 38.6386 24.4854C39.5615 27.1477 42.4651 28.559 45.124 27.6375Z" fill="#FA5569"/>
<path d="M24 28.588C25.5194 32.9711 29.4074 31.6236 29.4074 31.6236C29.4074 31.6236 32.9864 30.3831 31.4671 26" stroke="#6B3600" stroke-width="2.73187" stroke-miterlimit="10"/>
</svg>
