<svg width="48" height="38" viewBox="0 0 48 38" fill="none" xmlns="http://www.w3.org/2000/svg">
<path d="M0.622864 25.4092L18.7462 25.7044C18.7462 25.7044 19.8288 20.9159 15.1376 20.5223C14.8642 17.5668 9.94699 17.8 7.71984 21.2511C6.55706 18.3758 1.94238 18.2993 0.622864 25.4128V25.4092Z" fill="#444444"/>
<path d="M23.7329 37.643C33.9012 37.643 42.1442 29.4019 42.1442 19.236C42.1442 9.07016 33.9012 0.829102 23.7329 0.829102C13.5646 0.829102 5.32159 9.07016 5.32159 19.236C5.32159 29.4019 13.5646 37.643 23.7329 37.643Z" fill="#0085CD"/>
<path d="M12.7283 4.48441C15.2944 3.10326 14.7659 8.9012 14.6164 10.337C14.467 11.7728 15.597 13.8719 12.4184 13.974C9.23992 14.076 9.25086 16.8602 9.25086 16.8602C9.25086 16.8602 9.11235 20.129 5.39436 20.8943C4.5487 15.6758 7.93498 7.06088 12.7246 4.48441H12.7283Z" fill="#007B00"/>
<path d="M5.52576 21.9838C5.52576 21.9838 11.3069 20.2236 11.1538 24.8518L11.0043 29.4836C11.0043 29.4836 13.9969 29.3743 14.653 31.3531C15.3092 33.3319 16.9677 36.3602 16.9677 36.3602C16.9677 36.3602 7.37017 33.2626 5.52576 21.9801V21.9838Z" fill="#007B00"/>
<path d="M17.5362 1.90444C17.5362 1.90444 16.0344 4.71777 19.2384 4.46267C22.4424 4.20758 24.101 3.8468 25.2091 4.65582C26.3172 5.46483 31.9124 2.74261 31.9124 2.74261C31.9124 2.74261 25.8324 -0.690242 17.5362 1.90444Z" fill="#007B00"/>
<path d="M18.8701 36.9939C18.8701 36.9939 20.7145 35.201 22.3511 35.5946C23.9878 35.9845 25.6025 37.0085 26.1602 35.7185C26.7179 34.4284 32.3787 34.0166 32.7943 34.5195C32.7943 34.5195 34.0701 33.1493 34.9595 33.8344C34.2669 34.72 26.5138 39.4101 18.8737 36.9939H18.8701Z" fill="#007B00"/>
<path d="M22.162 14.695C24.083 14.9319 20.3759 15.6134 20.6201 17.1804C20.8644 18.7474 21.8886 17.1257 22.0381 18.5907C22.1839 20.0593 21.8194 19.3633 22.1839 20.0593C22.5484 20.7553 23.4159 21.4623 23.97 20.7991C24.524 20.1358 25.1656 18.3903 25.1765 17.9566C25.1874 17.5229 25.8144 16.2766 26.106 16.3823C26.3976 16.488 28.3441 16.5536 28.417 17.3334C28.4899 18.1133 31.3877 18.8932 31.3877 18.8932C31.3877 18.8932 29.9297 18.7474 30.0828 20.0192C30.2359 21.291 32.073 24.764 34.0377 24.3413C36.0024 23.9185 38.215 21.845 38.2405 21.0651C38.266 20.2852 38.1093 19.1118 38.3462 17.7525C38.5868 16.3969 40.2271 16.8378 40.1906 18.0076C40.1542 19.1774 40.8467 23.8711 41.543 23.8967C42.0606 22.0818 42.5818 15.6498 40.1177 10.8394C37.6536 6.02907 36.3706 6.76885 35.8275 6.84902C35.2843 6.92919 32.9296 5.60634 32.2553 7.12234C31.57 8.6602 29.9953 7.63253 30.0646 8.51443C30.1338 9.39633 30.1047 10.2709 30.8847 10.2964C31.6648 10.322 30.6478 11.5573 29.3829 11.5136C28.1181 11.4735 24.9068 11.2695 24.8776 12.1477C24.8484 13.026 21.4294 10.1835 21.382 11.6448C21.3346 13.1061 21.094 14.5602 22.162 14.6914V14.695Z" fill="#007B00"/>
<path d="M20.937 6.85645C19.9419 7.99344 17.8642 8.90085 19.129 8.94094C20.3939 8.98102 22.57 11.0983 22.7194 9.44748C22.8689 7.79665 20.9333 6.85645 20.9333 6.85645H20.937Z" fill="#007B00"/>
<path d="M20.9697 21.4004C18.5712 21.4004 16.2894 22.1074 16.5336 23.1897C16.7815 24.2684 15.236 29.0095 18.0718 29.1917C20.9077 29.3739 20.9806 33.1348 22.3402 33.2514C23.6998 33.368 26.594 31.411 26.6779 28.7836C26.7617 26.1524 28.5916 23.8712 26.8273 24.1554C25.0631 24.4397 23.4046 21.4004 20.9697 21.4004Z" fill="#007B00"/>
<path d="M30.2501 26.9471C28.7082 27.7634 29.0108 29.0535 30.1772 29.1883C31.3436 29.3231 32.3351 25.8465 30.2501 26.9471Z" fill="#007B00"/>
<path d="M13.14 18.8425H47.4439C47.4439 18.8425 48.6869 10.5992 41.0103 10.0818C37.3653 3.4092 30.8369 3.24521 27.2902 8.94112C20.1058 6.85663 15.1813 10.0818 13.14 18.8425Z" fill="#444444"/>
<path d="M30.9973 33.605L6.18887 33.2042C6.18887 33.2042 5.38695 27.2276 10.9421 26.9434C13.6576 22.1622 18.378 22.1184 20.8786 26.2801C26.0983 24.8553 29.6231 27.2459 30.9973 33.6087V33.605Z" fill="#444444"/>
</svg>
