<svg width="31" height="32" viewBox="0 0 31 32" fill="none" xmlns="http://www.w3.org/2000/svg">
<ellipse rx="13.4418" ry="13.6998" transform="matrix(0.986608 0.163109 -0.156861 0.987621 15.4106 15.7227)" fill="#FFC700"/>
<path d="M13.6166 27.0188C19.7595 28.0343 25.5135 23.777 26.5015 17.5559C27.4896 11.3349 23.3478 5.44156 17.2049 4.426C11.062 3.41044 5.308 7.66778 4.31993 13.8888C3.33187 20.1098 7.47368 26.0032 13.6166 27.0188Z" fill="#FFC700" stroke="white" stroke-width="2"/>
<path d="M15.0309 9.79546C15.1525 9.43081 15.6683 9.43081 15.7899 9.79546L17.1443 13.8581C17.1824 13.9726 17.2703 14.0638 17.3833 14.1061L20.6908 15.3466C21.0368 15.4764 21.0368 15.9659 20.6908 16.0957L17.3833 17.3361C17.2703 17.3785 17.1824 17.4697 17.1443 17.5842L15.7899 21.6468C15.6683 22.0115 15.1525 22.0115 15.0309 21.6468L13.6765 17.5842C13.6383 17.4697 13.5505 17.3785 13.4375 17.3361L10.13 16.0957C9.78392 15.9659 9.78392 15.4764 10.13 15.3466L13.4375 14.1061C13.5505 14.0638 13.6383 13.9726 13.6765 13.8581L15.0309 9.79546Z" stroke="white" stroke-width="1.75" stroke-linecap="round" stroke-linejoin="round"/>
</svg>
