<svg width="77" height="78" viewBox="0 0 77 78" fill="none" xmlns="http://www.w3.org/2000/svg">
<circle cx="38.5406" cy="33.6837" r="32.5196" stroke="#482C2C" stroke-width="2"/>
<circle cx="38.5399" cy="33.6859" r="27.6741" stroke="#482C2C" stroke-width="2"/>
<path d="M35.2513 14.5548C35.2768 14.5381 35.3098 14.5273 35.342 14.5097C35.426 14.4654 35.5032 14.4219 35.572 14.3657C35.6162 14.333 35.6536 14.301 35.6901 14.2624C35.7156 14.2456 35.7335 14.2229 35.7582 14.1994C35.8238 14.1161 35.8961 14.0319 35.9549 13.9494C36.0146 13.8737 36.0666 13.792 36.1044 13.7051C36.1163 13.69 36.1206 13.6689 36.1258 13.6545C36.212 13.5138 36.2628 13.3636 36.2984 13.2015C36.3055 13.1458 36.3254 13.0816 36.3249 13.0199C36.3355 12.9363 36.3326 12.8542 36.3508 12.7766C36.3612 12.7479 36.3512 12.7216 36.3555 12.7005C36.3467 12.626 36.337 12.5448 36.3349 12.4696C36.3323 12.3326 36.3035 12.2056 36.3009 12.0686C36.2985 12.0483 36.2893 12.0288 36.2869 12.0085C36.2529 11.8958 36.2265 11.7891 36.1925 11.6765C36.1909 11.663 36.1825 11.6502 36.1809 11.6367C36.109 11.4942 36.0507 11.3501 35.9534 11.2244C35.9283 11.1862 35.9099 11.1472 35.8788 11.1166C35.7998 11.0299 35.7209 10.9432 35.6359 10.8641C35.5502 10.7782 35.4466 10.715 35.3489 10.6442C35.2748 10.5981 35.2007 10.552 35.1206 10.5135C35.076 10.4845 35.0381 10.4547 34.9883 10.44C34.8457 10.3952 34.7134 10.3217 34.5672 10.3048C34.5401 10.308 34.525 10.2961 34.5039 10.2917C34.4616 10.283 34.4186 10.2675 34.384 10.2648C34.1203 10.2412 33.8678 10.1958 33.6038 10.2272C33.5497 10.2336 33.4871 10.2273 33.4254 10.2278C33.2968 10.2431 33.1682 10.2584 33.0396 10.2737C32.8975 10.2906 32.7469 10.2948 32.6064 10.3252C32.5057 10.3441 32.4033 10.3494 32.3086 10.3607C32.0573 10.3837 31.7993 10.4075 31.5481 10.4305C31.4465 10.4426 31.3434 10.4412 31.2443 10.4735C31.1977 10.4859 31.1563 10.484 31.1089 10.4896C31.0074 10.5017 30.9059 10.5138 30.7976 10.5267C30.7908 10.5275 30.7773 10.5291 30.7637 10.5307C30.7374 10.5407 30.7188 10.5567 30.7152 10.5845C30.7117 10.6124 30.7149 10.6395 30.7173 10.6598C30.7221 10.7004 30.7337 10.7402 30.7386 10.7808C30.7474 10.8553 30.7495 10.9305 30.7576 10.9982C30.7672 11.0795 30.7769 11.1607 30.7798 11.2427C30.7886 11.3172 30.7907 11.3924 30.8123 11.4585C30.8215 11.478 30.8247 11.5051 30.8271 11.5254C30.8268 11.5803 30.8333 11.6345 30.8389 11.6819C30.8494 11.7699 30.8734 11.8562 30.8763 11.9383C30.8824 12.0474 30.902 12.1549 30.9157 12.2699C30.9205 12.3105 30.9186 12.352 30.9234 12.3926C30.9267 12.4196 30.9299 12.4467 30.9331 12.4738C30.9471 12.5339 30.9611 12.594 30.9676 12.6482C30.978 12.7362 30.9817 12.825 30.9922 12.913C31.0284 13.2175 31.0715 13.5213 31.1009 13.8267C31.1154 13.9486 31.1291 14.0636 31.1368 14.1863C31.1392 14.2066 31.1409 14.2201 31.1433 14.2404C31.1681 14.3336 31.1861 14.4275 31.1771 14.5247C31.1787 14.5382 31.1803 14.5518 31.1827 14.5721C31.1876 14.6127 31.1992 14.6525 31.2048 14.6999C31.2293 14.848 31.247 14.9969 31.2655 15.1526C31.276 15.2406 31.2724 15.2684 31.3951 15.2607C31.4018 15.2599 31.4086 15.2591 31.4154 15.2583C31.5169 15.2462 31.6184 15.2341 31.7124 15.2161C31.9087 15.1927 32.105 15.1694 32.3005 15.1393C32.3952 15.128 32.4908 15.1235 32.5923 15.1114C32.6465 15.105 32.6938 15.0993 32.748 15.0929C32.8766 15.0776 32.9992 15.0699 33.1278 15.0546C33.2632 15.0385 33.397 15.0088 33.5324 14.9927C33.6474 14.979 33.7685 14.9578 33.8851 14.9576C33.9265 14.9596 33.9664 14.948 34.007 14.9431C34.1077 14.9243 34.2025 14.913 34.2964 14.895C34.3565 14.8809 34.4174 14.8737 34.4767 14.8529C34.5301 14.8397 34.5894 14.8189 34.6495 14.8049C34.7773 14.7828 34.9011 14.7269 35.0257 14.6778C35.0647 14.6594 35.2131 14.58 35.2513 14.5548ZM32.9757 13.487C32.8403 13.5031 32.8252 13.4912 32.8091 13.3558C32.7929 13.2204 32.7768 13.085 32.7599 12.9429C32.7229 12.6316 32.6859 12.3202 32.6496 12.0156C32.6456 11.9818 32.6408 11.9411 32.6435 11.9065C32.6462 11.8719 32.6701 11.8416 32.7107 11.8367C32.813 11.8314 32.9054 11.7998 33.0085 11.8013C33.1176 11.7952 33.2319 11.7747 33.3402 11.7618C33.435 11.7506 33.5357 11.7317 33.632 11.734C33.7555 11.733 33.873 11.7396 33.9937 11.7733C34.1212 11.8062 34.2307 11.8618 34.33 11.9461C34.3687 11.9827 34.4133 12.0117 34.446 12.0559C34.519 12.1502 34.5598 12.262 34.5878 12.3822C34.6167 12.5092 34.6041 12.6343 34.5847 12.7601C34.5673 12.8446 34.5288 12.9247 34.4827 12.9988C34.4648 13.0215 34.4469 13.0442 34.4298 13.0737C34.371 13.1562 34.2962 13.2201 34.2047 13.2584C34.1919 13.2668 34.1784 13.2684 34.1657 13.2768C34.0519 13.359 33.9233 13.3743 33.7947 13.3896C33.6669 13.4116 33.5375 13.4202 33.4089 13.4355C33.26 13.4532 33.1186 13.4768 32.9757 13.487Z" fill="#482C2C"/>
<path d="M46.0465 15.5541C45.9996 15.4693 45.979 15.3547 45.976 15.2571C45.9748 15.1876 45.9724 15.1248 45.9846 15.0577C45.9963 14.8797 46.025 14.684 46.0434 14.5072C46.0593 14.3439 46.0686 14.1792 46.0711 14.0134C46.076 13.9104 46.0675 13.8049 46.0231 13.7067C45.9744 13.5939 45.9031 13.4908 45.8068 13.4109C45.7392 13.3639 45.6874 13.306 45.6093 13.2779C45.6039 13.27 45.5917 13.2608 45.5929 13.2541C45.5886 13.2395 45.5911 13.2261 45.599 13.2206C45.6002 13.2139 45.6149 13.2096 45.6228 13.2041C45.7655 13.1817 45.8887 13.1141 46.0076 13.0318C46.0869 12.977 46.1527 12.9197 46.2076 12.8466C46.2967 12.7381 46.359 12.6247 46.4023 12.501C46.4841 12.2803 46.5044 12.0554 46.4417 11.8291C46.4386 11.8078 46.4356 11.7865 46.4326 11.7651C46.4192 11.6103 46.3315 11.4834 46.2505 11.3578C46.2024 11.2797 46.125 11.2102 46.0622 11.1364C46.039 11.1113 46.008 11.0918 45.9848 11.0668C45.8099 10.9241 45.6106 10.8392 45.4021 10.7666C45.2327 10.7079 45.062 10.656 44.8797 10.6297C44.7925 10.6138 44.7011 10.5833 44.6151 10.5607C44.367 10.5154 44.1244 10.4781 43.883 10.4341C43.7623 10.4121 43.6403 10.3968 43.5129 10.3736C43.2916 10.3332 43.0716 10.2862 42.8503 10.2458C42.6839 10.2085 42.5083 10.1834 42.3406 10.1529C42.2065 10.1284 42.0724 10.104 41.9383 10.0795C41.8846 10.0697 41.6256 10.0086 41.4982 9.9854C41.453 10.0049 41.4328 10.2298 41.423 10.2835C41.4096 10.3573 41.3949 10.4377 41.3814 10.5115C41.3741 10.5517 41.368 10.5852 41.3606 10.6255C41.3478 10.734 41.327 10.848 41.3141 10.9565C41.297 11.0504 41.2665 11.1418 41.2561 11.2369C41.2426 11.3869 41.2078 11.5399 41.1796 11.6942C41.1197 12.0227 41.0598 12.3513 40.9987 12.6866C40.9412 13.0018 40.8892 13.3249 40.8317 13.6401C40.8158 13.7272 40.7999 13.8144 40.7841 13.9016C40.773 13.9619 40.7687 14.0235 40.759 14.0772C40.7272 14.2515 40.6899 14.4179 40.666 14.5868C40.6587 14.627 40.6806 14.6587 40.7209 14.6661C40.7398 14.6765 40.7599 14.6801 40.7733 14.6826C41.2104 14.7553 41.6396 14.8336 42.0687 14.9119C42.1157 14.9204 42.1626 14.929 42.2108 14.9308C42.2791 14.9364 42.3187 14.9089 42.3309 14.8419C42.3321 14.8352 42.3346 14.8218 42.3358 14.8151C42.3652 14.6541 42.3945 14.4932 42.4226 14.3389C42.4618 14.1244 42.5021 13.9031 42.5412 13.6885C42.5449 13.6684 42.5498 13.6415 42.5614 13.6159C42.5767 13.5702 42.5925 13.5593 42.6474 13.5623C42.7224 13.5691 42.8041 13.577 42.8845 13.5917C43.0644 13.6314 43.2546 13.6523 43.4387 13.7066C43.4588 13.7103 43.4801 13.7073 43.5003 13.7109C43.6545 13.739 43.8154 13.7684 43.9776 13.791L43.9843 13.7923C44.1147 13.8368 44.2433 13.9296 44.2262 14.0997C44.2096 14.2283 44.2145 14.3539 44.1925 14.4746C44.1545 14.6825 44.1532 14.9178 44.1354 15.1294C44.1287 15.2043 44.1671 15.2598 44.228 15.3056C44.2725 15.3276 44.3182 15.3428 44.3652 15.3514C44.4938 15.3679 44.6279 15.3924 44.7553 15.4156C44.8827 15.4388 45.0034 15.4608 45.1308 15.4841C45.3052 15.5159 45.485 15.5556 45.6594 15.5874C45.7746 15.6015 45.8886 15.6223 45.9959 15.6418C46.0227 15.6467 46.0483 15.6583 46.0758 15.6217C46.066 15.5992 46.0563 15.5766 46.0465 15.5541ZM42.9237 12.1992C42.8231 12.1809 42.8176 12.173 42.8372 12.0657C42.8439 11.9907 42.8586 11.9102 42.8732 11.8298C42.8781 11.8029 42.8897 11.7773 42.8946 11.7505C42.9062 11.7249 42.9233 11.7072 42.9513 11.7054C42.9928 11.7061 43.0276 11.7055 43.0678 11.7128C43.1885 11.7348 43.308 11.7635 43.4287 11.7855C43.4689 11.7929 43.5012 11.8057 43.5427 11.8063C43.6859 11.8186 43.8243 11.8577 43.9651 11.8834C44.0255 11.8944 44.0859 11.9054 44.1462 11.9164C44.22 11.9298 44.287 11.942 44.3529 11.961C44.4443 11.9915 44.4882 12.0549 44.4845 12.1513C44.4771 12.1915 44.4765 12.233 44.4624 12.272C44.4319 12.3634 44.3355 12.4359 44.2392 12.4322C44.1374 12.4206 44.0423 12.4102 43.9484 12.393C43.8064 12.3741 43.6668 12.3417 43.526 12.316C43.526 12.316 43.526 12.316 43.5272 12.3093C43.326 12.2726 43.1236 12.2426 42.9237 12.1992Z" fill="#482C2C"/>
<path d="M60.3502 38.4056C60.188 38.3528 60.0305 38.2873 59.8707 38.2282C59.6853 38.1597 59.4975 38.0975 59.3058 38.0265C58.9861 37.9083 58.6664 37.7901 58.3468 37.6719C58.3276 37.6648 58.3084 37.6577 58.2892 37.6506C58.2118 37.6438 58.1808 37.6686 58.1683 37.7221C58.1352 37.8116 58.1109 37.8971 58.0778 37.9866C57.9572 38.3127 57.8342 38.6451 57.7113 38.9776C57.69 39.0351 57.6663 39.099 57.6427 39.163C57.6349 39.2037 57.6406 39.2276 57.683 39.2505C57.6958 39.2553 57.7085 39.26 57.7277 39.2671C57.8748 39.3215 58.0306 39.3718 58.1816 39.435C58.5141 39.5579 58.86 39.6641 59.1877 39.7998C59.2005 39.8045 59.2133 39.8093 59.2261 39.814C59.3348 39.8542 59.4458 39.888 59.5545 39.9282C59.5865 39.94 59.6161 39.9582 59.6416 39.9677C59.712 39.9937 59.7846 40.0133 59.8614 40.0417C59.8678 40.044 59.8805 40.0488 59.891 40.0599C59.9397 40.0852 59.9949 40.1129 60.0413 40.1446C60.223 40.2626 60.3298 40.4257 60.3659 40.6425C60.3816 40.7573 60.3821 40.8738 60.3483 40.9849C60.3334 41.0448 60.3121 41.1023 60.2845 41.1575C60.2655 41.2086 60.2362 41.2487 60.2109 41.2974C60.165 41.3822 60.104 41.4686 60.0285 41.5352C59.9705 41.5937 59.8981 41.6323 59.8297 41.6797C59.7525 41.7311 59.6697 41.7586 59.5754 41.7383C59.5603 41.74 59.5539 41.7376 59.5388 41.7393C59.4526 41.7365 59.3775 41.7232 59.2944 41.6925C59.0259 41.5932 58.7574 41.4939 58.4889 41.3946C58.1692 41.2764 57.856 41.1605 57.5427 41.0446C57.4212 40.9997 57.2998 40.9548 57.1719 40.9075C57.0568 40.8649 57.0305 40.877 56.988 40.9921C56.9147 41.1903 56.8286 41.3837 56.7681 41.5867C56.7563 41.6186 56.738 41.6482 56.7239 41.6866C56.7049 41.7377 56.686 41.7889 56.6647 41.8464C56.6009 42.019 56.5371 42.1916 56.4756 42.3579C56.4479 42.413 56.4354 42.4665 56.4333 42.5312C56.4582 42.5622 56.4989 42.57 56.5309 42.5818C56.8185 42.6882 57.1126 42.797 57.4027 42.897C57.863 43.0672 58.3257 43.2311 58.7819 43.3925C58.9889 43.4618 59.1935 43.5375 59.4146 43.5684C59.5607 43.5861 59.7108 43.6125 59.8559 43.5935C59.9316 43.5852 60.005 43.5833 60.0768 43.5662C60.1421 43.5468 60.2098 43.5209 60.2751 43.5015C60.4391 43.4313 60.5911 43.3349 60.7366 43.2361C60.7478 43.2257 60.7613 43.2089 60.7788 43.2008C60.8367 43.1423 60.8924 43.0902 60.9544 43.0405C61.0895 42.9306 61.2142 42.8095 61.3076 42.6551C61.3377 42.5936 61.3805 42.5367 61.4169 42.4775C61.4645 42.4079 61.4952 42.3248 61.5515 42.2511C61.5627 42.2407 61.5697 42.2215 61.5745 42.2087C61.5839 42.1832 61.5934 42.1576 61.6092 42.1344C61.6487 42.0472 61.7074 41.9672 61.7277 41.873C61.7237 41.8642 61.7348 41.8538 61.7372 41.8474C61.806 41.7202 61.8389 41.5725 61.8821 41.4359C61.9341 41.2952 61.9518 41.1491 61.9847 41.0014C62.0168 40.8752 62.0082 40.7412 62.0124 40.6119C62.0122 40.5537 62.0143 40.4891 62.01 40.4221C62.0094 40.3056 61.9938 40.1908 61.9717 40.0736C61.9553 39.9803 61.9302 39.8911 61.8811 39.8076C61.8442 39.7503 61.8096 39.6866 61.7942 39.63C61.765 39.532 61.716 39.4485 61.6669 39.3649C61.5712 39.1915 61.4397 39.0556 61.2948 38.9366C61.1627 38.8223 61.0234 38.7272 60.8707 38.6489C60.6988 38.5635 60.5356 38.4741 60.3502 38.4056Z" fill="#482C2C"/>
<path d="M45.768 51.773C45.8059 51.8376 45.8439 51.9023 45.8877 51.9635C45.9498 52.0693 46.0061 52.1786 46.0706 52.2751C46.1431 52.3985 46.2062 52.5195 46.2846 52.6395C46.3722 52.7619 46.4364 52.8981 46.5123 53.0275C46.5917 53.1627 46.6711 53.2979 46.7505 53.4331C46.8816 53.6564 47.0162 53.8857 47.1473 54.1091C47.2094 54.2149 47.2774 54.3172 47.3361 54.4172C47.3671 54.4701 47.3889 54.5205 47.4258 54.57C47.519 54.7287 47.6215 54.8899 47.7181 55.0544C47.832 55.2484 47.9459 55.4424 48.0539 55.6398C48.0677 55.6634 48.078 55.681 48.0943 55.6952C48.1209 55.727 48.1395 55.7318 48.1724 55.7205C48.1934 55.716 48.2052 55.7091 48.217 55.7022C48.3815 55.6056 48.5403 55.5124 48.7048 55.4158C48.893 55.3053 49.0904 55.1973 49.2785 55.0869C49.3255 55.0593 49.3691 55.0258 49.4161 54.9982C49.469 54.9671 49.5278 54.9326 49.5807 54.9016C49.6101 54.8843 49.6336 54.8705 49.663 54.8533C49.7277 54.8153 49.7948 54.768 49.8653 54.7266C50.0098 54.6497 50.1509 54.5668 50.2954 54.4899C50.5046 54.375 50.7069 54.2483 50.9126 54.1275C51.136 53.9964 51.3501 53.8628 51.57 53.7258C51.6347 53.6879 51.7086 53.6523 51.7792 53.6109C51.8698 53.5498 51.856 53.5263 51.8146 53.4558C51.7628 53.3676 51.711 53.2794 51.6558 53.1854C51.5834 53.0619 51.5085 52.9478 51.4477 52.8175C51.4226 52.7611 51.3856 52.7117 51.3546 52.6588C51.3201 52.6 51.2738 52.5481 51.2452 52.4859C51.2086 52.3967 51.152 52.3272 51.1037 52.2449C51.0795 52.2037 51.055 52.2023 51.0138 52.2265C50.9398 52.262 50.86 52.301 50.8067 52.3718C50.7925 52.388 50.7724 52.4077 50.7489 52.4215C50.696 52.4526 50.649 52.4802 50.5961 52.5112C50.5608 52.5319 50.5197 52.5561 50.4834 52.5616C50.4084 52.5819 50.3437 52.6199 50.279 52.6578C50.1968 52.7061 50.1203 52.751 50.038 52.7993C49.6795 53.0098 49.315 53.2238 48.9564 53.4343C48.9329 53.4481 48.9118 53.4526 48.8883 53.4664C48.8496 53.4812 48.8216 53.4739 48.795 53.4421C48.7719 53.4162 48.7546 53.3868 48.7408 53.3633C48.6304 53.1752 48.5141 52.9905 48.413 52.8048C48.3578 52.7108 48.305 52.6074 48.2498 52.5133C48.1576 52.3698 48.0655 52.2263 47.9792 52.0794C47.8377 51.8384 47.6962 51.5973 47.5547 51.3563C47.4743 51.2059 47.3881 51.059 47.3077 50.9086C47.2618 50.8169 47.2494 50.7689 47.1235 50.8507C47.0706 50.8818 47.0212 50.9187 46.9683 50.9497C46.7449 51.0809 46.5181 51.2061 46.2947 51.3373C46.1208 51.4315 45.9479 51.5409 45.7774 51.641C45.7598 51.6513 45.748 51.6582 45.7221 51.6813C45.7428 51.7166 45.7507 51.7436 45.768 51.773Z" fill="#482C2C"/>
<path d="M44.7641 57.4968C44.7075 57.4063 44.6517 57.3226 44.5952 57.2321C44.4996 57.0906 44.404 56.949 44.3145 56.8C44.2438 56.704 44.186 56.5999 44.1214 56.4965C44.0736 56.4257 44.0333 56.3611 43.9929 56.2964C43.9451 56.2257 43.9115 56.1604 43.8637 56.0896C43.7588 55.9215 43.6409 55.7615 43.5359 55.5935C43.359 55.3158 43.182 55.0382 43.005 54.7606C42.9579 54.6966 42.9169 54.6251 42.8691 54.5544C42.8058 54.4645 42.7486 54.3672 42.6853 54.2774C42.6046 54.1481 42.5177 54.0262 42.437 53.8969C42.3798 53.7997 42.3159 53.703 42.2464 53.6206C42.1764 53.5314 42.1266 53.4402 42.0763 53.3423C42.0669 53.3158 42.0501 53.2832 42.034 53.2573C42.0017 53.2056 41.9577 53.1755 41.8905 53.1888C41.8036 53.2107 41.7154 53.2191 41.6272 53.2274C41.2071 53.2741 40.7931 53.3134 40.3724 53.3533C40.2367 53.3662 40.1003 53.3723 39.9646 53.3851C39.9239 53.389 39.8893 53.3854 39.8505 53.4096C39.8518 53.4232 39.8463 53.4374 39.8408 53.4516C39.7926 53.5932 39.7451 53.7415 39.6969 53.883C39.6377 54.0529 39.5785 54.2229 39.5193 54.3928C39.4876 54.4917 39.4484 54.5844 39.4161 54.6765C39.3941 54.7333 39.3715 54.7834 39.3569 54.8464C39.332 54.9446 39.2867 55.0448 39.255 55.1436C39.2006 55.2926 39.1469 55.4483 39.0926 55.5972C39.0603 55.6893 39.0279 55.7814 39.0023 55.8728C38.9419 56.0292 38.8814 56.1856 38.8283 56.3481C38.7953 56.4334 38.7623 56.5187 38.7361 56.6033C38.6928 56.7238 38.6562 56.8437 38.6055 56.9581C38.5217 57.1577 38.446 57.3703 38.3771 57.5823C38.3192 57.7658 38.2254 57.9322 38.1817 58.1212C38.183 58.1347 38.1707 58.1496 38.1652 58.1638C38.1487 58.2065 38.1322 58.2491 38.1442 58.3027C38.1652 58.3076 38.1855 58.3057 38.2059 58.3037C38.3219 58.2996 38.4305 58.2893 38.5458 58.2783C38.824 58.252 39.1023 58.2256 39.3805 58.1992C39.5298 58.185 39.6791 58.1709 39.8284 58.1567C39.8691 58.1528 39.8949 58.1367 39.9053 58.1015C39.9108 58.0873 39.9163 58.073 39.915 58.0595C39.9845 57.8543 40.0467 57.643 40.1162 57.4379C40.1686 57.2686 40.1699 57.2821 40.3253 57.2605L40.3321 57.2599C40.7054 57.2245 41.0786 57.1891 41.445 57.1543C41.5197 57.1473 41.6011 57.1395 41.6757 57.1324C41.7775 57.1228 41.88 57.1199 41.9811 57.1035C42.0952 57.079 42.2057 57.089 42.3204 57.0713C42.3543 57.0681 42.3902 57.0852 42.407 57.1179C42.4218 57.1302 42.4306 57.1499 42.4386 57.1628C42.5294 57.3254 42.6262 57.4805 42.717 57.6431C42.7499 57.7016 42.789 57.7526 42.8219 57.8111C42.8455 57.8431 42.8739 57.8541 42.9079 57.8509C42.9214 57.8496 42.935 57.8483 42.9554 57.8464C43.0911 57.8335 43.2268 57.8207 43.3625 57.8078C43.5322 57.7917 43.7086 57.775 43.885 57.7582C43.9455 57.7456 44.0065 57.7399 44.0744 57.7334C44.2848 57.7135 44.5026 57.6997 44.7197 57.6791C44.7604 57.6752 44.7937 57.6652 44.8231 57.6145C44.8057 57.575 44.7883 57.5356 44.7641 57.4968ZM40.7395 55.8519C40.6513 55.8602 40.6358 55.8412 40.662 55.7565C40.726 55.5656 40.7894 55.3678 40.8461 55.1707C40.8784 55.0787 40.9101 54.9798 40.9425 54.8877C40.9473 54.8667 40.9583 54.8383 40.97 54.8166C40.9939 54.7801 41.0346 54.7763 41.0582 54.8083C41.073 54.8206 41.0743 54.8341 41.0817 54.8403C41.178 54.9886 41.2681 55.1444 41.3514 55.3008C41.3937 55.3858 41.4489 55.4628 41.498 55.5471C41.5216 55.5791 41.5384 55.6118 41.5551 55.6444C41.5632 55.6573 41.5719 55.677 41.5732 55.6906C41.5845 55.7375 41.5667 55.7665 41.5192 55.7711C41.4452 55.7849 41.3638 55.7926 41.2891 55.7997C41.2281 55.8055 41.1738 55.8107 41.1127 55.8165C40.9906 55.828 40.8616 55.8403 40.7395 55.8519Z" fill="#482C2C"/>
<path d="M34.9571 53.6031C34.7946 53.5325 34.632 53.4618 34.4758 53.3939C34.2445 53.2934 34.0167 53.2018 33.7916 53.104C33.5693 52.9999 33.3415 52.9084 33.1219 52.798C33.0246 52.7483 32.9219 52.7111 32.8219 52.6676C32.8058 52.6532 32.7808 52.6423 32.7593 52.6404C32.7191 52.6304 32.6824 52.6293 32.6501 52.6524C32.615 52.6818 32.58 52.7111 32.5414 52.7315C32.4039 52.8427 32.2699 52.9628 32.1288 53.065C31.9052 53.2205 31.685 53.385 31.4747 53.5611C31.41 53.6073 31.3489 53.6625 31.2842 53.7087C31.1782 53.7816 31.0785 53.8571 30.9698 53.9362C30.8611 54.0153 30.7532 54.1097 30.6355 54.1923C30.6121 54.2119 30.5852 54.2225 30.5556 54.2393C30.5287 54.2499 30.5064 54.2328 30.4958 54.2059C30.4914 54.1817 30.4844 54.1638 30.4863 54.1423C30.4564 53.8692 30.4264 53.596 30.3965 53.3229C30.3802 53.1894 30.3611 53.0622 30.3511 52.9315C30.3342 52.7309 30.2904 52.541 30.2825 52.3369C30.2855 52.2787 30.276 52.2151 30.27 52.1605C30.2548 51.9903 30.2278 51.83 30.2188 51.6626C30.2175 51.5802 30.181 51.5272 30.106 51.4946C30.0846 51.4927 30.0748 51.481 30.0623 51.4756C29.847 51.3895 29.6282 51.2944 29.4157 51.202C29.0343 51.0362 28.6592 50.8732 28.2779 50.7074C28.2279 50.6857 28.1806 50.6577 28.1306 50.636C28.036 50.58 28.0091 50.5906 27.9656 50.6906C27.9031 50.8344 27.8434 50.9719 27.7809 51.1157C27.6477 51.422 27.5181 51.7373 27.376 52.0472C27.3434 52.1222 27.317 52.1999 27.2844 52.2749C27.2654 52.3187 27.2491 52.3562 27.2301 52.4C27.2165 52.4312 27.1994 52.4535 27.1858 52.4848C27.1467 52.609 27.0915 52.7188 27.0336 52.8349C27.0255 52.8536 27.0146 52.8786 27.0065 52.8974C26.9176 53.1189 26.8252 53.3314 26.7301 53.5502C26.7038 53.628 26.6587 53.6975 26.6233 53.7788C26.6016 53.8288 26.5924 53.8843 26.5733 53.928C26.5217 54.0468 26.4638 54.1629 26.4122 54.2816C26.3986 54.3129 26.3932 54.3254 26.3769 54.3629C26.3378 54.4871 26.2897 54.6149 26.2443 54.7364C26.2253 54.7801 26.2 54.8212 26.181 54.8649C26.1503 54.9185 26.1644 54.9543 26.218 54.985C26.2367 54.9932 26.2582 54.9951 26.2769 55.0032C26.302 55.0141 26.327 55.025 26.352 55.0359C26.5082 55.1038 26.6583 55.169 26.8083 55.2342C26.9834 55.3103 27.1584 55.3864 27.3272 55.4597C27.4022 55.4923 27.4772 55.5249 27.5549 55.5513C27.5925 55.5676 27.6194 55.557 27.6357 55.5195C27.6555 55.491 27.6601 55.4632 27.671 55.4382C27.8775 54.9631 28.0758 54.5068 28.2796 54.0379C28.3829 53.8004 28.4861 53.5628 28.5956 53.328C28.6174 53.278 28.6364 53.2342 28.6617 53.1932C28.6671 53.1807 28.685 53.1736 28.6913 53.1763C28.7003 53.1728 28.7163 53.1872 28.7171 53.2024C28.7258 53.2508 28.7283 53.2964 28.7307 53.3421C28.7538 53.5454 28.777 53.7487 28.8001 53.952C28.8129 54.0764 28.8194 54.1982 28.8322 54.3227C28.8396 54.4597 28.8559 54.5931 28.8722 54.7266C28.8923 54.988 28.9187 55.2522 28.9362 55.5199C28.9481 55.6292 28.9601 55.7384 28.9694 55.8539C28.977 55.939 28.9819 56.0303 28.9958 56.1181C28.9955 56.17 29.0248 56.2051 29.0749 56.2268C29.1713 56.2613 29.2714 56.3048 29.3651 56.3455C29.5714 56.4352 29.7715 56.5222 29.9778 56.6118C30.009 56.6254 30.0403 56.639 30.0743 56.6463C30.1055 56.6599 30.1449 56.6547 30.171 56.6289C30.1827 56.6191 30.1944 56.6093 30.2123 56.6023C30.4289 56.4289 30.6428 56.2617 30.8594 56.0883C30.9591 56.0127 31.0678 55.9336 31.1703 55.8518C31.3491 55.714 31.5279 55.5761 31.7095 55.4321C31.8883 55.2943 32.0671 55.1564 32.2459 55.0186C32.3367 54.9466 32.431 54.8835 32.5218 54.8115C32.5307 54.808 32.5362 54.7955 32.5424 54.7982C32.5604 54.7911 32.5783 54.784 32.5908 54.7895C32.6096 54.7976 32.6049 54.8253 32.5968 54.8441C32.5859 54.8691 32.5786 54.9031 32.565 54.9343C32.4943 55.0969 32.4147 55.2629 32.3476 55.4344C32.2607 55.6345 32.1737 55.8345 32.0895 56.0283C31.9237 56.4097 31.7517 56.7883 31.586 57.1696C31.5751 57.1946 31.5643 57.2196 31.5534 57.2446C31.5461 57.2786 31.5531 57.2965 31.5844 57.3101C31.6004 57.3245 31.6156 57.3237 31.6281 57.3292C31.9067 57.4577 32.1943 57.5827 32.4756 57.7049C32.5006 57.7158 32.5319 57.7294 32.5631 57.743C32.7292 57.8226 32.9042 57.8987 33.0793 57.9748C33.123 57.9938 33.1437 57.9805 33.1627 57.9367C33.2551 57.7241 33.3475 57.5116 33.4336 57.2963C33.507 57.1276 33.5928 56.9642 33.6475 56.7873C33.6548 56.7533 33.6746 56.7247 33.6855 56.6997C33.7235 56.6122 33.7651 56.5337 33.8031 56.4461C33.8521 56.3336 33.9037 56.2148 33.9526 56.1023C33.9607 56.0836 33.9662 56.0711 33.9743 56.0523C33.9988 55.996 34.0232 55.9398 34.0477 55.8835C34.0586 55.8585 34.0694 55.8335 34.083 55.8023C34.1374 55.6772 34.1917 55.5522 34.246 55.4272C34.2759 55.3584 34.3085 55.2834 34.3384 55.2146C34.4145 55.0396 34.4843 54.8618 34.5604 54.6868C34.621 54.5645 34.6754 54.4395 34.7262 54.3055C34.7398 54.2742 34.7533 54.2429 34.7732 54.2144C34.784 54.1894 34.8012 54.1671 34.8093 54.1484C34.8718 54.0046 34.9343 53.8608 34.9968 53.717C35.005 53.6983 35.0096 53.6705 35.0204 53.6455C34.9919 53.6257 34.9759 53.6113 34.9571 53.6031Z" fill="#482C2C"/>
<path d="M22.6653 52.3321C22.7009 52.2315 22.7316 52.1357 22.7672 52.0351C22.8184 51.8721 22.8696 51.7092 22.9305 51.5464C22.9615 51.4312 23.007 51.3212 23.0476 51.2063C23.0732 51.1248 23.0987 51.0529 23.1241 50.9811C23.1497 50.8996 23.1799 50.8327 23.2055 50.7512C23.2716 50.5644 23.3233 50.3725 23.3894 50.1857C23.4964 49.8744 23.6034 49.563 23.7104 49.2516C23.7311 49.1749 23.7614 49.0983 23.787 49.0168C23.8179 48.9113 23.8584 48.806 23.8892 48.7005C23.9401 48.5568 23.9813 48.413 24.0322 48.2693C24.0727 48.164 24.1084 48.0538 24.1297 47.9481C24.1558 47.8377 24.1961 47.742 24.2414 47.6416C24.2563 47.6178 24.2714 47.5843 24.2815 47.5556C24.3019 47.4981 24.298 47.445 24.2458 47.4007C24.1745 47.3463 24.113 47.2825 24.0515 47.2187C23.7533 46.9192 23.4648 46.6198 23.1715 46.3155C23.0769 46.2174 22.9872 46.1145 22.8926 46.0163C22.8642 45.9869 22.8455 45.9576 22.8024 45.9423C22.7926 45.9518 22.778 45.9563 22.7635 45.9609C22.6227 46.0113 22.4771 46.0665 22.3364 46.1169C22.1665 46.1765 21.9967 46.236 21.8269 46.2955C21.7298 46.3323 21.6329 46.3595 21.5407 46.3915C21.4825 46.4097 21.4293 46.4232 21.3709 46.4511C21.2785 46.4927 21.172 46.5197 21.0749 46.5565C20.9245 46.6067 20.7692 46.6617 20.6189 46.712C20.5267 46.744 20.4345 46.7761 20.347 46.813C20.187 46.8631 20.027 46.9132 19.8668 46.9729C19.7796 47.0002 19.6923 47.0275 19.6097 47.0598C19.4885 47.1009 19.3719 47.147 19.2508 47.1785C19.0425 47.2373 18.829 47.3105 18.6203 47.3886C18.4406 47.4576 18.2521 47.4879 18.077 47.5714C18.0672 47.5809 18.0479 47.5805 18.0333 47.5851C17.9897 47.5987 17.9461 47.6124 17.9115 47.6551C17.9208 47.6746 17.935 47.6893 17.9492 47.7041C18.0247 47.7922 18.1004 47.8707 18.1808 47.9542C18.3747 48.1554 18.5687 48.3566 18.7626 48.5578C18.8667 48.6658 18.9708 48.7738 19.0748 48.8818C19.1032 48.9112 19.1319 48.9214 19.1659 48.9076C19.1805 48.903 19.195 48.8984 19.2048 48.889C19.4087 48.8156 19.6127 48.7326 19.8165 48.6592C19.9816 48.5948 19.9718 48.6042 20.0855 48.7124L20.0902 48.7173C20.3504 48.9872 20.6105 49.2572 20.866 49.5222C20.918 49.5762 20.9748 49.6351 21.0268 49.6891C21.0977 49.7627 21.1638 49.841 21.2397 49.9099C21.3299 49.9839 21.3908 50.0766 21.4762 50.1553C21.4998 50.1798 21.5088 50.2186 21.4937 50.252C21.4933 50.2713 21.4833 50.2904 21.4782 50.3048C21.4076 50.477 21.3465 50.6495 21.2759 50.8217C21.2506 50.8839 21.235 50.9463 21.2098 51.0085C21.1994 51.0469 21.2085 51.076 21.2322 51.1005C21.2416 51.1103 21.2511 51.1201 21.2653 51.1348C21.3599 51.233 21.4545 51.3312 21.5491 51.4293C21.6674 51.552 21.7904 51.6796 21.9133 51.8072C21.9608 51.8467 22.0034 51.8908 22.0507 51.9399C22.1973 52.0921 22.3438 52.2538 22.4952 52.4109C22.5235 52.4403 22.5521 52.4602 22.6101 52.4516C22.6301 52.4134 22.6501 52.3752 22.6653 52.3321ZM21.4455 48.159C21.384 48.0952 21.3892 48.0712 21.4718 48.0389C21.6611 47.9701 21.8552 47.8966 22.0447 47.8181C22.1369 47.786 22.234 47.7493 22.3262 47.7172C22.3456 47.7079 22.3747 47.6988 22.3989 47.6945C22.4424 47.6904 22.4707 47.7199 22.4604 47.7583C22.46 47.7775 22.4502 47.787 22.45 47.7966C22.3939 47.9643 22.3282 48.1318 22.2577 48.2944C22.2175 48.3805 22.1917 48.4716 22.1563 48.5625C22.146 48.6009 22.1309 48.6344 22.1158 48.6678C22.1107 48.6822 22.1007 48.7013 22.0909 48.7108C22.0613 48.7488 22.0275 48.753 21.9944 48.7186C21.9374 48.6694 21.8807 48.6105 21.8286 48.5565C21.7861 48.5123 21.7482 48.4731 21.7056 48.4289C21.6205 48.3406 21.5306 48.2473 21.4455 48.159Z" fill="#482C2C"/>
<path d="M19.5369 43.2106C19.86 43.065 20.1832 42.9194 20.5064 42.7738C20.581 42.7402 20.6493 42.7094 20.7211 42.6696C20.777 42.6444 20.7873 42.6173 20.7655 42.5524C20.7627 42.5462 20.7571 42.5337 20.7515 42.5213C20.6921 42.406 20.6417 42.2942 20.5823 42.1789C20.5033 42.0201 20.4457 41.8591 20.3543 41.7059C20.3459 41.6873 20.3437 41.6659 20.3353 41.6472C20.3051 41.5636 20.2839 41.4834 20.2475 41.4026C20.1635 41.2162 20.0796 41.0298 19.9956 40.8433C19.9137 40.6783 19.841 40.5167 19.7591 40.3517C19.6975 40.215 19.636 40.0783 19.5744 39.9416C19.5324 39.8483 19.4876 39.7489 19.4428 39.6495C19.2748 39.2766 19.1068 38.9037 18.9388 38.5308C18.9254 38.4845 18.903 38.4348 18.8772 38.3941C18.8604 38.3568 18.8396 38.3437 18.7995 38.3543C18.7843 38.3537 18.7718 38.3593 18.7532 38.3677C18.6537 38.4125 18.5453 38.4539 18.4396 38.5015C18.2035 38.6079 17.9667 38.7295 17.7243 38.8387C17.6373 38.8779 17.5441 38.9199 17.4509 38.9619C17.4164 38.9849 17.4033 39.0057 17.4201 39.043C17.4649 39.1424 17.5125 39.2481 17.5635 39.3447C17.5999 39.4255 17.6426 39.5035 17.6789 39.5843C17.7685 39.7832 17.8553 39.9758 17.9449 40.1747C17.9617 40.212 17.9813 40.2555 17.9919 40.2956C18.0059 40.3267 17.9957 40.3537 17.9646 40.3677C17.955 40.3795 17.9425 40.3851 17.9239 40.3935C17.7934 40.4523 17.6594 40.5201 17.5289 40.5789C17.3736 40.6489 17.221 40.7251 17.0656 40.7951C16.7204 40.9581 16.3758 41.1059 16.0368 41.2661C16.0305 41.2689 16.0215 41.2655 16.0181 41.2745C15.8842 41.3423 15.7413 41.4067 15.5989 41.4559C15.5616 41.4727 15.5243 41.4895 15.4871 41.5063C15.4091 41.5489 15.3311 41.5915 15.2503 41.6279C15.2344 41.6425 15.2192 41.6419 15.2034 41.6565C15.1689 41.6795 15.162 41.6976 15.1726 41.7376C15.172 41.7529 15.1776 41.7653 15.186 41.7839C15.228 41.8772 15.27 41.9704 15.3092 42.0574C15.4632 42.3992 15.6172 42.741 15.7774 43.08C15.7942 43.1173 15.8082 43.1484 15.8312 43.1829C15.8688 43.2332 15.8869 43.2401 15.94 43.2086C16.0519 43.1583 16.1609 43.1016 16.279 43.0484C16.6926 42.8546 17.109 42.6671 17.5254 42.4795C17.6559 42.4207 17.7864 42.3619 17.9231 42.3003C17.9977 42.2667 18.0695 42.2269 18.1441 42.1933C18.3091 42.1115 18.4797 42.0421 18.6475 41.9665C18.7158 41.9357 18.7401 41.9397 18.7765 42.0205C18.8499 42.1669 18.9171 42.316 18.9843 42.4652C19.0851 42.6889 19.1859 42.9127 19.2804 43.1392C19.2972 43.1765 19.3202 43.211 19.337 43.2483C19.351 43.2793 19.3719 43.2924 19.4092 43.2756C19.4527 43.256 19.4934 43.2302 19.5369 43.2106Z" fill="#482C2C"/>
<path d="M52.999 50.7277C53.0967 50.7915 53.2032 50.8448 53.3096 50.8981C53.5015 50.9873 53.7005 51.0468 53.9187 51.0513C54.04 51.0549 54.1613 51.0585 54.2826 51.0621C54.3795 51.063 54.465 51.0457 54.5602 51.0274C54.6553 51.0092 54.7443 50.9769 54.8334 50.9447C54.8901 50.9299 54.9469 50.9151 55.0027 50.8907C55.2035 50.8097 55.3921 50.7008 55.5703 50.5831C55.7117 50.4881 55.8488 50.3983 55.9536 50.2727C55.9667 50.257 55.9947 50.2448 56.0078 50.2291C56.0436 50.1968 56.0803 50.1742 56.1108 50.1375C56.1606 50.0992 56.2052 50.0564 56.2497 50.0137C56.3292 49.9291 56.3991 49.8454 56.4742 49.766C56.4829 49.7556 56.4917 49.7451 56.5004 49.7346C56.5301 49.6884 56.5642 49.6369 56.6044 49.5994C56.6707 49.5305 56.7267 49.4529 56.7922 49.3744C56.8787 49.2601 56.9652 49.1459 57.036 49.0185C57.1233 48.8606 57.2107 48.7027 57.2981 48.5448C57.3104 48.5195 57.3183 48.4995 57.3261 48.4794C57.3436 48.4052 57.3655 48.3258 57.383 48.2516C57.4198 48.1225 57.4565 47.9934 57.4732 47.8564C57.4838 47.7586 57.4943 47.6609 57.5049 47.5631C57.5129 47.3834 57.4772 47.2027 57.4468 47.0264C57.4303 46.8972 57.3755 46.7715 57.3354 46.6492C57.2474 46.4249 57.142 46.2214 56.9894 46.0319C56.8534 45.8651 56.713 45.7036 56.5324 45.5795C56.4295 45.5113 56.3397 45.4275 56.2245 45.3846C56.2097 45.3811 56.1992 45.3724 56.1887 45.3637C56.1216 45.3165 56.0422 45.2946 55.9619 45.2631C55.7769 45.1975 55.5867 45.1808 55.3956 45.1545C55.3467 45.1492 55.2978 45.1439 55.2446 45.1439C55.1145 45.1508 54.9836 45.148 54.8545 45.1645C54.7017 45.188 54.5551 45.2254 54.4136 45.2672C54.3054 45.3011 54.198 45.3447 54.0906 45.3882C53.964 45.4335 53.8497 45.5067 53.7344 45.5703C53.5912 45.6462 53.4585 45.7307 53.3423 45.838C53.3022 45.8755 53.2716 45.9121 53.2262 45.9452C53.1039 46.0385 52.9982 46.1545 52.8978 46.2749C52.8489 46.3228 52.8052 46.3752 52.7563 46.4231C52.717 46.4702 52.668 46.5182 52.6296 46.5749C52.5693 46.6578 52.5038 46.7363 52.4636 46.827C52.4557 46.8471 52.433 46.8636 52.4199 46.8793C52.364 46.957 52.3124 47.0294 52.2618 47.1113C52.225 47.1873 52.184 47.2684 52.1429 47.3495C52.0685 47.545 51.9698 47.7378 51.9356 47.9489C51.9207 48.0519 51.9005 48.1505 51.8804 48.2491C51.8628 48.3233 51.8549 48.3966 51.8418 48.4655C51.8435 48.4847 51.8453 48.5039 51.847 48.5231C51.8417 48.572 51.8417 48.6252 51.8408 48.6689C51.839 48.7029 51.8372 48.7369 51.845 48.7701C51.8554 48.9386 51.8753 49.1062 51.9101 49.2772C51.951 49.4623 52.0198 49.6351 52.1026 49.8019C52.1732 49.9407 52.2804 50.0569 52.3693 50.1844C52.453 50.3075 52.5821 50.3975 52.7147 50.5259C52.7923 50.5818 52.8865 50.6604 52.999 50.7277ZM54.2892 47.1077C54.4123 47.024 54.5424 46.9639 54.689 46.9265C54.7274 46.923 54.7606 46.9152 54.7981 46.9021C54.8933 46.8839 54.9875 46.9092 55.0774 46.9399C55.2222 46.9897 55.3504 47.0701 55.449 47.1967C55.5309 47.3007 55.5989 47.4107 55.639 47.5329C55.652 47.5704 55.6555 47.6088 55.6589 47.6472C55.6659 47.6708 55.6633 47.6952 55.6702 47.7188C55.7006 47.9484 55.6376 48.1621 55.5257 48.3706C55.4375 48.5189 55.3396 48.6681 55.2147 48.7858C55.1658 48.8338 55.1064 48.873 55.0523 48.9166C55.0156 48.9393 54.9789 48.9619 54.9379 48.9898C54.7868 49.0857 54.6218 49.1345 54.4455 49.1649C54.36 49.1823 54.2718 49.1708 54.1881 49.1542C54.065 49.1314 53.949 49.079 53.8592 48.9951C53.8121 48.9558 53.7685 48.9017 53.7301 48.8519C53.6107 48.7078 53.5575 48.548 53.5411 48.3656C53.5238 48.2268 53.5657 48.1021 53.6077 47.9773C53.6348 47.9023 53.6716 47.8264 53.7039 47.7557C53.7433 47.6553 53.8131 47.5716 53.8787 47.4931C54.0062 47.351 54.1398 47.2228 54.2892 47.1077Z" fill="#482C2C"/>
<path d="M42.8634 21.9175C40.8344 22.7309 39.8489 25.0355 40.6624 27.0645C41.2671 28.5727 42.695 29.5003 44.2217 29.5455L45.6707 33.1598C46.7249 35.7891 45.2779 38.8613 42.442 39.9983C39.6865 41.103 36.6103 39.9854 35.4759 37.5014C38.5016 35.4898 39.8813 31.4984 38.4414 27.907L35.5965 20.811C35.387 20.2884 34.8285 19.9792 34.2784 20.0868L31.1565 20.6661C30.5111 20.7849 30.0897 21.4011 30.2088 22.0466L30.3499 22.8292C30.4687 23.4746 31.088 23.8974 31.7334 23.7789L33.2544 23.4921L35.4902 29.0689C36.4639 31.4974 35.3346 34.2823 32.9097 35.2812C30.4674 36.287 27.68 35.1091 26.6974 32.658L24.4381 27.0321L25.7364 26.1858C26.2874 25.8316 26.4407 25.0958 26.0805 24.5472L25.6489 23.8813C25.2947 23.3303 24.5589 23.177 24.0103 23.5371L21.3512 25.2642C20.8815 25.5724 20.6886 26.1749 20.9003 26.703L23.7616 33.8398C25.184 37.3876 28.9071 39.3466 32.5318 38.6823C34.3177 42.7912 39.2339 44.6956 43.6151 42.9391C48.0699 41.1531 50.3103 36.2371 48.6047 31.983L47.1557 28.3687C48.2246 27.2812 48.6151 25.6267 48.0114 24.1208C47.1966 22.0886 44.8933 21.1037 42.8634 21.9175ZM44.7783 26.6937C44.1698 26.9377 43.4782 26.6419 43.2342 26.0334C42.9903 25.4249 43.2837 24.7342 43.8945 24.4893C44.5053 24.2444 45.1938 24.5388 45.4386 25.1496C45.6835 25.7604 45.3891 26.4488 44.7783 26.6937Z" fill="#482C2C"/>
</svg>
