<svg width="38" height="46" viewBox="0 0 38 46" fill="none" xmlns="http://www.w3.org/2000/svg">
<path d="M28.0061 12.1937C26.9888 12.294 26.0809 12.9118 25.3318 13.9159C23.7812 6.72337 19.9989 1.5855 16.3145 2.06906C12.6301 2.55262 10.3329 8.4136 10.6484 15.6934C9.34151 15.2334 8.0534 15.1698 6.87261 15.6073C2.7134 17.1587 1.49453 24.2078 4.16089 31.3536C4.90705 33.3664 5.88998 35.157 7.00305 36.673C10.0738 41.2644 15.7085 43.9902 21.7375 43.1989C28.1505 42.3572 33.1108 37.7921 34.5965 32.0792C35.2512 29.8493 35.5047 27.0321 35.2174 24.02C34.558 17.1593 31.3368 11.8646 28.0132 12.1845L28.0061 12.1937Z" fill="#E42C2C"/>
<path d="M25.5185 21.3537C24.8536 21.416 24.2592 21.8264 23.7717 22.4804C22.7566 17.7855 20.2883 14.428 17.8783 14.7443C15.4683 15.0606 13.968 18.8891 14.1771 23.6483C13.3229 23.3449 12.4785 23.3061 11.7097 23.5898C8.99226 24.603 8.19276 29.212 9.93532 33.878C10.4237 35.1934 11.0676 36.3637 11.7881 37.3578C13.7944 40.3603 17.4763 42.1375 21.414 41.6207C25.6049 41.0706 28.8447 38.0859 29.8101 34.3609C30.2416 32.8999 30.4082 31.0664 30.2162 29.0971C29.786 24.6163 27.6778 21.1534 25.5114 21.3629L25.5185 21.3537Z" fill="#FFC700"/>
</svg>
