<svg width="335" height="179" viewBox="0 0 335 179" fill="none" xmlns="http://www.w3.org/2000/svg">
<g filter="url(#filter0_d_877_6387)">
<path d="M14.2825 141.3C6.11639 141.78 0.167382 141.25 0.167382 132.218C0.177414 126.777 -0.2339 31.1767 0.197478 21.7447C1.0803 2.39051 19.4691 0 36.9951 0C54.5211 0 79.4507 9.68207 79.4507 9.68207L231.527 14.143C256.346 13.993 280.423 30.5065 282.73 60.583C283.061 65.0239 287.957 76.6564 297.768 78.4868C304.54 79.7471 331.285 75.5862 333.442 96.5007C335.599 117.415 338.228 138.45 320.792 142.501C303.356 146.551 163.911 145.971 163.911 145.971" fill="white"/>
</g>
<path d="M63.4006 42.9408V42.8606L45.8969 42.9007V47.5158C48.6474 47.6763 49.8577 48.5592 50.1077 50.7464C50.0277 53.2546 49.4776 58.2711 45.3668 59.174C37.7852 60.8896 31.7239 53.7864 31.6939 39.1384C31.6839 32.5869 33.6643 16.4841 42.4561 16.7851C47.3772 16.9356 47.7072 22.6844 47.7072 22.6844C41.606 37.7438 70.0019 38.4962 63.5106 21.029C63.5106 21.029 59.1297 8.3374 39.1254 9.51125C15.2504 10.9359 11.2696 31.9849 11.2796 38.6166C11.3096 54.2278 19.3313 66.8391 41.1859 66.4579C59.2497 66.177 64.6408 59.5252 63.5606 42.9408H63.4006ZM99.2781 31.2926C99.1781 24.4201 88.8559 21.4504 82.8247 29.7877L81.6944 31.0017V25.6642L65.711 25.7043V30.3195C68.5416 30.4699 69.7519 31.4431 69.9219 33.7106L69.9719 58.1406C69.8119 60.4081 68.6117 61.3813 65.7811 61.5518V66.1669H69.9819L74.0928 66.1469H79.1739L83.2847 66.1268H87.4756V61.5017C84.645 61.3512 83.4248 60.378 83.2648 58.1105L83.2347 45.6497V45.4892L83.2147 37.5632L86.3554 34.8041C91.1264 40.4527 99.3481 38.3357 99.2481 31.2926H99.2781ZM124.814 60.8495C119.652 60.2174 116.012 56.9869 115.992 46.3821V46.1413L141.557 46.0811C141.527 32.005 134.656 24.7412 121.343 24.7713C104.159 24.8114 101.299 40.8339 101.309 46.0109C101.339 57.2577 107 66.0666 122.813 66.8391C134.185 67.3809 140.377 57.8196 141.177 56.1943L138.666 53.1242C138.586 53.2045 132.315 61.7926 124.814 60.8395V60.8495ZM125.714 32.7775C127.814 34.152 127.504 39.8106 127.504 39.8106L116.692 39.8306C118.212 33.5199 121.993 30.3495 125.714 32.7675V32.7775ZM167.102 60.7592C161.941 60.1271 158.301 56.8966 158.281 46.2918V46.051L183.846 45.9908C183.816 31.9147 176.945 24.6509 163.632 24.681C146.448 24.7211 143.587 40.7436 143.598 45.9206C143.628 57.1674 149.289 65.9763 165.102 66.7488C176.474 67.2906 182.666 57.7293 183.466 56.104L180.955 53.0339C180.875 53.1142 174.604 61.7023 167.102 60.7492V60.7592ZM168.003 32.6872C170.103 34.0617 169.793 39.7203 169.793 39.7203L158.981 39.7403C160.501 33.4296 164.282 30.2593 168.003 32.6772V32.6872ZM227.785 57.7995L227.735 37.8943C227.715 29.2359 223.674 25.5237 216.653 25.3833C210.602 25.2328 206.571 27.5905 203.76 30.0285V25.4134L186.246 25.4535V30.0686C189.077 30.2191 190.287 31.1923 190.457 33.4597L190.507 57.8898C190.347 60.1572 189.147 61.1304 186.327 61.301V65.9161H190.527L194.638 65.8961H199.719L203.83 65.876H208.021V61.2508C205.19 61.1003 203.98 60.1271 203.81 57.8597L203.78 45.3989V45.2383L203.76 37.3926C208.591 33.0986 214.402 36.3191 214.412 41.5763L214.452 57.8396C214.292 60.1071 213.092 61.0803 210.262 61.2508V65.866L231.966 65.8158V61.2007C229.136 61.0502 227.915 60.077 227.755 57.8096L227.785 57.7995ZM52.6883 118.649C50.2778 120.756 47.4572 123.595 45.3567 124.568C44.3065 125.06 37.5351 124.99 32.374 125L32.284 83.8148C32.444 81.5473 33.6443 80.5742 36.4749 80.4036V75.7885L10.9795 75.8487V80.4638C13.8101 80.6243 15.0203 81.5875 15.1904 83.8549L15.2804 124.468C15.1204 126.735 13.9201 127.709 11.0895 127.879V132.494H15.2904L28.6032 132.454C29.0833 132.454 29.5734 132.454 29.9735 132.454H32.394L52.3182 132.404L56.5691 120.585L52.6883 118.649ZM103.009 123.395C95.5173 126.966 98.2979 110.462 97.4777 104.472C96.4075 96.5465 92.5267 90.6472 79.784 90.1957C67.6014 89.7342 59.7098 92.6638 60.93 100.841C61.8302 106.83 73.2026 105.987 73.5927 100.73C74.2328 96.4361 83.4248 95.0416 83.2847 104.753V105.967C76.2633 103.72 57.7994 105.054 59.0396 121.719C59.9498 132.635 73.3527 138.113 84.465 129.023C86.3354 133.708 90.3662 134.19 95.6074 132.555C98.9081 131.491 101.329 129.545 103.739 127.438L103.009 123.395ZM78.1637 124.177C75.5031 123.936 72.5925 121.679 72.5825 117.876C72.5625 111.004 78.5338 109.128 83.2948 111.385L83.3148 122.14V122.712C82.1845 123.525 80.4142 124.418 78.1537 124.177H78.1637ZM130.465 99.0547L130.445 91.7709H124.964L124.934 77.2232L118.072 77.2432C118.092 86.5437 111.741 93.4363 105.689 93.4564V99.1149H111.671L111.731 124.267C111.571 126.535 110.37 127.508 107.54 127.679V132.294H111.741L115.852 132.274C117.542 132.274 119.242 132.274 120.933 132.264H125.044L129.234 132.243V127.628C126.404 127.478 125.194 126.505 125.024 124.237L124.964 99.1551L130.445 99.0648L130.465 99.0547ZM143.097 90.0452C147.048 90.0452 150.349 86.7143 150.339 82.671C150.339 78.708 147.018 75.3972 143.067 75.4072C139.037 75.4072 135.736 78.7381 135.746 82.7011C135.746 86.7444 139.067 90.0552 143.107 90.0452H143.097ZM150.429 124.167L150.399 111.706V111.546L150.359 91.7207L132.855 91.7608V96.3759C135.686 96.5365 136.906 97.4996 137.066 99.7671L137.116 124.197C136.956 126.465 135.756 127.438 132.925 127.608V132.223H137.126L141.237 132.203C142.927 132.203 144.628 132.203 146.318 132.193H150.429L154.62 132.173V127.558C151.789 127.408 150.579 126.434 150.409 124.167H150.429ZM181.736 98.9343L181.716 91.6505H176.234L176.204 77.1028L169.353 77.1228C169.373 86.4233 163.022 93.3159 156.97 93.336V98.9945H162.952L163.012 124.147C162.852 126.414 161.651 127.388 158.831 127.558V132.173H163.032L167.142 132.153C168.833 132.153 170.533 132.153 172.224 132.143H176.334L180.525 132.123V127.508C177.695 127.357 176.484 126.384 176.314 124.117L176.254 99.0347L181.736 98.9444V98.9343ZM225.255 123.916L225.185 91.4699H221.074L207.681 91.51V96.1251C210.512 96.2756 211.722 97.2488 211.892 99.5162L211.922 111.977V112.138L211.942 119.983C207.111 124.277 201.3 121.057 201.29 115.8L201.24 91.5301L183.736 91.5702V96.1853C186.567 96.3358 187.777 97.309 187.947 99.5764L187.987 119.482C188.007 128.14 192.048 131.852 199.069 131.993C205.12 132.143 209.141 129.785 211.962 127.357V131.973L229.476 131.932V127.317C226.645 127.167 225.435 126.194 225.265 123.926L225.255 123.916ZM274.365 123.806L274.275 83.1927C274.255 76.0694 274.255 75.2668 274.255 75.1865L260.942 75.2166H256.751V79.8418C259.582 79.9922 260.792 80.9654 260.962 83.2329L260.992 94.3192C249.6 87.1457 231.786 89.6138 231.836 112.429C231.886 133.387 252.05 136.417 261.072 129.033V131.862L278.586 131.822V127.207C275.755 127.057 274.545 126.083 274.375 123.816L274.365 123.806ZM246.989 111.245C247.599 95.3024 256.791 95.1218 261.002 99.4059L261.052 122.542C256.791 128.05 246.459 125.973 246.989 111.245ZM304.081 126.655C298.92 126.023 295.28 122.793 295.259 112.188V111.947L320.825 111.887C320.795 97.8106 313.923 90.5468 300.611 90.5769C283.427 90.6171 280.566 106.64 280.576 111.817C280.606 123.063 286.268 131.872 302.081 132.645C313.453 133.187 319.645 123.625 320.445 122L317.934 118.93C317.854 119.01 311.583 127.598 304.081 126.645V126.655ZM304.982 98.5732C307.082 99.9477 306.772 105.606 306.772 105.606L295.96 105.626C297.48 99.3156 301.261 96.1452 304.982 98.5631V98.5732Z" fill="#222222"/>
<path d="M144.957 154.998C144.647 159.282 142.107 162.794 138.576 163.305L30.2129 178.926C25.5119 179.679 21.8511 174.572 20.981 168.492C20.5209 165.262 19.6307 159.051 19.1806 155.891C18.2404 149.329 21.6711 143.36 26.7922 142.627L139.856 126.334C144.987 125.592 149.948 130.357 150.888 136.919L151.609 141.945C152.489 148.085 149.538 153.704 144.967 154.998H144.957Z" fill="#FFE1E7"/>
<path d="M42.8056 151.938C42.1354 152.008 41.5553 152.43 41.0652 153.092C39.995 148.376 37.4744 145.035 35.0639 145.376C32.6534 145.728 31.1931 149.59 31.4632 154.376C30.603 154.085 29.7628 154.055 28.9926 154.346C26.2821 155.399 25.5419 160.045 27.3423 164.71C27.8424 166.024 28.5025 167.198 29.2427 168.181C31.2931 171.171 35.0039 172.917 38.9447 172.355C43.1356 171.753 46.3463 168.713 47.2765 164.941C47.6866 163.476 47.8266 161.62 47.6166 159.643C47.1265 155.138 44.976 151.687 42.8056 151.928V151.938Z" fill="#E42C2C"/>
<path d="M41.255 157.978C40.8149 158.029 40.4348 158.3 40.1147 158.731C39.4146 155.651 37.7642 153.464 36.1939 153.694C34.6136 153.925 33.6634 156.453 33.8434 159.574C33.2833 159.383 32.7232 159.363 32.2231 159.554C30.4527 160.236 29.9626 163.276 31.1428 166.326C31.4729 167.189 31.903 167.951 32.3831 168.593C33.7234 170.55 36.1439 171.693 38.7245 171.322C41.465 170.931 43.5655 168.944 44.1656 166.486C44.4357 165.523 44.5357 164.319 44.3856 163.025C44.0656 160.085 42.6553 157.828 41.245 157.978H41.255Z" fill="#FFC700"/>
<path d="M61.8495 150.744C61.8495 150.744 61.9195 150.744 61.9495 150.734L62.4896 150.654C62.4896 150.654 62.5796 150.634 62.6196 150.614C62.6697 150.584 62.6997 150.524 62.6797 150.453C62.6397 150.333 62.5996 150.202 62.5596 150.072C62.4696 149.831 62.3496 149.621 62.2296 149.4C62.1996 149.36 62.1696 149.299 62.1395 149.249C62.0595 149.149 61.9795 149.039 61.8895 148.938C61.8095 148.838 61.7095 148.728 61.5994 148.627C61.5594 148.587 61.5094 148.557 61.4694 148.517C61.4194 148.487 61.3694 148.447 61.3194 148.427C61.1593 148.326 60.9893 148.206 60.8093 148.156C60.7593 148.136 60.7192 148.116 60.6792 148.096C60.4892 148.025 60.2892 147.945 60.0991 147.885C60.0391 147.855 59.9691 147.855 59.8991 147.845C59.749 147.825 59.589 147.805 59.429 147.785C59.399 147.785 59.359 147.785 59.319 147.785C59.1589 147.774 58.9989 147.764 58.8288 147.754C58.7688 147.754 58.6988 147.744 58.6488 147.754C58.3287 147.764 58.0087 147.774 57.6986 147.845C57.5186 147.885 57.3485 147.885 57.1685 147.925C56.9785 147.955 56.8084 147.985 56.6384 148.075C56.5084 148.136 56.3683 148.176 56.2283 148.206C55.8882 148.286 55.5782 148.457 55.2681 148.627C55.1581 148.687 55.0681 148.758 54.968 148.818C54.838 148.918 54.708 149.019 54.578 149.109C54.4879 149.179 54.4179 149.249 54.3479 149.33C54.3079 149.39 54.2579 149.45 54.2179 149.49C54.1179 149.59 54.0278 149.701 53.9378 149.791C53.8978 149.831 53.8678 149.881 53.8478 149.932C53.7678 150.122 53.6478 150.293 53.5777 150.503C53.4677 150.784 53.3877 151.075 53.3377 151.366C53.3177 151.487 53.3177 151.607 53.2977 151.727C53.2777 151.918 53.2877 152.109 53.2977 152.299C53.3477 152.791 53.4577 153.262 53.6578 153.714C53.7078 153.854 53.7878 153.985 53.8378 154.115C53.9378 154.356 54.0878 154.547 54.2479 154.747C54.3979 154.908 54.5479 155.068 54.728 155.209C54.898 155.319 55.038 155.47 55.2181 155.58C55.5682 155.771 55.8982 155.951 56.2883 156.032C56.3083 156.032 56.3383 156.032 56.3483 156.042C56.5984 156.132 56.8584 156.162 57.1185 156.222C57.1385 156.222 57.1685 156.222 57.1885 156.222C57.3485 156.222 57.5086 156.222 57.6786 156.222C57.9087 156.222 58.1287 156.192 58.3688 156.182C58.4888 156.182 58.6288 156.182 58.7488 156.132C58.7788 156.112 58.8188 156.132 58.8489 156.122C59.0389 156.082 59.2289 156.062 59.419 156.001C59.589 155.951 59.749 155.941 59.9191 155.891C60.1591 155.821 60.3992 155.741 60.6392 155.66C60.6492 155.66 60.6692 155.64 60.6892 155.64C60.7993 155.59 60.8993 155.54 61.0093 155.47C61.0893 155.41 61.1893 155.369 61.2594 155.319C61.3994 155.229 61.5294 155.129 61.6695 155.028C61.6995 155.008 61.7295 154.988 61.7495 154.958C61.8695 154.838 61.9895 154.717 62.0995 154.587C62.2096 154.466 62.3096 154.346 62.3996 154.226C62.4996 154.075 62.5996 153.925 62.6597 153.754C62.6697 153.694 62.6997 153.634 62.7297 153.574C62.8297 153.333 62.9397 153.092 62.9697 152.841C62.9897 152.731 63.0097 152.64 63.0297 152.55C63.0697 152.349 63.0497 152.159 63.0597 151.958V151.918C63.0297 151.868 63.0197 151.848 62.9597 151.838C62.8997 151.838 62.8497 151.838 62.7897 151.848C62.5796 151.878 62.3696 151.918 62.1495 151.938C61.8795 151.978 61.6094 152.028 61.3594 152.069C61.2394 152.089 61.1093 152.109 60.9993 152.119C60.7993 152.149 60.6092 152.179 60.4192 152.189C60.2992 152.209 60.1791 152.219 60.0591 152.239C59.9891 152.239 59.9491 152.289 59.9391 152.349C59.9391 152.38 59.9391 152.41 59.9291 152.43C59.8991 152.57 59.8491 152.691 59.779 152.811C59.679 152.992 59.539 153.122 59.379 153.232C59.1489 153.403 58.9189 153.513 58.6388 153.553C58.5088 153.574 58.3788 153.594 58.2487 153.594C58.1387 153.614 58.0387 153.614 57.9187 153.604C57.7086 153.574 57.4986 153.543 57.3185 153.423C57.3085 153.423 57.2885 153.403 57.2685 153.393C56.9284 153.242 56.7184 152.982 56.5684 152.64C56.4784 152.42 56.4583 152.189 56.4383 151.958C56.4383 151.928 56.4383 151.898 56.4383 151.878C56.4583 151.748 56.4684 151.617 56.4984 151.497C56.5784 151.125 56.7984 150.855 57.0985 150.614C57.2085 150.523 57.3385 150.453 57.4786 150.393C57.6386 150.323 57.8086 150.263 57.9887 150.253C58.1087 150.253 58.2387 150.253 58.3688 150.253C58.5788 150.223 58.7688 150.313 58.9689 150.343C59.1189 150.423 59.2689 150.493 59.409 150.594C59.559 150.684 59.679 150.804 59.769 150.965C59.7991 151.025 59.8491 151.055 59.9291 151.035C59.9491 151.035 59.9691 151.035 60.0091 151.025C60.2992 150.985 60.5992 150.935 60.8993 150.895C61.0393 150.895 61.1593 150.875 61.2994 150.865C61.4894 150.835 61.6795 150.794 61.8795 150.754L61.8495 150.744ZM74.3321 153.323C74.2321 153.172 74.1221 153.032 74.0221 152.901C73.862 152.661 73.692 152.43 73.522 152.199C73.4019 152.028 73.2919 151.868 73.1719 151.697C73.1019 151.597 73.0118 151.487 72.9418 151.376C72.8718 151.276 72.7918 151.156 72.7218 151.055C72.5217 150.784 72.3217 150.513 72.1217 150.243C71.8016 149.791 71.4915 149.36 71.1715 148.908C71.1014 148.788 71.0114 148.677 70.9314 148.577C70.8314 148.417 70.7114 148.276 70.6113 148.116C70.4613 147.915 70.3013 147.714 70.1612 147.504C70.0612 147.343 69.9612 147.203 69.8312 147.052C69.7111 146.922 69.6211 146.761 69.5311 146.611C69.5011 146.561 69.4711 146.52 69.4511 146.47C69.3911 146.38 69.3211 146.34 69.211 146.37C69.071 146.4 68.921 146.43 68.7809 146.45C68.0808 146.55 67.3907 146.651 66.7005 146.751C66.4805 146.781 66.2504 146.811 66.0204 146.851C65.9604 146.851 65.9003 146.851 65.8403 146.902C65.8403 146.922 65.8203 146.942 65.8303 146.962C65.7603 147.213 65.6903 147.453 65.6303 147.694C65.5503 147.995 65.4502 148.286 65.3702 148.567C65.3202 148.718 65.2802 148.878 65.2302 149.039C65.2002 149.139 65.1502 149.229 65.1302 149.33C65.1102 149.51 65.0402 149.661 64.9801 149.831C64.9001 150.092 64.8201 150.343 64.7501 150.614C64.7001 150.774 64.6701 150.915 64.6201 151.065C64.5401 151.336 64.46 151.607 64.37 151.868C64.33 152.008 64.29 152.169 64.24 152.309C64.18 152.5 64.14 152.701 64.06 152.901C63.9299 153.252 63.8199 153.614 63.7299 153.955C63.6499 154.266 63.4898 154.557 63.4498 154.868C63.4498 154.888 63.4198 154.918 63.4098 154.938C63.3998 155.008 63.3598 155.098 63.3998 155.179C63.4298 155.179 63.4698 155.179 63.4898 155.179C63.6799 155.149 63.8699 155.129 64.06 155.109C64.5201 155.038 64.9801 154.968 65.4402 154.898C65.6903 154.858 65.9303 154.828 66.1804 154.798C66.2504 154.798 66.2804 154.747 66.3004 154.687C66.3004 154.667 66.3004 154.647 66.3104 154.627C66.4005 154.266 66.4805 153.915 66.5805 153.563C66.6605 153.273 66.6705 153.313 66.9306 153.262H66.9406C67.5607 153.172 68.1608 153.082 68.7809 152.992C68.901 152.972 69.031 152.941 69.151 152.931C69.3211 152.911 69.4911 152.901 69.6511 152.861C69.8412 152.821 70.0312 152.831 70.2112 152.791C70.2813 152.771 70.3313 152.791 70.3713 152.851C70.3913 152.881 70.4113 152.901 70.4313 152.931C70.5913 153.182 70.7614 153.443 70.9214 153.704C70.9914 153.794 71.0514 153.895 71.1214 153.985C71.1515 154.025 71.2015 154.045 71.2515 154.035C71.2715 154.035 71.3115 154.035 71.3315 154.035C71.5515 154.005 71.7816 153.965 72.0016 153.935C72.2917 153.885 72.5817 153.834 72.8618 153.794C72.9718 153.774 73.0719 153.764 73.1719 153.754C73.532 153.704 73.892 153.654 74.2421 153.604C74.3121 153.604 74.3721 153.584 74.4221 153.493C74.3821 153.433 74.3421 153.353 74.3121 153.303L74.3321 153.323ZM67.5007 150.895C67.3706 150.915 67.3406 150.885 67.3807 150.754C67.4607 150.423 67.5507 150.082 67.6407 149.751C67.6907 149.59 67.7207 149.44 67.7707 149.289C67.7907 149.239 67.7907 149.209 67.8107 149.169C67.8508 149.099 67.9108 149.089 67.9708 149.149C67.9808 149.149 68.0008 149.179 68.0108 149.199C68.1808 149.44 68.3409 149.681 68.4909 149.942C68.5709 150.072 68.6609 150.202 68.7509 150.333C68.7809 150.383 68.811 150.433 68.841 150.503L68.881 150.564C68.901 150.644 68.881 150.694 68.801 150.714C68.6709 150.734 68.5409 150.754 68.4109 150.784C68.3209 150.794 68.2208 150.814 68.1308 150.824C67.9208 150.845 67.7207 150.885 67.5007 150.905V150.895ZM78.8931 145.748C78.9931 145.898 79.0931 146.039 79.1931 146.189C79.3432 146.42 79.4432 146.601 79.5932 146.831C79.6332 146.892 79.6833 146.952 79.7233 147.032C79.8133 147.173 79.9033 147.313 80.0033 147.453C80.0833 147.584 80.1634 147.694 80.2334 147.805C80.4234 148.086 80.6034 148.376 80.7935 148.657C80.9235 148.848 81.0535 149.049 81.1736 149.229C81.2136 149.279 81.2336 149.35 81.2736 149.39C81.3436 149.51 81.4336 149.621 81.5036 149.731C81.5736 149.851 81.6537 149.972 81.7237 150.092C81.8937 150.343 82.0638 150.594 82.2238 150.845C82.3138 150.985 82.4038 151.115 82.4838 151.256C82.6139 151.467 82.7439 151.667 82.8839 151.878C82.9839 152.028 83.094 152.169 83.204 152.329C83.234 152.37 83.284 152.39 83.324 152.38C83.354 152.38 83.384 152.38 83.404 152.37C83.5941 152.339 83.7841 152.329 83.9642 152.299C84.1542 152.269 84.3342 152.249 84.5143 152.219C84.6943 152.189 84.8643 152.169 85.0344 152.159C85.4545 152.099 85.8746 152.049 86.2946 151.998C86.3647 151.998 86.4247 151.968 86.4947 151.958C86.5647 151.938 86.6047 151.898 86.6247 151.838C86.7347 151.497 86.8448 151.166 86.9748 150.835C86.9748 150.794 86.9848 150.774 86.9948 150.754C87.1248 150.413 87.2648 150.062 87.3949 149.711C87.4349 149.59 87.4849 149.47 87.5349 149.33C87.6049 149.109 87.6849 148.888 87.775 148.667C87.965 148.146 88.165 147.624 88.3551 147.112C88.4251 146.892 88.5151 146.681 88.5951 146.47C88.7252 146.109 88.8552 145.758 89.0052 145.387C89.0852 145.166 89.1652 144.935 89.2553 144.714C89.3153 144.554 89.3753 144.403 89.4253 144.243C89.4953 144.072 89.5553 143.892 89.6254 143.721C89.6554 143.661 89.6654 143.601 89.6754 143.541C89.6854 143.48 89.6654 143.45 89.6053 143.46C89.5553 143.46 89.5053 143.46 89.4553 143.46C89.0652 143.521 88.6651 143.571 88.2851 143.631C87.995 143.671 87.7049 143.701 87.4149 143.741C87.1348 143.781 86.8548 143.822 86.5747 143.862C86.4947 143.872 86.4547 143.912 86.4447 143.982C86.3447 144.253 86.2446 144.524 86.1346 144.795C86.0046 145.146 85.8546 145.497 85.7245 145.838L85.5745 146.239C85.4745 146.49 85.3745 146.751 85.2744 147.002C85.2244 147.132 85.1644 147.273 85.1144 147.403C85.0144 147.644 84.9244 147.895 84.8143 148.136C84.7043 148.417 84.5943 148.708 84.4743 148.988C84.4443 149.089 84.3742 149.099 84.3042 149.009C84.2942 149.009 84.2842 148.978 84.2742 148.958C84.2142 148.858 84.1542 148.768 84.0842 148.667C83.8741 148.326 83.6641 147.995 83.4541 147.654C83.364 147.494 83.284 147.343 83.184 147.203C82.9539 146.862 82.7439 146.5 82.5239 146.139C82.2238 145.658 81.9437 145.206 81.6537 144.714C81.5937 144.624 81.5336 144.594 81.4336 144.614C81.2536 144.644 81.0835 144.664 80.9035 144.684C80.8235 144.694 79.9233 144.825 79.7033 144.855C79.3032 144.915 78.9031 144.965 78.503 145.025C78.483 145.025 78.443 145.025 78.423 145.046C78.573 145.286 78.723 145.507 78.8531 145.728L78.8931 145.748ZM100.588 149.54C100.488 149.39 100.378 149.249 100.278 149.119C100.118 148.878 99.9475 148.647 99.7775 148.417C99.6575 148.246 99.5474 148.086 99.4274 147.915C99.3574 147.815 99.2674 147.704 99.1974 147.594C99.1274 147.494 99.0473 147.373 98.9773 147.273C98.7773 147.002 98.5772 146.731 98.3772 146.46C98.0571 146.009 97.7471 145.577 97.427 145.126C97.357 145.005 97.267 144.895 97.1869 144.795C97.0869 144.634 96.9769 144.494 96.8669 144.333C96.7168 144.143 96.5568 143.932 96.4168 143.721C96.3168 143.561 96.2167 143.42 96.0867 143.27C95.9667 143.139 95.8767 142.979 95.7866 142.828C95.7566 142.778 95.7266 142.738 95.7066 142.688C95.6466 142.598 95.5766 142.557 95.4666 142.587C95.3265 142.618 95.1765 142.648 95.0365 142.678C94.3363 142.778 93.6462 142.878 92.9561 142.979C92.736 143.009 92.506 143.039 92.2759 143.079C92.2159 143.079 92.1559 143.079 92.0959 143.129C92.0959 143.149 92.0759 143.169 92.0859 143.189C92.0159 143.44 91.9458 143.681 91.8858 143.922C91.8058 144.223 91.7058 144.514 91.6258 144.795C91.5758 144.945 91.5358 145.106 91.4857 145.266C91.4557 145.367 91.4057 145.457 91.3857 145.557C91.3657 145.738 91.2957 145.888 91.2357 146.059C91.1557 146.32 91.0757 146.571 91.0056 146.841C90.9556 147.002 90.9256 147.142 90.8756 147.293C90.7956 147.564 90.7156 147.835 90.6256 148.096C90.5856 148.236 90.5455 148.397 90.4955 148.537C90.4355 148.728 90.3955 148.928 90.3155 149.129C90.1855 149.48 90.0754 149.841 89.9854 150.192C89.9054 150.503 89.7454 150.794 89.7054 151.105C89.7054 151.125 89.6754 151.156 89.6654 151.176C89.6554 151.246 89.6153 151.336 89.6554 151.416C89.6854 151.416 89.7254 151.416 89.7454 151.416C89.9354 151.386 90.1255 151.366 90.3155 151.346C90.7756 151.276 91.2357 151.206 91.6958 151.136C91.9458 151.095 92.1859 151.065 92.4359 151.035C92.506 151.025 92.536 150.985 92.556 150.925C92.556 150.905 92.556 150.885 92.566 150.865C92.656 150.513 92.736 150.152 92.836 149.801C92.916 149.51 92.926 149.55 93.1861 149.5H93.1961C93.8162 149.41 94.4164 149.32 95.0365 149.229C95.1565 149.209 95.2865 149.179 95.4066 149.169C95.5766 149.139 95.7466 149.139 95.9067 149.099C96.0967 149.059 96.2868 149.069 96.4668 149.029C96.5368 149.009 96.5868 149.029 96.6268 149.089C96.6468 149.119 96.6668 149.139 96.6868 149.169C96.8469 149.42 97.0169 149.681 97.1769 149.942C97.247 150.032 97.307 150.132 97.377 150.223C97.407 150.263 97.457 150.283 97.507 150.273C97.527 150.273 97.567 150.273 97.587 150.273C97.8071 150.243 98.0371 150.202 98.2572 150.172C98.5472 150.122 98.8373 150.072 99.1174 150.042C99.2274 150.022 99.3274 150.012 99.4274 150.002C99.7875 149.952 100.148 149.901 100.498 149.851C100.568 149.841 100.628 149.831 100.678 149.741C100.638 149.681 100.598 149.6 100.568 149.55L100.588 149.54ZM93.7562 147.112C93.6262 147.132 93.5962 147.102 93.6362 146.972C93.7162 146.641 93.8062 146.31 93.8962 145.969C93.9463 145.808 93.9763 145.658 94.0263 145.507C94.0463 145.457 94.0463 145.427 94.0663 145.387C94.1063 145.316 94.1663 145.306 94.2263 145.367C94.2363 145.367 94.2563 145.397 94.2663 145.417C94.4364 145.658 94.5964 145.898 94.7464 146.159C94.8265 146.29 94.9165 146.42 95.0065 146.55C95.0365 146.601 95.0665 146.651 95.0965 146.721L95.1365 146.781C95.1565 146.862 95.1365 146.912 95.0565 146.932C94.9265 146.952 94.7964 146.972 94.6664 147.002C94.5764 147.012 94.4764 147.032 94.3864 147.042C94.1763 147.062 93.9763 147.102 93.7562 147.122V147.112ZM110.13 148.487C110.2 148.487 110.27 148.487 110.33 148.467C110.67 148.417 110.99 148.387 111.32 148.336C111.75 148.276 112.17 148.206 112.59 148.146C112.91 148.096 113.24 148.065 113.57 148.015C113.62 148.015 113.67 148.005 113.73 147.985C113.79 147.985 113.81 147.925 113.82 147.885C113.82 147.835 113.82 147.785 113.81 147.734C113.79 147.664 113.77 147.604 113.76 147.534C113.72 147.263 113.68 147.002 113.64 146.731C113.6 146.46 113.56 146.189 113.51 145.918C113.5 145.838 113.49 145.768 113.48 145.698C113.47 145.607 113.46 145.507 113.45 145.417C113.45 145.357 113.4 145.337 113.35 145.337C113.33 145.337 113.3 145.336 113.27 145.347C112.92 145.397 112.56 145.447 112.22 145.497C111.65 145.577 111.08 145.658 110.51 145.738C110.13 145.788 109.76 145.848 109.38 145.898C109.3 145.908 109.219 145.908 109.139 145.918C109.089 145.918 109.059 145.898 109.049 145.848C109.019 145.738 109.009 145.627 108.999 145.507C108.999 145.467 109.019 145.427 109.079 145.407H109.139C109.259 145.367 109.39 145.347 109.5 145.337C109.81 145.296 110.12 145.246 110.43 145.216C111 145.136 111.58 145.046 112.17 144.965C112.18 144.965 112.21 144.965 112.23 144.965C112.31 144.955 112.33 144.925 112.33 144.845V144.815C112.26 144.383 112.2 143.952 112.14 143.521C112.14 143.48 112.12 143.43 112.11 143.4C112.08 143.35 112.04 143.31 111.98 143.32C111.9 143.33 111.82 143.33 111.74 143.34C111.4 143.39 111.06 143.45 110.72 143.49C110.38 143.541 110.03 143.581 109.69 143.631C109.45 143.661 109.219 143.711 108.979 143.741C108.939 143.741 108.879 143.751 108.819 143.751C108.769 143.751 108.749 143.731 108.739 143.681C108.719 143.611 108.709 143.551 108.699 143.49C108.679 143.27 108.629 143.23 108.929 143.179C109.069 143.159 109.199 143.149 109.34 143.129C109.56 143.099 109.78 143.069 110 143.029C110.32 142.999 110.63 142.949 110.94 142.909C111.48 142.828 112.01 142.758 112.54 142.668C112.65 142.648 112.76 142.628 112.88 142.608C112.94 142.587 112.97 142.547 112.96 142.477C112.96 142.397 112.95 142.317 112.94 142.236C112.87 141.735 112.8 141.223 112.72 140.731C112.69 140.601 112.68 140.461 112.65 140.33C112.63 140.18 112.59 140.17 112.46 140.19C112.44 140.19 112.43 140.19 112.4 140.19C112.05 140.24 111.69 140.29 111.35 140.34C111.08 140.38 110.8 140.41 110.52 140.44C110.41 140.461 110.29 140.481 110.16 140.501C109.78 140.561 109.38 140.601 108.999 140.651C108.799 140.681 108.589 140.701 108.389 140.741C108.179 140.772 107.969 140.782 107.769 140.822C107.669 140.852 107.569 140.852 107.459 140.862C107.109 140.902 106.749 140.952 106.399 141.002C106.359 141.002 106.309 141.012 106.259 141.022C106.129 141.042 105.989 141.062 105.859 141.083C105.739 141.103 105.609 141.123 105.489 141.133C105.389 141.153 105.349 141.203 105.349 141.303C105.349 141.353 105.349 141.384 105.369 141.424C105.389 141.574 105.419 141.705 105.439 141.855C105.469 142.046 105.499 142.246 105.529 142.447C105.679 143.38 105.809 144.323 105.949 145.266C105.999 145.607 106.049 145.949 106.099 146.3C106.159 146.701 106.209 147.102 106.269 147.504C106.319 147.825 106.369 148.166 106.399 148.497C106.419 148.617 106.429 148.738 106.439 148.858C106.439 148.878 106.439 148.898 106.439 148.928C106.459 148.978 106.499 149.009 106.549 149.009C106.569 149.009 106.599 149.009 106.619 148.998C106.869 148.958 107.109 148.928 107.349 148.898C107.929 148.808 108.529 148.718 109.109 148.617C109.219 148.597 109.35 148.597 109.47 148.577C109.68 148.547 109.91 148.507 110.12 148.477L110.13 148.487ZM121.442 141.193C121.362 140.611 121.272 140.019 121.182 139.437C121.162 139.307 121.142 139.166 121.122 139.046C121.092 138.936 121.052 138.905 120.952 138.925C120.932 138.925 120.912 138.925 120.882 138.925C120.682 138.956 120.472 138.986 120.252 139.026C119.972 139.076 119.682 139.096 119.402 139.166C119.372 139.186 119.322 139.176 119.292 139.186C119.152 139.186 119.012 139.186 118.872 139.216C118.531 139.257 118.191 139.317 117.851 139.367C117.561 139.407 117.261 139.467 116.971 139.507C116.721 139.548 116.481 139.578 116.231 139.618C116.051 139.658 115.871 139.678 115.701 139.708C115.031 139.808 114.351 139.889 113.67 139.989C113.59 139.999 113.51 140.009 113.42 140.029C113.36 140.049 113.34 140.079 113.32 140.139C113.32 140.17 113.32 140.2 113.32 140.22C113.35 140.41 113.36 140.601 113.4 140.782C113.46 141.223 113.55 141.644 113.61 142.086C113.62 142.256 113.66 142.427 113.68 142.587C113.68 142.658 113.72 142.678 113.79 142.668C113.97 142.638 114.151 142.618 114.331 142.587C114.481 142.567 114.621 142.537 114.771 142.517C115.131 142.457 115.491 142.407 115.831 142.357C115.911 142.347 115.981 142.337 116.061 142.337C116.121 142.337 116.141 142.357 116.161 142.417C116.161 142.447 116.161 142.477 116.171 142.497C116.221 142.748 116.251 142.979 116.281 143.22C116.331 143.5 116.391 143.791 116.431 144.072C116.521 144.694 116.611 145.306 116.701 145.938V145.959C116.761 146.209 116.791 146.46 116.811 146.711C116.811 146.781 116.811 146.851 116.841 146.912C116.861 147.062 116.891 147.203 116.921 147.343V147.443C116.951 147.494 116.991 147.524 117.051 147.534C117.081 147.534 117.111 147.534 117.131 147.524C117.301 147.504 117.471 147.484 117.641 147.463C118.251 147.363 118.872 147.273 119.492 147.183C119.552 147.183 119.612 147.152 119.672 147.132C119.772 147.112 119.792 147.072 119.772 146.972C119.732 146.771 119.692 146.571 119.662 146.37C119.552 145.617 119.442 144.865 119.342 144.112C119.312 143.872 119.272 143.631 119.242 143.39C119.222 143.25 119.182 143.119 119.162 142.989C119.122 142.688 119.072 142.377 119.032 142.076C119.012 141.945 119.042 141.905 119.172 141.885C119.452 141.845 119.722 141.805 119.992 141.765C120.392 141.705 120.802 141.644 121.192 141.594C121.262 141.594 121.322 141.574 121.402 141.564C121.462 141.544 121.472 141.524 121.472 141.464C121.472 141.384 121.452 141.303 121.442 141.223V141.193ZM131.984 145.196C131.864 145.076 131.774 144.915 131.714 144.755C131.674 144.654 131.654 144.544 131.624 144.444C131.564 144.153 131.504 143.822 131.424 143.531C131.364 143.26 131.294 142.999 131.214 142.728C131.164 142.567 131.084 142.407 130.974 142.266C130.824 142.116 130.674 141.986 130.464 141.925C130.344 141.875 130.214 141.815 130.094 141.805C130.074 141.805 130.054 141.805 130.044 141.775C130.044 141.765 130.044 141.745 130.044 141.715C130.044 141.705 130.064 141.685 130.084 141.685C130.294 141.564 130.454 141.394 130.594 141.193C130.694 141.073 130.754 140.942 130.814 140.792C130.884 140.581 130.934 140.37 130.934 140.139C130.944 139.748 130.864 139.387 130.644 139.056C130.614 139.036 130.604 138.996 130.584 138.966C130.484 138.725 130.284 138.574 130.094 138.424C129.964 138.313 129.814 138.243 129.664 138.163C129.614 138.133 129.564 138.123 129.504 138.103C129.164 137.972 128.794 137.942 128.434 137.932C128.133 137.922 127.823 137.932 127.533 137.982C127.373 138.002 127.223 138.002 127.073 138.023C126.673 138.083 126.263 138.143 125.853 138.213C125.653 138.243 125.453 138.283 125.253 138.313C124.883 138.354 124.513 138.394 124.143 138.454C123.853 138.494 123.573 138.534 123.282 138.574C123.062 138.604 122.832 138.635 122.612 138.675C122.532 138.685 122.082 138.745 121.882 138.765C121.812 138.805 121.892 139.186 121.912 139.267C121.942 139.397 121.962 139.527 121.982 139.658C121.982 139.718 122.002 139.778 122.012 139.849C122.042 140.029 122.072 140.21 122.102 140.39C122.122 140.551 122.132 140.711 122.172 140.862C122.222 141.123 122.252 141.374 122.292 141.624C122.372 142.186 122.452 142.738 122.532 143.29C122.612 143.832 122.682 144.363 122.762 144.895C122.782 145.046 122.802 145.186 122.822 145.337C122.842 145.427 122.862 145.527 122.872 145.627C122.912 145.908 122.952 146.189 122.992 146.47C122.992 146.54 123.052 146.581 123.122 146.581C123.152 146.581 123.192 146.571 123.222 146.571C123.943 146.47 124.663 146.36 125.373 146.25C125.453 146.239 125.533 146.239 125.613 146.219C125.723 146.189 125.773 146.119 125.763 146.009C125.763 145.989 125.763 145.979 125.763 145.949C125.723 145.688 125.683 145.417 125.653 145.146C125.603 144.785 125.553 144.424 125.503 144.062C125.503 144.022 125.493 143.972 125.483 143.942C125.483 143.862 125.513 143.822 125.593 143.812C125.723 143.781 125.863 143.751 125.983 143.731C126.293 143.681 126.603 143.621 126.923 143.611H127.013C127.283 143.551 127.553 143.511 127.803 143.47H127.823C128.053 143.46 128.294 143.541 128.354 143.832C128.404 144.032 128.484 144.223 128.494 144.434C128.544 144.785 128.664 145.156 128.764 145.497C128.794 145.617 128.874 145.698 129.004 145.728C129.074 145.748 129.154 145.738 129.234 145.728C129.454 145.698 129.664 145.658 129.894 145.617C130.094 145.587 130.314 145.567 130.514 145.537C130.804 145.487 131.124 145.457 131.414 145.407C131.594 145.377 131.784 145.357 131.974 145.326C132.014 145.326 132.054 145.316 132.084 145.256C132.044 145.226 132.014 145.196 131.994 145.166L131.984 145.196ZM125.303 141.544C125.133 141.564 125.123 141.544 125.083 141.384C125.063 141.253 125.043 141.113 125.023 140.992C125.023 140.952 125.013 140.892 125.023 140.842C125.023 140.802 125.043 140.762 125.093 140.751C125.143 140.731 125.213 140.711 125.273 140.701C125.473 140.671 125.693 140.641 125.893 140.621C125.953 140.621 126.013 140.601 126.073 140.591C126.303 140.531 126.543 140.521 126.783 140.491C126.883 140.481 126.993 140.45 127.093 140.43C127.203 140.43 127.313 140.4 127.443 140.4C127.593 140.39 127.693 140.481 127.733 140.621C127.753 140.691 127.763 140.751 127.763 140.822C127.773 140.992 127.663 141.163 127.493 141.193C127.343 141.233 127.173 141.263 127.013 141.293C126.773 141.323 126.543 141.363 126.303 141.394C125.963 141.434 125.643 141.474 125.303 141.524V141.544ZM136.605 144.674C136.675 144.674 136.745 144.674 136.805 144.654C137.145 144.604 137.465 144.574 137.796 144.524C138.226 144.464 138.646 144.393 139.066 144.333C139.396 144.283 139.716 144.253 140.046 144.203C140.096 144.203 140.146 144.193 140.206 144.173C140.266 144.173 140.286 144.112 140.296 144.072C140.296 144.022 140.296 143.972 140.286 143.922C140.266 143.852 140.246 143.791 140.236 143.721C140.196 143.45 140.156 143.189 140.126 142.919C140.086 142.648 140.046 142.377 139.996 142.106C139.986 142.026 139.976 141.955 139.966 141.875C139.956 141.785 139.946 141.685 139.936 141.594C139.936 141.534 139.886 141.514 139.836 141.514C139.816 141.514 139.786 141.514 139.756 141.524C139.406 141.574 139.046 141.624 138.696 141.675C138.126 141.755 137.555 141.845 136.985 141.915C136.605 141.975 136.235 142.026 135.855 142.076C135.775 142.086 135.695 142.086 135.615 142.096C135.565 142.096 135.535 142.076 135.525 142.026C135.495 141.915 135.485 141.805 135.475 141.685C135.475 141.644 135.495 141.604 135.555 141.584H135.615C135.735 141.544 135.865 141.534 135.975 141.514C136.285 141.474 136.595 141.424 136.905 141.394C137.475 141.313 138.056 141.223 138.646 141.143C138.656 141.143 138.686 141.143 138.706 141.143C138.786 141.133 138.806 141.103 138.806 141.022V140.992C138.736 140.561 138.676 140.129 138.616 139.698C138.616 139.658 138.596 139.608 138.586 139.578C138.556 139.527 138.516 139.487 138.456 139.497C138.376 139.507 138.296 139.507 138.216 139.517C137.876 139.568 137.535 139.628 137.195 139.668C136.855 139.718 136.505 139.758 136.165 139.808C135.925 139.838 135.695 139.889 135.455 139.919C135.415 139.919 135.355 139.929 135.295 139.929C135.245 139.929 135.225 139.909 135.215 139.859C135.195 139.798 135.185 139.728 135.175 139.668C135.155 139.457 135.105 139.407 135.405 139.357C135.535 139.337 135.675 139.327 135.805 139.307C136.035 139.277 136.245 139.247 136.465 139.206C136.785 139.176 137.095 139.126 137.405 139.086C137.946 139.006 138.476 138.936 139.006 138.845C139.116 138.825 139.226 138.805 139.336 138.785C139.406 138.765 139.436 138.725 139.426 138.655C139.426 138.574 139.416 138.494 139.406 138.414C139.336 137.902 139.256 137.4 139.186 136.909C139.156 136.778 139.146 136.638 139.116 136.508C139.096 136.357 139.056 136.347 138.926 136.367H138.866C138.516 136.427 138.156 136.477 137.816 136.528C137.545 136.568 137.265 136.598 136.985 136.628C136.875 136.648 136.755 136.668 136.625 136.688C136.245 136.748 135.845 136.788 135.465 136.849C135.265 136.879 135.055 136.899 134.855 136.939C134.645 136.969 134.435 136.979 134.235 137.019C134.135 137.049 134.035 137.049 133.925 137.069C133.575 137.11 133.215 137.16 132.864 137.21C132.824 137.21 132.774 137.22 132.734 137.23C132.594 137.25 132.464 137.27 132.334 137.29C132.214 137.31 132.084 137.33 131.964 137.34C131.864 137.35 131.824 137.411 131.824 137.511C131.824 137.561 131.824 137.591 131.844 137.631C131.864 137.782 131.894 137.912 131.914 138.053C131.944 138.243 131.974 138.444 131.994 138.645C132.134 139.578 132.274 140.521 132.414 141.464C132.464 141.805 132.514 142.146 132.564 142.497C132.624 142.899 132.684 143.3 132.734 143.701C132.784 144.032 132.834 144.363 132.864 144.694C132.884 144.815 132.894 144.935 132.904 145.056V145.126C132.934 145.176 132.974 145.206 133.025 145.196C133.045 145.196 133.065 145.196 133.095 145.196C133.345 145.156 133.585 145.126 133.825 145.096C134.405 144.995 135.005 144.915 135.585 144.815C135.695 144.795 135.825 144.795 135.945 144.775C136.155 144.745 136.385 144.704 136.595 144.664L136.605 144.674ZM54.698 159.824L54.748 160.205L54.838 160.807C54.878 161.028 54.908 161.269 54.948 161.489C54.998 161.73 55.008 162.001 55.0481 162.242C55.0881 162.503 55.1281 162.744 55.1681 163.004C55.2281 163.446 55.2781 163.867 55.3481 164.309C55.3781 164.509 55.4181 164.7 55.4581 164.901C55.4681 164.991 55.4781 165.091 55.4881 165.182C55.5382 165.493 55.5882 165.814 55.6382 166.125C55.6882 166.496 55.7482 166.867 55.7982 167.238L55.8182 167.349C55.8382 167.399 55.8682 167.439 55.9382 167.439H56.0183C56.3183 167.389 56.6384 167.349 56.9385 167.309C57.3085 167.258 57.6686 167.198 58.0387 167.148C58.1287 167.138 58.2187 167.118 58.3087 167.098C58.4088 167.088 58.5088 167.068 58.6088 167.058C58.6688 167.058 58.7188 167.058 58.7688 167.038C58.8989 167.018 59.0389 166.987 59.1589 166.977C59.429 166.947 59.709 166.897 59.9791 166.867C60.3792 166.837 60.7593 166.767 61.1493 166.707C61.5694 166.636 61.9995 166.556 62.4096 166.496C62.5396 166.476 62.6797 166.456 62.7997 166.436C62.9897 166.406 62.9797 166.355 62.9597 166.225C62.9397 166.054 62.8997 165.874 62.8697 165.713C62.8397 165.472 62.7897 165.242 62.7797 165.001C62.7797 164.901 62.7497 164.8 62.7397 164.71C62.7197 164.59 62.6997 164.479 62.6897 164.359C62.6897 164.198 62.6397 164.058 62.6096 163.907C62.5996 163.827 62.5696 163.797 62.4896 163.807C62.3396 163.807 62.2096 163.837 62.0795 163.897C62.0395 163.917 61.9995 163.948 61.9595 163.948C61.8595 163.968 61.7595 163.978 61.6594 163.978C61.5894 163.978 61.5294 164.008 61.4594 163.998C61.3294 163.968 61.2094 163.998 61.0793 163.998C60.9293 164.018 60.7793 164.038 60.6292 164.058C59.9291 164.158 59.2489 164.259 58.5688 164.359C58.5288 164.359 58.4788 164.369 58.4288 164.359C58.3687 164.359 58.3187 164.329 58.2987 164.259C58.2987 164.198 58.2687 164.158 58.2687 164.098C58.2187 163.747 58.1687 163.386 58.1187 163.024C58.0887 162.844 58.0787 162.663 58.0487 162.483C58.0087 162.192 57.9587 161.911 57.9187 161.63C57.8386 161.168 57.7886 160.707 57.7186 160.255C57.6786 159.964 57.6486 159.684 57.6186 159.393C57.6086 159.222 57.6086 159.152 57.3585 159.192C57.2585 159.222 57.1685 159.242 57.0685 159.242C56.6384 159.302 56.2083 159.362 55.7782 159.413C55.4481 159.463 55.1281 159.503 54.788 159.553C54.768 159.553 54.738 159.573 54.688 159.583C54.688 159.653 54.688 159.714 54.698 159.754V159.824ZM67.4207 165.804C67.4907 165.804 67.5607 165.804 67.6207 165.784C67.9608 165.733 68.2808 165.703 68.6109 165.653C69.041 165.593 69.4611 165.523 69.8812 165.462C70.2113 165.412 70.5313 165.382 70.8614 165.332C70.9014 165.332 70.9614 165.322 71.0214 165.302C71.0814 165.302 71.1014 165.242 71.1114 165.202C71.1114 165.151 71.1114 165.101 71.1114 165.051C71.0914 164.981 71.0714 164.921 71.0614 164.85C71.0214 164.58 70.9814 164.319 70.9514 164.048C70.9114 163.777 70.8714 163.506 70.8214 163.235L70.7914 163.014C70.7814 162.924 70.7714 162.824 70.7614 162.734C70.7614 162.673 70.7114 162.643 70.6613 162.653C70.6413 162.653 70.6113 162.653 70.5813 162.663C70.2313 162.713 69.8712 162.764 69.5311 162.814C68.961 162.894 68.3909 162.974 67.8207 163.055C67.4407 163.115 67.0706 163.165 66.6905 163.215C66.6105 163.225 66.5305 163.225 66.4505 163.235C66.4004 163.235 66.3704 163.215 66.3604 163.165C66.3304 163.055 66.3204 162.944 66.3104 162.824C66.3104 162.784 66.3304 162.744 66.3904 162.723H66.4505C66.5705 162.683 66.7005 162.673 66.8105 162.653C67.1206 162.613 67.4307 162.563 67.7407 162.533C68.3109 162.453 68.901 162.362 69.4811 162.282C69.4911 162.282 69.5211 162.282 69.5411 162.282C69.6211 162.272 69.6411 162.242 69.6411 162.162V162.132C69.5711 161.7 69.5111 161.269 69.4511 160.837C69.4511 160.797 69.4311 160.747 69.4211 160.717C69.3911 160.667 69.3511 160.627 69.2911 160.627C69.211 160.637 69.131 160.637 69.051 160.647C68.7109 160.697 68.3709 160.757 68.0308 160.797C67.6907 160.847 67.3406 160.887 67.0006 160.938C66.7605 160.968 66.5305 161.018 66.2904 161.048C66.2504 161.048 66.1904 161.058 66.1304 161.058C66.0804 161.058 66.0604 161.038 66.0504 160.988C66.0304 160.918 66.0204 160.857 66.0104 160.797C65.9904 160.586 65.9404 160.536 66.2404 160.486C66.3704 160.466 66.5105 160.456 66.6505 160.436C66.8705 160.406 67.0906 160.376 67.3106 160.336C67.6307 160.306 67.9408 160.255 68.2508 160.215C68.7909 160.135 69.3211 160.065 69.8512 159.974C69.9612 159.954 70.0712 159.934 70.1812 159.914C70.2513 159.894 70.2713 159.854 70.2613 159.784C70.2613 159.704 70.2513 159.623 70.2413 159.543C70.1712 159.031 70.0912 158.53 70.0212 158.038C69.9912 157.908 69.9812 157.767 69.9512 157.637C69.9312 157.486 69.8912 157.476 69.7612 157.496H69.7011C69.3511 157.557 68.991 157.607 68.6509 157.657C68.3809 157.697 68.1008 157.727 67.8207 157.757C67.7107 157.777 67.5907 157.797 67.4607 157.817C67.0806 157.878 66.6805 157.918 66.3004 157.968C66.1004 157.998 65.8903 158.018 65.6903 158.058C65.4803 158.088 65.2702 158.098 65.0702 158.138C64.9701 158.159 64.8701 158.169 64.7601 158.179C64.41 158.219 64.05 158.269 63.6999 158.319C63.6599 158.319 63.6099 158.329 63.5698 158.339C63.4398 158.359 63.2998 158.379 63.1698 158.399L62.7997 158.449C62.6997 158.46 62.6597 158.52 62.6597 158.62C62.6597 158.67 62.6597 158.7 62.6797 158.74C62.6997 158.891 62.7297 159.021 62.7497 159.172C62.7797 159.362 62.8097 159.563 62.8397 159.774C62.9897 160.707 63.1198 161.65 63.2598 162.593C63.3098 162.934 63.3598 163.275 63.4098 163.626C63.4698 164.028 63.5198 164.429 63.5799 164.83C63.6299 165.161 63.6799 165.493 63.7099 165.824C63.7299 165.944 63.7399 166.064 63.7499 166.185V166.255C63.7799 166.315 63.8199 166.335 63.8699 166.335C63.8899 166.335 63.9099 166.335 63.9399 166.335C64.19 166.295 64.43 166.265 64.6701 166.225C65.2502 166.135 65.8503 166.044 66.4305 165.954C66.5405 165.934 66.6705 165.934 66.7905 165.914C67.0006 165.884 67.2306 165.844 67.4407 165.814L67.4207 165.804ZM77.6728 164.339L78.713 164.188C78.9631 164.148 79.2032 164.118 79.4532 164.078C79.5432 164.078 79.6332 164.048 79.7233 164.038C79.8733 164.028 80.0133 164.008 80.1634 163.988C80.2934 163.968 80.2934 163.958 80.2834 163.817C80.1934 163.195 80.0933 162.583 80.0133 161.971C79.9733 161.68 79.9433 161.379 79.9033 161.088C79.8733 160.898 79.8833 160.877 80.0733 160.847C80.4134 160.797 80.7435 160.747 81.0935 160.717C81.2636 160.697 81.4336 160.667 81.6137 160.647C81.7337 160.627 81.8737 160.607 81.9937 160.597C82.3038 160.556 82.6139 160.506 82.9239 160.476C83.044 160.456 83.184 160.436 83.314 160.416C83.4741 160.396 83.5041 160.356 83.464 160.195C83.444 160.075 83.424 159.944 83.414 159.814C83.374 159.533 83.334 159.242 83.294 158.961C83.254 158.75 83.214 158.71 82.9839 158.74C82.7939 158.771 82.6039 158.791 82.4138 158.821C81.9937 158.881 81.5736 158.941 81.1536 159.001C80.7335 159.061 80.3334 159.122 79.9233 159.182C79.8633 159.182 79.8233 159.192 79.7633 159.202C79.6732 159.202 79.6232 159.172 79.6132 159.082L79.5732 158.781C79.5532 158.63 79.5632 158.62 79.7033 158.59C79.7233 158.58 79.7433 158.57 79.7833 158.57C79.9433 158.55 80.0933 158.52 80.2434 158.5C80.5134 158.46 80.7835 158.429 81.0535 158.399C81.4436 158.339 81.8537 158.279 82.2538 158.229L83.8041 158.008C83.8041 158.008 83.8941 157.998 83.9242 157.988C83.9642 157.968 83.9842 157.948 83.9942 157.898V157.858C83.9742 157.687 83.9542 157.516 83.9842 157.346C83.9842 157.306 83.9842 157.276 83.9842 157.246C83.9842 157.175 83.9842 157.105 83.9842 157.025C83.9842 156.965 83.9842 156.914 83.9742 156.854C83.9241 156.473 83.8641 156.092 83.8141 155.711C83.8141 155.67 83.8041 155.62 83.7841 155.57C83.7841 155.5 83.7341 155.49 83.6541 155.49C83.6341 155.49 83.6241 155.51 83.6041 155.51C83.234 155.56 82.8739 155.61 82.5038 155.67C82.1338 155.721 81.7637 155.781 81.3936 155.831C81.1336 155.871 80.8835 155.921 80.6335 155.951C80.4234 155.981 80.2034 156.011 80.0033 156.042C79.8033 156.062 79.6032 156.102 79.4132 156.132C79.2632 156.152 79.1331 156.162 78.9831 156.182C78.483 156.252 77.9729 156.333 77.4728 156.403C77.1227 156.453 76.7626 156.493 76.4126 156.543C76.3926 156.543 76.3525 156.543 76.3225 156.563C76.2825 156.563 76.2525 156.603 76.2425 156.654V156.734C76.2825 156.935 76.3025 157.155 76.3425 157.356C76.4226 157.807 76.4726 158.259 76.5326 158.71C76.5826 159.061 76.6326 159.413 76.6826 159.744C76.7326 160.065 76.7726 160.386 76.8326 160.697C76.8727 160.988 76.9027 161.269 76.9427 161.57C77.0427 162.202 77.1227 162.834 77.2227 163.466C77.2627 163.737 77.3027 164.008 77.3428 164.279C77.3428 164.319 77.3528 164.359 77.3728 164.419C77.4828 164.399 77.5928 164.389 77.7028 164.369L77.6728 164.339ZM89.3253 162.643C89.3953 162.643 89.4653 162.643 89.5253 162.623C89.8654 162.573 90.1855 162.543 90.5155 162.493C90.9456 162.433 91.3657 162.362 91.7858 162.302C92.1159 162.252 92.4359 162.222 92.766 162.172C92.806 162.172 92.866 162.152 92.926 162.142C92.9861 162.142 93.0061 162.081 93.0161 162.041C93.0161 161.991 93.0161 161.941 93.0161 161.891C92.9961 161.821 92.9761 161.76 92.9661 161.69C92.926 161.419 92.886 161.158 92.856 160.887C92.816 160.617 92.776 160.346 92.726 160.075L92.696 159.854C92.686 159.764 92.676 159.663 92.666 159.573C92.666 159.513 92.616 159.483 92.566 159.493C92.546 159.493 92.516 159.493 92.486 159.503C92.1359 159.553 91.7758 159.603 91.4357 159.653C90.8656 159.734 90.2955 159.814 89.7254 159.894C89.3453 159.944 88.9752 160.005 88.5951 160.055C88.5151 160.065 88.4351 160.065 88.3551 160.075C88.3051 160.075 88.2751 160.055 88.2651 160.005C88.2351 159.894 88.2251 159.784 88.215 159.663C88.215 159.623 88.2351 159.583 88.2951 159.563C88.3151 159.563 88.3251 159.563 88.3551 159.563C88.4751 159.533 88.6051 159.513 88.7152 159.503C89.0252 159.463 89.3353 159.413 89.6454 159.383C90.2155 159.302 90.8056 159.212 91.3857 159.132C91.3957 159.132 91.4257 159.132 91.4457 159.132C91.5257 159.122 91.5458 159.092 91.5458 159.011V158.981C91.4757 158.55 91.4157 158.118 91.3557 157.687C91.3557 157.647 91.3357 157.597 91.3257 157.567C91.2957 157.516 91.2557 157.476 91.1957 157.476C91.1157 157.486 91.0356 157.486 90.9556 157.496C90.6156 157.547 90.2755 157.607 89.9354 157.647C89.5953 157.697 89.2453 157.737 88.9052 157.787C88.6651 157.817 88.4351 157.868 88.195 157.898C88.155 157.898 88.095 157.908 88.035 157.908C87.985 157.908 87.965 157.888 87.955 157.837C87.935 157.767 87.925 157.707 87.915 157.647C87.895 157.426 87.845 157.386 88.145 157.336C88.2751 157.316 88.4151 157.306 88.5551 157.286C88.7752 157.256 88.9952 157.225 89.2153 157.195C89.5353 157.165 89.8454 157.115 90.1555 157.075C90.6956 156.995 91.2257 156.924 91.7558 156.834C91.8658 156.814 91.9758 156.794 92.0859 156.774C92.1559 156.754 92.1759 156.714 92.1659 156.644C92.1659 156.563 92.1559 156.483 92.1459 156.403C92.0759 155.901 91.9959 155.389 91.9258 154.898C91.8958 154.767 91.8858 154.627 91.8558 154.497C91.8358 154.346 91.7958 154.336 91.6658 154.356H91.6058C91.2557 154.416 90.8956 154.466 90.5555 154.517C90.2855 154.557 90.0054 154.587 89.7254 154.617C89.6153 154.637 89.4953 154.667 89.3653 154.677C88.9852 154.727 88.5851 154.777 88.2051 154.828C88.005 154.858 87.795 154.878 87.5949 154.918C87.3849 154.948 87.1748 154.958 86.9748 154.998C86.8748 155.028 86.7747 155.028 86.6647 155.038C86.3147 155.078 85.9546 155.129 85.6045 155.179C85.5645 155.179 85.5145 155.189 85.4745 155.199C85.3444 155.219 85.2044 155.239 85.0744 155.259L84.7043 155.309C84.6043 155.319 84.5643 155.379 84.5643 155.48C84.5643 155.53 84.5643 155.56 84.5843 155.6C84.6043 155.751 84.6343 155.881 84.6543 156.022C84.6843 156.212 84.7143 156.413 84.7443 156.613C84.8844 157.547 85.0244 158.49 85.1644 159.433C85.2144 159.774 85.2644 160.115 85.3144 160.466C85.3745 160.867 85.4245 161.269 85.4845 161.67C85.5345 161.991 85.5845 162.332 85.6145 162.663C85.6345 162.784 85.6445 162.904 85.6545 163.024V163.095C85.6845 163.145 85.7245 163.175 85.7745 163.165H85.8446C86.0946 163.125 86.3347 163.085 86.5747 163.055C87.1548 162.954 87.755 162.874 88.3351 162.774C88.4451 162.754 88.5751 162.754 88.6952 162.734C88.9052 162.703 89.1352 162.663 89.3453 162.623L89.3253 162.643ZM101.968 156.654C101.918 156.373 101.888 156.092 101.848 155.811C101.798 155.47 101.748 155.149 101.708 154.818C101.618 154.256 101.548 153.684 101.468 153.122C101.468 153.092 101.468 153.062 101.448 153.032C101.408 152.901 101.348 152.881 101.248 152.901C101.108 152.931 100.948 152.951 100.798 152.972C100.218 153.072 99.6475 153.152 99.0573 153.232C98.9473 153.252 98.8273 153.252 98.7273 153.283C98.6473 153.293 98.6172 153.333 98.6273 153.403V153.483C98.6773 153.754 98.7173 154.025 98.7573 154.286C98.8273 154.888 98.9473 155.47 99.0073 156.062C99.0073 156.082 99.0273 156.102 99.0273 156.122C99.0573 156.323 99.0873 156.513 99.1274 156.704C99.1274 156.764 99.1274 156.804 99.1374 156.864C99.1574 156.985 99.1774 157.115 99.1974 157.236C99.1974 157.256 99.1974 157.286 99.1974 157.306C99.1974 157.396 99.1974 157.486 99.1974 157.577C99.1674 157.948 99.0073 158.239 98.7173 158.46C98.5772 158.57 98.3972 158.65 98.2172 158.69C98.1171 158.72 98.0071 158.73 97.9071 158.75C97.8271 158.76 97.7371 158.75 97.657 158.75C97.487 158.75 97.317 158.72 97.1669 158.67C97.0369 158.62 96.9069 158.56 96.7969 158.48C96.6568 158.409 96.5468 158.319 96.4968 158.169C96.4968 158.148 96.4768 158.128 96.4668 158.108C96.4168 157.988 96.3768 157.858 96.3568 157.717C96.2868 157.246 96.2067 156.764 96.1367 156.292C96.0567 155.741 95.9767 155.179 95.8967 154.627C95.8667 154.416 95.8467 154.196 95.8067 153.985C95.7766 153.774 95.7466 153.744 95.5466 153.784C95.1965 153.834 94.8365 153.854 94.4864 153.925C94.4264 153.925 94.3764 153.945 94.3163 153.945C94.2263 153.955 94.1263 153.975 94.0363 153.985C93.7362 154.015 93.4262 154.065 93.1261 154.105C93.0361 154.115 92.9361 154.135 92.846 154.175C92.826 154.246 92.846 154.306 92.846 154.356C92.916 154.878 92.9961 155.379 93.0661 155.901C93.1961 156.694 93.3161 157.506 93.4462 158.319C93.4962 158.68 93.5562 159.041 93.6862 159.373C93.7762 159.613 93.8562 159.844 93.9963 160.055C94.0663 160.145 94.1263 160.255 94.2063 160.346C94.2763 160.436 94.3664 160.506 94.4564 160.586C94.6764 160.787 94.9365 160.918 95.2065 161.048C95.2365 161.068 95.2565 161.078 95.2865 161.078C95.4066 161.128 95.5266 161.168 95.6666 161.219C95.9367 161.319 96.2067 161.419 96.4968 161.419C96.6168 161.419 96.7268 161.439 96.8469 161.449C96.9969 161.449 97.1469 161.449 97.287 161.469C97.327 161.469 97.347 161.469 97.367 161.459C97.427 161.459 97.467 161.459 97.517 161.449C97.677 161.449 97.8271 161.459 97.9771 161.419C97.9971 161.419 98.0071 161.419 98.0371 161.419C98.2772 161.429 98.5072 161.359 98.7573 161.319C98.9873 161.279 99.2274 161.198 99.4774 161.128C99.6875 161.058 99.8675 160.948 100.058 160.847C100.158 160.797 100.248 160.747 100.338 160.707C100.508 160.607 100.678 160.496 100.818 160.376C100.938 160.265 101.048 160.155 101.148 160.015C101.208 159.924 101.258 159.824 101.338 159.744C101.448 159.623 101.528 159.483 101.628 159.342C101.798 159.082 101.888 158.761 101.958 158.46C102.008 158.189 102.038 157.898 102.028 157.607C102.028 157.296 102.028 156.975 101.968 156.664V156.654ZM110.17 153.022V153.002C110.17 153.002 110.16 152.941 110.14 152.911V152.831C110.14 152.831 110.12 152.761 110.11 152.731V152.63C110.11 152.63 110.09 152.6 110.1 152.57C110.08 152.339 110.06 152.109 110 151.858C109.97 151.717 109.84 151.697 109.72 151.717C109.67 151.717 109.63 151.727 109.6 151.737C109.56 151.737 109.5 151.748 109.45 151.758C109.38 151.758 109.3 151.778 109.239 151.788C109.139 151.818 109.029 151.828 108.929 151.848C108.819 151.868 108.719 151.878 108.609 151.898C108.459 151.918 108.309 151.948 108.149 151.978H108.079C108.009 151.998 107.929 152.018 107.869 152.028C107.789 152.038 107.669 152.089 107.669 152.209V152.229C107.669 152.229 107.669 152.309 107.669 152.36V152.43C107.669 152.43 107.679 152.44 107.689 152.43C107.689 152.44 107.689 152.45 107.689 152.48C107.699 152.5 107.709 152.52 107.709 152.54C107.709 152.59 107.719 152.64 107.729 152.691C107.729 152.721 107.739 152.771 107.749 152.801C107.769 152.931 107.769 152.951 107.769 152.962C107.769 152.972 107.769 152.982 107.789 153.142C107.799 153.222 107.819 153.313 107.829 153.393C107.839 153.463 107.849 153.543 107.859 153.604C107.889 153.794 107.919 153.995 107.929 154.185C107.939 154.276 107.959 154.366 107.969 154.456V154.476C107.989 154.587 108.009 154.707 108.019 154.818C108.019 154.838 108.019 154.858 108.019 154.878L108.039 154.988L108.069 155.249C108.099 155.49 108.139 155.721 108.169 155.961L108.209 156.232L108.249 156.493C108.269 156.654 108.289 156.794 108.309 156.945C108.309 156.955 108.309 156.975 108.309 157.005C108.339 157.085 108.429 157.125 108.559 157.115C108.619 157.115 108.669 157.115 108.729 157.105C108.809 157.095 108.889 157.085 108.969 157.075L109.239 157.035C109.46 157.005 109.69 156.975 109.91 156.935C110.03 156.935 110.16 156.914 110.28 156.894H110.31C110.31 156.894 110.36 156.884 110.38 156.884C110.55 156.844 110.64 156.764 110.65 156.664C110.65 156.623 110.65 156.603 110.65 156.573C110.64 156.473 110.62 156.383 110.61 156.292C110.6 156.202 110.58 156.112 110.57 156.032C110.55 155.861 110.52 155.68 110.5 155.51C110.47 155.239 110.43 154.968 110.39 154.687L110.33 154.246C110.31 154.115 110.29 153.975 110.27 153.844C110.24 153.614 110.21 153.393 110.17 153.182C110.18 153.172 110.17 153.162 110.17 153.132C110.17 153.112 110.17 153.092 110.16 153.062V153.042L110.17 153.022ZM110.96 159.112C110.9 158.69 110.83 158.269 110.77 157.837C110.77 157.837 110.76 157.747 110.75 157.707C110.71 157.587 110.62 157.506 110.49 157.516C110.48 157.516 110.45 157.516 110.43 157.516C110.35 157.516 110.28 157.516 110.2 157.536C110.01 157.567 108.939 157.707 108.939 157.707C108.919 157.707 108.909 157.707 108.879 157.707C108.849 157.707 108.809 157.707 108.769 157.727C108.599 157.747 108.529 157.837 108.549 158.018C108.549 158.058 108.559 158.118 108.569 158.169V158.189L108.679 158.961L108.779 159.563C108.799 159.724 108.959 159.834 109.109 159.814L110.58 159.603H110.62C110.62 159.603 110.7 159.583 110.73 159.583C110.9 159.543 110.97 159.453 110.96 159.272C110.96 159.232 110.95 159.172 110.94 159.122V159.102L110.96 159.112Z" fill="#E42C2C"/>
<path d="M259.173 81.9951C274.486 84.1475 288.638 73.4298 290.784 58.0693C292.93 42.7087 282.245 28.5045 266.932 26.3609C251.618 24.2085 237.458 34.9262 235.321 50.2867C233.175 65.6473 243.86 79.8516 259.173 81.9951Z" fill="#F8EDD3"/>
<path d="M259.598 78.9536C273.236 80.8659 285.845 71.3312 287.751 57.6428C289.657 43.9632 280.152 31.3155 266.506 29.4032C252.868 27.4909 240.259 37.0257 238.353 50.7141C236.446 64.3936 245.952 77.0413 259.598 78.9536Z" fill="#F8EDD3" stroke="#007F05" stroke-width="2.06" stroke-miterlimit="10"/>
<path d="M260.92 70.6458C269.822 71.8911 278.051 65.665 279.292 56.7351C280.534 47.8052 274.327 39.5512 265.424 38.306C256.522 37.0608 248.293 43.2868 247.052 52.2167C245.81 61.1467 252.017 69.4006 260.92 70.6458Z" fill="#0085CD"/>
<path d="M254.882 40.4323C257.267 39.4539 256.256 44.5148 255.99 45.7689C255.724 47.023 256.522 48.9798 253.72 48.7663C250.918 48.5618 250.67 51.0077 250.67 51.0077C250.67 51.0077 250.244 53.8806 246.901 54.2008C246.653 49.5224 250.439 42.2379 254.89 40.4234L254.882 40.4323Z" fill="#007B00"/>
<path d="M246.91 55.1872C246.91 55.1872 252.159 54.1821 251.592 58.2468L251.024 62.3116C251.024 62.3116 253.667 62.4983 254.057 64.3039C254.447 66.1095 255.618 68.9379 255.618 68.9379C255.618 68.9379 247.478 65.3001 246.91 55.1783V55.1872Z" fill="#007B00"/>
<path d="M259.35 38.608C259.35 38.608 257.763 40.9473 260.61 41.0273C263.447 41.1073 264.937 40.9472 265.841 41.7566C266.737 42.5749 271.915 40.7071 271.915 40.7071C271.915 40.7071 266.896 37.1049 259.359 38.608H259.35Z" fill="#007B00"/>
<path d="M257.223 69.6763C257.223 69.6763 259.014 68.271 260.415 68.7691C261.816 69.2672 263.137 70.3256 263.749 69.2405C264.361 68.1554 269.371 68.3244 269.69 68.8047C269.69 68.8047 270.94 67.7196 271.658 68.4045C270.967 69.1249 263.713 72.5225 257.223 69.6763Z" fill="#007B00"/>
<path d="M262.214 50.3219C263.881 50.7133 260.556 50.9623 260.627 52.3676C260.698 53.773 261.744 52.4388 261.735 53.7463C261.735 55.0537 261.469 54.4045 261.735 55.0537C261.993 55.703 262.684 56.4146 263.234 55.872C263.784 55.3384 264.511 53.8619 264.564 53.4794C264.617 53.097 265.282 52.0563 265.531 52.1809C265.77 52.3054 267.481 52.5455 267.472 53.2393C267.464 53.9331 269.938 54.8936 269.938 54.8936C269.938 54.8936 268.67 54.6268 268.687 55.7653C268.705 56.9038 269.991 60.1324 271.755 59.9456C273.52 59.7589 275.666 58.1401 275.754 57.4552C275.852 56.7703 275.825 55.7208 276.162 54.5468C276.499 53.3727 277.9 53.9153 277.758 54.947C277.616 55.9788 277.785 60.1769 278.397 60.2658C279.017 58.7182 280.09 53.0881 278.37 48.6142C276.659 44.1404 275.462 44.674 274.974 44.6918C274.486 44.7096 272.544 43.3221 271.808 44.594C271.055 45.8837 269.778 44.8341 269.751 45.6168C269.725 46.3995 269.618 47.1733 270.301 47.2623C270.984 47.3601 269.973 48.3474 268.865 48.1962C267.756 48.045 264.954 47.5558 264.839 48.3296C264.733 49.1034 261.993 46.275 261.815 47.5558C261.638 48.8366 261.283 50.0996 262.214 50.3131V50.3219Z" fill="#007B00"/>
<path d="M261.877 43.2959C260.893 44.2031 258.987 44.8079 260.095 44.968C261.203 45.1192 262.914 47.2005 263.207 45.7507C263.499 44.3099 261.886 43.2959 261.886 43.2959H261.877Z" fill="#007B00"/>
<path d="M260.538 56.1304C258.428 55.908 256.353 56.3172 256.468 57.2867C256.584 58.265 254.784 62.2942 257.258 62.73C259.731 63.1569 259.439 66.4834 260.627 66.7147C261.815 66.9459 264.537 65.4962 264.857 63.1836C265.176 60.8711 267.002 59.03 265.424 59.1189C263.846 59.2079 262.675 56.3706 260.529 56.1393L260.538 56.1304Z" fill="#007B00"/>
<path d="M268.173 61.8946C266.737 62.4638 266.887 63.6379 267.898 63.8603C268.909 64.0915 270.105 61.1208 268.173 61.8946Z" fill="#007B00"/>
<path d="M259.59 59.7949C259.182 62.739 262.197 63.1659 262.197 63.1659C262.197 63.1659 264.981 63.5572 265.398 60.6132" stroke="#442009" stroke-width="1.77" stroke-miterlimit="10"/>
<path d="M280.871 48.6773C280.631 48.6329 280.374 48.7218 280.144 48.9086C280.241 47.1386 279.7 45.6977 278.814 45.5732C277.927 45.4487 277.022 46.6672 276.632 48.3838C276.357 48.197 276.065 48.0992 275.763 48.1259C274.699 48.2148 273.963 49.7802 274.123 51.6125C274.167 52.1283 274.282 52.6086 274.442 53.0356C274.859 54.2986 275.994 55.2947 277.439 55.4993C278.982 55.7128 280.427 54.9745 281.137 53.7382C281.438 53.2579 281.669 52.6264 281.802 51.906C282.085 50.2694 281.678 48.8285 280.888 48.6862L280.871 48.6773Z" fill="#ED0000"/>
<path d="M279.71 50.6516C279.55 50.625 279.39 50.6783 279.231 50.8029C279.293 49.6466 278.938 48.7038 278.362 48.6237C277.786 48.5437 277.191 49.3353 276.934 50.456C276.757 50.3315 276.562 50.2692 276.367 50.287C275.675 50.3492 275.196 51.3721 275.294 52.5639C275.32 52.9019 275.4 53.2132 275.498 53.4889C275.773 54.3161 276.509 54.9654 277.457 55.0988C278.468 55.2411 279.408 54.7519 279.869 53.9514C280.064 53.6401 280.215 53.2221 280.304 52.7507C280.49 51.6834 280.224 50.7406 279.71 50.6516Z" fill="#FFB200"/>
<path d="M266.284 57.4021C266.754 54.0222 263.287 53.5331 263.287 53.5331C263.287 53.5331 260.086 53.0883 259.616 56.4593" stroke="#442009" stroke-width="2.03" stroke-miterlimit="10"/>
<path d="M246.405 51.7551C246.405 51.7551 246.405 51.8174 246.405 51.8441C246.068 55.9355 249.029 59.7333 253.073 60.3826C257.48 61.0853 261.585 58.0256 262.197 53.614V53.5784C262.436 51.8085 261.115 50.1986 259.35 49.9496L250.395 48.6955C248.444 48.4197 246.6 49.7895 246.413 51.7551H246.405Z" fill="#442009"/>
<path d="M264.547 54.3078C264.547 54.3078 264.538 54.3701 264.547 54.3968C264.21 58.4882 267.171 62.2861 271.215 62.9354C275.622 63.638 279.727 60.5784 280.339 56.1668V56.1312C280.578 54.3612 279.257 52.7513 277.493 52.5023L268.537 51.2482C266.586 50.9725 264.742 52.3422 264.555 54.3078H264.547Z" fill="#442009"/>
<path d="M254.296 41.4281C254.056 41.3837 253.808 41.4726 253.569 41.6594C253.666 39.8983 253.125 38.4663 252.239 38.3418C251.361 38.2173 250.456 39.4269 250.066 41.1346C249.791 40.9479 249.499 40.85 249.197 40.8767C248.142 40.9745 247.406 42.5222 247.566 44.3455C247.61 44.8614 247.725 45.3328 247.885 45.7597C248.302 47.0227 249.428 48.01 250.864 48.2145C252.398 48.428 253.835 47.6898 254.535 46.4623C254.828 45.9909 255.067 45.3506 255.191 44.639C255.475 43.0113 255.067 41.5794 254.287 41.437L254.296 41.4281Z" fill="#ED0000"/>
<path d="M253.143 43.384C252.984 43.3573 252.824 43.4106 252.673 43.5352C252.735 42.3878 252.381 41.445 251.804 41.3649C251.228 41.2849 250.643 42.0765 250.386 43.1883C250.208 43.0638 250.013 43.0015 249.818 43.0193C249.126 43.0816 248.656 44.0955 248.754 45.2874C248.781 45.6253 248.86 45.9366 248.958 46.2124C249.233 47.0306 249.96 47.6799 250.909 47.8133C251.911 47.9557 252.851 47.4665 253.312 46.666C253.507 46.3547 253.657 45.9366 253.737 45.4741C253.924 44.4068 253.657 43.4729 253.143 43.384Z" fill="#FFB200"/>
<path d="M273.751 72.4335C275.826 72.727 277.75 71.2683 278.033 69.1871C278.326 67.1058 276.881 65.1757 274.797 64.8911C272.722 64.5976 270.798 66.0562 270.514 68.1375C270.222 70.2188 271.667 72.1489 273.751 72.4335Z" fill="#0085CD"/>
<path d="M282.635 63.1391C283.158 62.5877 283.141 61.716 282.582 61.1913C282.032 60.6665 281.163 60.6843 280.64 61.2357L274.504 67.7019C273.981 68.2534 273.999 69.125 274.557 69.6498C275.107 70.1745 275.976 70.1568 276.499 69.6053L282.635 63.1391Z" fill="#0085CD"/>
<path d="M277.057 58.79C277.163 58.034 276.64 57.3402 275.886 57.2335C275.133 57.1268 274.441 57.6515 274.335 58.4076L273.085 67.2485C272.979 68.0046 273.502 68.6983 274.255 68.8051C275.009 68.9118 275.7 68.387 275.807 67.631L277.057 58.79Z" fill="#0085CD"/>
<path d="M277.571 69.6224C277.571 69.6224 275.319 65.2375 274.096 67.1765C272.873 69.1243 274.637 71.1345 274.637 71.1345" stroke="#0075A8" stroke-width="1.03" stroke-miterlimit="10" stroke-linecap="round"/>
<defs>
<filter id="filter0_d_877_6387" x="0" y="0" width="335" height="152" filterUnits="userSpaceOnUse" color-interpolation-filters="sRGB">
<feFlood flood-opacity="0" result="BackgroundImageFix"/>
<feColorMatrix in="SourceAlpha" type="matrix" values="0 0 0 0 0 0 0 0 0 0 0 0 0 0 0 0 0 0 127 0" result="hardAlpha"/>
<feOffset dy="6"/>
<feComposite in2="hardAlpha" operator="out"/>
<feColorMatrix type="matrix" values="0 0 0 0 0.807843 0 0 0 0 0.882353 0 0 0 0 0.811765 0 0 0 1 0"/>
<feBlend mode="normal" in2="BackgroundImageFix" result="effect1_dropShadow_877_6387"/>
<feBlend mode="normal" in="SourceGraphic" in2="effect1_dropShadow_877_6387" result="shape"/>
</filter>
</defs>
</svg>
