<svg width="377" height="201" viewBox="0 0 377 201" fill="none" xmlns="http://www.w3.org/2000/svg">
<g filter="url(#filter0_d_1253_16933)">
<path d="M16.0379 158.667C6.86812 159.206 0.187954 158.61 0.187954 148.468C0.199219 142.358 -0.262647 35.0084 0.221749 24.4171C1.21307 2.68431 21.8619 0 41.5419 0C61.2219 0 89.2155 10.872 89.2155 10.872L259.982 15.8813C287.852 15.7128 314.888 34.2559 317.479 68.0288C317.851 73.0156 323.348 86.0778 334.365 88.1331C341.969 89.5483 372.002 84.876 374.424 108.361C376.846 131.846 379.797 155.466 360.218 160.014C340.64 164.563 184.056 163.912 184.056 163.912" fill="white"/>
</g>
<path d="M71.1929 48.2185V48.1284L51.5379 48.1735V53.3558C54.6266 53.5361 55.9856 54.5275 56.2664 56.9834C56.1765 59.7999 55.5588 65.4329 50.9427 66.4468C42.4293 68.3733 35.623 60.397 35.5893 43.9487C35.5781 36.592 37.8019 18.5102 47.6743 18.8482C53.2002 19.0172 53.5708 25.4725 53.5708 25.4725C46.7197 42.3828 78.6056 43.2277 71.3164 23.6137C71.3164 23.6137 66.3971 9.36223 43.9343 10.6803C17.1249 12.2801 12.6548 35.9161 12.666 43.3629C12.6997 60.8927 21.7073 75.054 46.2479 74.6259C66.5319 74.3105 72.5856 66.8411 71.3726 48.2185H71.1929ZM111.48 35.1387C111.368 27.4216 99.7768 24.0868 93.0043 33.4488L91.7351 34.812V28.8185L73.7873 28.8636V34.0459C76.9658 34.2149 78.3248 35.3077 78.5158 37.8538L78.5719 65.2864C78.3922 67.8326 77.0445 68.9254 73.866 69.1169V74.2992H78.5832L83.1993 74.2767H88.9048L93.5209 74.2542H98.2269V69.0605C95.0484 68.8916 93.6782 67.7988 93.4985 65.2526L93.4648 51.2603V51.0801L93.4423 42.18L96.969 39.0818C102.326 45.4246 111.559 43.0474 111.446 35.1387H111.48ZM140.154 68.3283C134.358 67.6185 130.27 63.9909 130.248 52.0827V51.8124L158.955 51.7448C158.921 35.9386 151.205 27.7821 136.256 27.8159C116.961 27.8609 113.749 45.8527 113.76 51.6659C113.794 64.295 120.151 74.1866 137.907 75.054C150.678 75.6624 157.63 64.9259 158.528 63.1008L155.709 59.6535C155.619 59.7436 148.577 69.3873 140.154 68.317V68.3283ZM141.165 36.8061C143.523 38.3495 143.175 44.7035 143.175 44.7035L131.034 44.7261C132.741 37.6398 136.986 34.0797 141.165 36.7948V36.8061ZM187.64 68.2269C181.845 67.5171 177.756 63.8895 177.734 51.9813V51.711L206.441 51.6434C206.408 35.8372 198.692 27.6807 183.743 27.7145C164.447 27.7595 161.235 45.7513 161.246 51.5645C161.28 64.1936 167.637 74.0852 185.394 74.9526C198.164 75.561 205.116 64.8245 206.015 62.9995L203.196 59.5521C203.106 59.6422 196.064 69.2859 187.64 68.2156V68.2269ZM188.651 36.7047C191.01 38.2481 190.661 44.6021 190.661 44.6021L178.52 44.6247C180.227 37.5384 184.473 33.9783 188.651 36.6934V36.7047ZM255.781 64.9034L255.725 42.5517C255.702 32.8292 251.165 28.6608 243.281 28.5031C236.486 28.3341 231.959 30.9816 228.803 33.7192V28.5369L209.137 28.582V33.7643C212.316 33.9333 213.675 35.0261 213.865 37.5722L213.922 65.0048C213.742 67.5509 212.394 68.6437 209.227 68.8352V74.0176H213.944L218.56 73.995H224.266L228.882 73.9725H233.588V68.7789C230.409 68.6099 229.05 67.5171 228.859 64.971L228.826 50.9787V50.7984L228.803 41.9884C234.228 37.1666 240.753 40.783 240.765 46.6863L240.81 64.9485C240.63 67.4946 239.282 68.5874 236.104 68.7789V73.9612L260.476 73.9049V68.7226C257.297 68.5536 255.927 67.4608 255.747 64.9147L255.781 64.9034ZM59.1641 133.231C56.4573 135.597 53.29 138.786 50.9314 139.878C49.7521 140.43 42.1485 140.352 36.3531 140.363L36.252 94.116C36.4317 91.5699 37.7795 90.4771 40.958 90.2856V85.1033L12.3291 85.1709V90.3532C15.5076 90.5335 16.8666 91.615 17.0575 94.1611L17.1586 139.766C16.9789 142.312 15.6311 143.405 12.4526 143.596V148.778H17.1698L32.1188 148.733C32.6579 148.733 33.2083 148.733 33.6575 148.733H36.3755L58.7485 148.677L63.5219 135.406L59.1641 133.231ZM115.669 138.56C107.257 142.571 110.379 124.038 109.458 117.313C108.257 108.413 103.899 101.788 89.5899 101.281C75.9101 100.763 67.0485 104.053 68.4187 113.234C69.4296 119.96 82.1997 119.014 82.6377 113.11C83.3565 108.289 93.6782 106.723 93.5209 117.628V118.991C85.6365 116.468 64.9033 117.966 66.296 136.679C67.3181 148.936 82.3681 155.087 94.8462 144.88C96.9465 150.142 101.473 150.682 107.358 148.846C111.064 147.652 113.782 145.466 116.489 143.1L115.669 138.56ZM87.7705 139.439C84.7829 139.169 81.5146 136.634 81.5033 132.364C81.4809 124.647 88.186 122.54 93.5322 125.075L93.5546 137.152V137.794C92.2855 138.707 90.2975 139.709 87.7592 139.439H87.7705ZM146.499 111.229L146.477 103.05H140.322L140.289 86.7143L132.584 86.7368C132.606 97.1804 125.474 104.92 118.679 104.943V111.297H125.396L125.463 139.54C125.283 142.086 123.936 143.179 120.757 143.371V148.553H125.474L130.09 148.531C131.989 148.531 133.898 148.531 135.796 148.519H140.412L145.118 148.497V143.314C141.94 143.145 140.581 142.053 140.39 139.507L140.322 111.342L146.477 111.24L146.499 111.229ZM160.685 101.112C165.121 101.112 168.828 97.3719 168.816 92.8317C168.816 88.3817 165.087 84.6639 160.651 84.6752C156.125 84.6752 152.418 88.4155 152.43 92.8655C152.43 97.4057 156.158 101.123 160.696 101.112H160.685ZM168.917 139.428L168.884 125.435V125.255L168.839 102.994L149.184 103.039V108.221C152.362 108.401 153.732 109.483 153.912 112.029L153.968 139.462C153.789 142.008 152.441 143.1 149.262 143.292V148.474H153.98L158.596 148.452C160.494 148.452 162.403 148.452 164.301 148.44H168.917L173.623 148.418V143.236C170.445 143.067 169.086 141.974 168.895 139.428H168.917ZM204.072 111.094L204.049 102.915H197.894L197.861 86.5791L190.167 86.6016C190.19 97.0452 183.058 104.785 176.263 104.807V111.161H182.979L183.046 139.405C182.867 141.951 181.519 143.044 178.352 143.236V148.418H183.069L187.685 148.395C189.583 148.395 191.492 148.395 193.391 148.384H198.007L202.713 148.362V143.179C199.534 143.01 198.175 141.917 197.984 139.371L197.917 111.206L204.072 111.105V111.094ZM252.94 139.146L252.861 102.712H248.245L233.206 102.757V107.939C236.384 108.108 237.743 109.201 237.934 111.747L237.968 125.74V125.92L237.991 134.73C232.566 139.552 226.04 135.935 226.029 130.032L225.973 102.78L206.318 102.825V108.007C209.496 108.176 210.855 109.269 211.046 111.815L211.091 134.167C211.114 143.889 215.651 148.057 223.536 148.215C230.331 148.384 234.846 145.737 238.013 143.01V148.193L257.679 148.148V142.965C254.501 142.796 253.142 141.703 252.951 139.157L252.94 139.146ZM308.086 139.022L307.985 93.4175C307.962 85.4187 307.962 84.5174 307.962 84.4273L293.013 84.4611H288.307V89.6547C291.486 89.8237 292.845 90.9165 293.036 93.4626L293.069 105.911C280.277 97.8563 260.274 100.628 260.33 126.247C260.386 149.781 283.028 153.183 293.159 144.892V148.069L312.825 148.024V142.841C309.647 142.672 308.288 141.58 308.097 139.033L308.086 139.022ZM277.345 124.917C278.03 107.016 288.352 106.813 293.081 111.623L293.137 137.603C288.352 143.788 276.75 141.456 277.345 124.917ZM341.454 142.222C335.659 141.512 331.571 137.884 331.548 125.976V125.706L360.256 125.638C360.222 109.832 352.506 101.675 337.557 101.709C318.261 101.754 315.049 119.746 315.06 125.559C315.094 138.188 321.451 148.08 339.208 148.947C351.978 149.556 358.93 138.819 359.829 136.994L357.01 133.547C356.92 133.637 349.878 143.281 341.454 142.21V142.222ZM342.465 110.688C344.824 112.232 344.475 118.586 344.475 118.586L332.334 118.608C334.041 111.522 338.287 107.962 342.465 110.677V110.688Z" fill="#222222"/>
<path d="M162.773 174.048C162.425 178.858 159.572 182.801 155.607 183.376L33.9263 200.917C28.6475 201.762 24.5368 196.028 23.5597 189.201C23.043 185.573 22.0434 178.599 21.538 175.051C20.4823 167.683 24.3347 160.979 30.0851 160.157L157.045 141.861C162.807 141.027 168.377 146.379 169.433 153.747L170.242 159.391C171.23 166.286 167.917 172.595 162.784 174.048H162.773Z" fill="#FFE1E7"/>
<path d="M48.0667 170.612C47.3142 170.69 46.6628 171.164 46.1125 171.907C44.9107 166.612 42.0804 162.861 39.3736 163.244C36.6668 163.638 35.0271 167.975 35.3303 173.349C34.3644 173.023 33.421 172.989 32.5562 173.315C29.5124 174.498 28.6813 179.715 30.703 184.953C31.2645 186.429 32.0058 187.747 32.8369 188.851C35.1394 192.208 39.3062 194.169 43.7314 193.538C48.4374 192.862 52.0426 189.448 53.0872 185.212C53.5477 183.567 53.7049 181.483 53.469 179.264C52.9187 174.205 50.5039 170.33 48.0667 170.6V170.612Z" fill="#E42C2C"/>
<path d="M46.3255 177.395C45.8313 177.451 45.4045 177.755 45.0451 178.24C44.2589 174.781 42.4057 172.325 40.6424 172.584C38.8678 172.843 37.8008 175.682 38.003 179.186C37.374 178.972 36.7451 178.949 36.1835 179.163C34.1955 179.93 33.6452 183.343 34.9705 186.768C35.3411 187.737 35.8241 188.593 36.3632 189.314C37.8682 191.511 40.5862 192.795 43.4839 192.378C46.5613 191.939 48.9199 189.708 49.5938 186.948C49.897 185.867 50.0094 184.515 49.8409 183.062C49.4815 179.761 47.8979 177.226 46.3142 177.395H46.3255Z" fill="#FFC700"/>
<path d="M69.4513 169.271C69.4513 169.271 69.5299 169.271 69.5636 169.26L70.1701 169.17C70.1701 169.17 70.2712 169.148 70.3161 169.125C70.3722 169.091 70.4059 169.024 70.3835 168.945C70.3385 168.81 70.2936 168.663 70.2487 168.517C70.1476 168.246 70.0128 168.01 69.8781 167.762C69.8444 167.717 69.8107 167.649 69.777 167.593C69.6871 167.48 69.5973 167.356 69.4962 167.244C69.4063 167.131 69.294 167.007 69.1705 166.894C69.1256 166.849 69.0694 166.815 69.0245 166.77C68.9683 166.737 68.9122 166.692 68.856 166.669C68.6763 166.556 68.4854 166.421 68.2832 166.365C68.227 166.342 68.1821 166.32 68.1372 166.297C67.9238 166.218 67.6992 166.128 67.4858 166.061C67.4184 166.027 67.3398 166.027 67.2611 166.016C67.0927 165.993 66.913 165.971 66.7333 165.948C66.6996 165.948 66.6547 165.948 66.6097 165.948C66.43 165.937 66.2503 165.925 66.0594 165.914C65.992 165.914 65.9134 165.903 65.8572 165.914C65.4978 165.925 65.1384 165.937 64.7902 166.016C64.5881 166.061 64.3971 166.061 64.195 166.106C63.9816 166.14 63.7906 166.173 63.5997 166.275C63.4537 166.342 63.2965 166.387 63.1392 166.421C62.7574 166.511 62.4092 166.703 62.061 166.894C61.9375 166.962 61.8364 167.041 61.7241 167.108C61.5781 167.221 61.432 167.334 61.286 167.435C61.185 167.514 61.1063 167.593 61.0277 167.683C60.9828 167.751 60.9266 167.818 60.8817 167.863C60.7694 167.976 60.6683 168.1 60.5672 168.201C60.5223 168.246 60.4886 168.303 60.4661 168.359C60.3763 168.573 60.2415 168.764 60.1629 169.001C60.0394 169.317 59.9495 169.643 59.8933 169.97C59.8709 170.105 59.8709 170.24 59.8484 170.376C59.826 170.59 59.8372 170.804 59.8484 171.018C59.9046 171.57 60.0281 172.099 60.2527 172.606C60.3089 172.764 60.3988 172.91 60.4549 173.057C60.5672 173.327 60.7357 173.541 60.9154 173.767C61.0839 173.947 61.2523 174.127 61.4545 174.285C61.6454 174.409 61.8027 174.578 62.0048 174.702C62.3979 174.916 62.7686 175.118 63.2066 175.209C63.2291 175.209 63.2628 175.209 63.274 175.22C63.5548 175.321 63.8468 175.355 64.1388 175.423C64.1613 175.423 64.195 175.423 64.2174 175.423C64.3971 175.423 64.5768 175.423 64.7678 175.423C65.0261 175.423 65.2732 175.389 65.5427 175.378C65.6775 175.378 65.8348 175.378 65.9695 175.321C66.0032 175.299 66.0482 175.321 66.0818 175.31C66.2952 175.265 66.5086 175.242 66.722 175.175C66.913 175.118 67.0927 175.107 67.2836 175.051C67.5532 174.972 67.8227 174.882 68.0923 174.792C68.1035 174.792 68.126 174.769 68.1484 174.769C68.272 174.713 68.3843 174.657 68.5078 174.578C68.5977 174.51 68.71 174.465 68.7886 174.409C68.9459 174.307 69.0919 174.195 69.2491 174.082C69.2828 174.059 69.3165 174.037 69.339 174.003C69.4737 173.868 69.6085 173.733 69.732 173.586C69.8556 173.451 69.9679 173.316 70.069 173.181C70.1813 173.012 70.2936 172.843 70.361 172.651C70.3722 172.584 70.4059 172.516 70.4396 172.448C70.5519 172.178 70.6755 171.908 70.7092 171.626C70.7316 171.502 70.7541 171.401 70.7766 171.299C70.8215 171.074 70.799 170.86 70.8103 170.635V170.59C70.7766 170.533 70.7653 170.511 70.698 170.499C70.6306 170.499 70.5744 170.499 70.507 170.511C70.2712 170.545 70.0353 170.59 69.7882 170.612C69.485 170.657 69.1817 170.714 68.9009 170.759C68.7662 170.781 68.6201 170.804 68.4966 170.815C68.272 170.849 68.0586 170.882 67.8452 170.894C67.7104 170.916 67.5756 170.928 67.4408 170.95C67.3622 170.95 67.3173 171.006 67.3061 171.074C67.3061 171.108 67.3061 171.142 67.2948 171.164C67.2611 171.322 67.205 171.457 67.1264 171.592C67.0141 171.795 66.8568 171.941 66.6771 172.065C66.4188 172.257 66.1605 172.381 65.846 172.426C65.7 172.448 65.554 172.471 65.408 172.471C65.2844 172.494 65.1721 172.494 65.0373 172.482C64.8015 172.448 64.5656 172.415 64.3634 172.279C64.3522 172.279 64.3297 172.257 64.3073 172.246C63.9254 172.077 63.6896 171.784 63.5211 171.401C63.42 171.153 63.3975 170.894 63.3751 170.635C63.3751 170.601 63.3751 170.567 63.3751 170.545C63.3975 170.398 63.4088 170.252 63.4425 170.116C63.5323 169.7 63.7794 169.395 64.1164 169.125C64.2399 169.024 64.3859 168.945 64.5431 168.877C64.7228 168.798 64.9138 168.731 65.1159 168.719C65.2507 168.719 65.3967 168.719 65.5427 168.719C65.7786 168.686 65.992 168.787 66.2166 168.821C66.3851 168.911 66.5536 168.99 66.7108 169.102C66.8793 169.204 67.0141 169.339 67.1151 169.519C67.1488 169.587 67.205 169.621 67.2948 169.598C67.3173 169.598 67.3398 169.598 67.3847 169.587C67.7104 169.542 68.0473 169.485 68.3843 169.44C68.5415 169.44 68.6763 169.418 68.8335 169.407C69.0469 169.373 69.2603 169.328 69.485 169.283L69.4513 169.271ZM83.4681 172.167C83.3557 171.998 83.2322 171.84 83.1199 171.694C82.9402 171.423 82.7493 171.164 82.5583 170.905C82.4235 170.713 82.3 170.533 82.1652 170.342C82.0866 170.229 81.9855 170.105 81.9069 169.981C81.8283 169.869 81.7384 169.733 81.6598 169.621C81.4352 169.317 81.2106 169.012 80.9859 168.708C80.6265 168.201 80.2783 167.717 79.9189 167.21C79.8403 167.075 79.7392 166.951 79.6494 166.838C79.5371 166.658 79.4023 166.5 79.29 166.32C79.1215 166.094 78.9418 165.869 78.7846 165.633C78.6723 165.452 78.5599 165.295 78.4139 165.126C78.2792 164.979 78.1781 164.799 78.077 164.63C78.0433 164.574 78.0096 164.528 77.9871 164.472C77.9198 164.371 77.8411 164.326 77.7176 164.359C77.5603 164.393 77.3919 164.427 77.2346 164.45C76.4484 164.562 75.6735 164.675 74.8985 164.788C74.6514 164.821 74.3931 164.855 74.1348 164.9C74.0674 164.9 74 164.9 73.9326 164.957C73.9326 164.979 73.9101 165.002 73.9214 165.024C73.8427 165.306 73.7641 165.576 73.6967 165.847C73.6069 166.185 73.4946 166.511 73.4047 166.827C73.3486 166.996 73.3036 167.176 73.2475 167.356C73.2138 167.469 73.1576 167.57 73.1352 167.683C73.1127 167.886 73.0341 168.055 72.9667 168.246C72.8768 168.539 72.787 168.821 72.7084 169.125C72.6522 169.305 72.6185 169.463 72.5624 169.632C72.4725 169.936 72.3827 170.24 72.2816 170.533C72.2367 170.691 72.1917 170.871 72.1356 171.029C72.0682 171.243 72.0233 171.468 71.9334 171.694C71.7874 172.088 71.6639 172.494 71.5628 172.877C71.4729 173.226 71.2932 173.553 71.2483 173.902C71.2483 173.924 71.2146 173.958 71.2034 173.981C71.1921 174.059 71.1472 174.161 71.1921 174.251C71.2258 174.251 71.2708 174.251 71.2932 174.251C71.5066 174.217 71.72 174.195 71.9334 174.172C72.4501 174.093 72.9667 174.014 73.4833 173.936C73.7641 173.89 74.0337 173.857 74.3145 173.823C74.3931 173.823 74.4268 173.767 74.4492 173.699C74.4492 173.676 74.4492 173.654 74.4605 173.631C74.5616 173.226 74.6514 172.831 74.7637 172.437C74.8536 172.11 74.8648 172.156 75.1568 172.099H75.1681C75.8644 171.998 76.5383 171.896 77.2346 171.795C77.3694 171.773 77.5154 171.739 77.6502 171.727C77.8411 171.705 78.0321 171.694 78.2118 171.649C78.4252 171.604 78.6386 171.615 78.8407 171.57C78.9193 171.547 78.9755 171.57 79.0204 171.637C79.0429 171.671 79.0653 171.694 79.0878 171.727C79.2675 172.009 79.4585 172.302 79.6382 172.595C79.7168 172.696 79.7842 172.809 79.8628 172.91C79.8965 172.955 79.9526 172.978 80.0088 172.967C80.0312 172.967 80.0762 172.967 80.0986 172.967C80.3457 172.933 80.6041 172.888 80.8511 172.854C81.1769 172.798 81.5026 172.741 81.817 172.696C81.9406 172.674 82.0529 172.663 82.1652 172.651C82.5696 172.595 82.9739 172.539 83.367 172.482C83.4456 172.482 83.513 172.46 83.5691 172.358C83.5242 172.291 83.4793 172.201 83.4456 172.144L83.4681 172.167ZM75.797 169.44C75.651 169.463 75.6173 169.429 75.6622 169.283C75.7521 168.911 75.8532 168.528 75.9542 168.156C76.0104 167.976 76.0441 167.807 76.1003 167.638C76.1227 167.582 76.1227 167.548 76.1452 167.503C76.1901 167.424 76.2575 167.413 76.3249 167.48C76.3361 167.48 76.3586 167.514 76.3698 167.537C76.5607 167.807 76.7405 168.077 76.9089 168.37C76.9988 168.517 77.0999 168.663 77.2009 168.81C77.2346 168.866 77.2683 168.922 77.302 169.001L77.347 169.069C77.3694 169.159 77.3469 169.215 77.2571 169.238C77.1111 169.26 76.9651 169.283 76.8191 169.317C76.718 169.328 76.6057 169.35 76.5046 169.362C76.2687 169.384 76.0441 169.429 75.797 169.452V169.44ZM88.5896 163.661C88.7019 163.83 88.8142 163.988 88.9265 164.157C89.095 164.416 89.2073 164.619 89.3758 164.878C89.4207 164.945 89.4769 165.013 89.5218 165.103C89.6229 165.261 89.724 165.418 89.8363 165.576C89.9261 165.723 90.016 165.847 90.0946 165.971C90.308 166.286 90.5102 166.613 90.7235 166.928C90.8696 167.142 91.0156 167.368 91.1503 167.57C91.1953 167.627 91.2177 167.705 91.2627 167.751C91.3413 167.886 91.4424 168.01 91.521 168.134C91.5996 168.269 91.6894 168.404 91.7681 168.539C91.959 168.821 92.1499 169.102 92.3296 169.384C92.4307 169.542 92.5318 169.688 92.6217 169.846C92.7677 170.083 92.9137 170.308 93.0709 170.545C93.1832 170.714 93.3068 170.871 93.4303 171.051C93.464 171.097 93.5202 171.119 93.5651 171.108C93.5988 171.108 93.6325 171.108 93.6549 171.097C93.8683 171.063 94.0817 171.051 94.2839 171.018C94.4973 170.984 94.6995 170.961 94.9016 170.928C95.1038 170.894 95.2947 170.871 95.4857 170.86C95.9574 170.792 96.4291 170.736 96.9008 170.68C96.9794 170.68 97.0468 170.646 97.1255 170.635C97.2041 170.612 97.249 170.567 97.2715 170.499C97.395 170.116 97.5186 169.745 97.6646 169.373C97.6646 169.328 97.6758 169.305 97.687 169.283C97.833 168.9 97.9903 168.505 98.1363 168.111C98.1812 167.976 98.2374 167.841 98.2935 167.683C98.3721 167.435 98.462 167.187 98.5631 166.939C98.7765 166.354 99.0011 165.768 99.2145 165.193C99.2931 164.945 99.3942 164.709 99.4841 164.472C99.6301 164.067 99.7761 163.672 99.9445 163.255C100.034 163.008 100.124 162.748 100.225 162.501C100.293 162.32 100.36 162.151 100.416 161.971C100.495 161.78 100.562 161.577 100.641 161.385C100.675 161.318 100.686 161.25 100.697 161.183C100.708 161.115 100.686 161.081 100.618 161.092C100.562 161.092 100.506 161.092 100.45 161.092C100.012 161.16 99.5627 161.216 99.1359 161.284C98.8102 161.329 98.4845 161.363 98.1587 161.408C97.8443 161.453 97.5298 161.498 97.2153 161.543C97.1255 161.554 97.0805 161.599 97.0693 161.678C96.957 161.982 96.8447 162.287 96.7211 162.591C96.5751 162.985 96.4066 163.379 96.2606 163.762L96.0922 164.213C95.9798 164.495 95.8675 164.788 95.7552 165.069C95.6991 165.216 95.6317 165.373 95.5755 165.52C95.4632 165.79 95.3621 166.072 95.2386 166.342C95.115 166.658 94.9915 166.984 94.8567 167.3C94.823 167.413 94.7444 167.424 94.6658 167.322C94.6545 167.322 94.6433 167.289 94.6321 167.266C94.5647 167.153 94.4973 167.052 94.4187 166.939C94.1828 166.556 93.947 166.185 93.7111 165.802C93.61 165.621 93.5202 165.452 93.4079 165.295C93.1495 164.912 92.9137 164.506 92.6666 164.1C92.3296 163.56 92.0152 163.053 91.6894 162.501C91.6221 162.399 91.5547 162.365 91.4424 162.388C91.2402 162.422 91.0493 162.444 90.8471 162.467C90.7572 162.478 89.7464 162.625 89.4993 162.658C89.0501 162.726 88.6008 162.782 88.1516 162.85C88.1291 162.85 88.0842 162.85 88.0617 162.872C88.2302 163.143 88.3986 163.391 88.5447 163.638L88.5896 163.661ZM112.951 167.92C112.838 167.751 112.715 167.593 112.602 167.446C112.423 167.176 112.232 166.917 112.041 166.658C111.906 166.466 111.782 166.286 111.648 166.094C111.569 165.982 111.468 165.858 111.389 165.734C111.311 165.621 111.221 165.486 111.142 165.373C110.918 165.069 110.693 164.765 110.468 164.461C110.109 163.954 109.761 163.469 109.401 162.963C109.323 162.827 109.222 162.703 109.132 162.591C109.02 162.41 108.896 162.253 108.772 162.073C108.604 161.858 108.424 161.622 108.267 161.385C108.155 161.205 108.042 161.047 107.896 160.878C107.762 160.732 107.661 160.552 107.559 160.383C107.526 160.326 107.492 160.281 107.47 160.225C107.402 160.123 107.324 160.078 107.2 160.112C107.043 160.146 106.874 160.18 106.717 160.214C105.931 160.326 105.156 160.439 104.381 160.552C104.134 160.585 103.876 160.619 103.617 160.664C103.55 160.664 103.482 160.664 103.415 160.721C103.415 160.743 103.393 160.766 103.404 160.788C103.325 161.07 103.247 161.34 103.179 161.611C103.089 161.949 102.977 162.275 102.887 162.591C102.831 162.76 102.786 162.94 102.73 163.12C102.696 163.233 102.64 163.334 102.618 163.447C102.595 163.65 102.517 163.819 102.449 164.01C102.359 164.303 102.269 164.585 102.191 164.889C102.135 165.069 102.101 165.227 102.045 165.396C101.955 165.7 101.865 166.004 101.764 166.297C101.719 166.455 101.674 166.635 101.618 166.793C101.551 167.007 101.506 167.232 101.416 167.458C101.27 167.852 101.146 168.258 101.045 168.652C100.955 169.001 100.776 169.328 100.731 169.677C100.731 169.7 100.697 169.733 100.686 169.756C100.675 169.835 100.63 169.936 100.675 170.026C100.708 170.026 100.753 170.026 100.776 170.026C100.989 169.992 101.202 169.97 101.416 169.947C101.932 169.869 102.449 169.79 102.966 169.711C103.247 169.666 103.516 169.632 103.797 169.598C103.876 169.587 103.909 169.542 103.932 169.474C103.932 169.452 103.932 169.429 103.943 169.407C104.044 169.012 104.134 168.607 104.246 168.212C104.336 167.886 104.347 167.931 104.639 167.874H104.65C105.347 167.773 106.021 167.672 106.717 167.57C106.852 167.548 106.998 167.514 107.133 167.503C107.324 167.469 107.514 167.469 107.694 167.424C107.908 167.379 108.121 167.39 108.323 167.345C108.402 167.322 108.458 167.345 108.503 167.413C108.525 167.446 108.548 167.469 108.57 167.503C108.75 167.784 108.941 168.077 109.121 168.37C109.199 168.472 109.267 168.584 109.345 168.686C109.379 168.731 109.435 168.753 109.491 168.742C109.514 168.742 109.559 168.742 109.581 168.742C109.828 168.708 110.086 168.663 110.334 168.629C110.659 168.573 110.985 168.517 111.299 168.483C111.423 168.46 111.535 168.449 111.648 168.438C112.052 168.381 112.456 168.325 112.849 168.269C112.928 168.258 112.995 168.246 113.052 168.145C113.007 168.077 112.962 167.987 112.928 167.931L112.951 167.92ZM105.279 165.193C105.133 165.216 105.1 165.182 105.145 165.035C105.235 164.664 105.336 164.292 105.437 163.909C105.493 163.729 105.527 163.56 105.583 163.391C105.605 163.334 105.605 163.3 105.628 163.255C105.673 163.177 105.74 163.165 105.807 163.233C105.819 163.233 105.841 163.267 105.852 163.289C106.043 163.56 106.223 163.83 106.391 164.123C106.481 164.269 106.582 164.416 106.683 164.562C106.717 164.619 106.751 164.675 106.784 164.754L106.829 164.821C106.852 164.912 106.829 164.968 106.74 164.99C106.594 165.013 106.448 165.035 106.302 165.069C106.2 165.081 106.088 165.103 105.987 165.114C105.751 165.137 105.527 165.182 105.279 165.204V165.193ZM123.665 166.737C123.744 166.737 123.822 166.737 123.89 166.714C124.272 166.658 124.631 166.624 125.002 166.568C125.485 166.5 125.956 166.421 126.428 166.354C126.788 166.297 127.158 166.263 127.529 166.207C127.585 166.207 127.641 166.196 127.709 166.173C127.776 166.173 127.798 166.106 127.81 166.061C127.81 166.004 127.81 165.948 127.798 165.892C127.776 165.813 127.753 165.745 127.742 165.666C127.697 165.362 127.652 165.069 127.607 164.765C127.563 164.461 127.518 164.157 127.461 163.853C127.45 163.762 127.439 163.684 127.428 163.605C127.417 163.503 127.405 163.391 127.394 163.289C127.394 163.222 127.338 163.199 127.282 163.199C127.259 163.199 127.226 163.199 127.192 163.21C126.799 163.267 126.394 163.323 126.013 163.379C125.372 163.469 124.732 163.56 124.092 163.65C123.665 163.706 123.25 163.774 122.823 163.83C122.733 163.841 122.643 163.841 122.553 163.853C122.497 163.853 122.463 163.83 122.452 163.774C122.419 163.65 122.407 163.526 122.396 163.391C122.396 163.346 122.419 163.3 122.486 163.278H122.553C122.688 163.233 122.834 163.21 122.958 163.199C123.306 163.154 123.654 163.098 124.002 163.064C124.642 162.974 125.294 162.872 125.956 162.782C125.968 162.782 126.001 162.782 126.024 162.782C126.114 162.771 126.136 162.737 126.136 162.647V162.613C126.058 162.129 125.99 161.644 125.923 161.16C125.923 161.115 125.9 161.059 125.889 161.025C125.855 160.968 125.81 160.923 125.743 160.935C125.653 160.946 125.563 160.946 125.474 160.957C125.092 161.013 124.71 161.081 124.328 161.126C123.946 161.182 123.553 161.228 123.171 161.284C122.902 161.318 122.643 161.374 122.374 161.408C122.329 161.408 122.261 161.419 122.194 161.419C122.138 161.419 122.115 161.397 122.104 161.34C122.082 161.261 122.07 161.194 122.059 161.126C122.037 160.878 121.981 160.833 122.317 160.777C122.475 160.754 122.621 160.743 122.778 160.721C123.025 160.687 123.272 160.653 123.519 160.608C123.879 160.574 124.227 160.518 124.575 160.473C125.182 160.383 125.777 160.304 126.372 160.202C126.496 160.18 126.619 160.157 126.754 160.135C126.821 160.112 126.855 160.067 126.844 159.988C126.844 159.898 126.833 159.808 126.821 159.718C126.743 159.155 126.664 158.58 126.574 158.028C126.54 157.882 126.529 157.724 126.496 157.577C126.473 157.408 126.428 157.397 126.282 157.42C126.26 157.42 126.248 157.42 126.215 157.42C125.822 157.476 125.417 157.532 125.035 157.589C124.732 157.634 124.418 157.668 124.103 157.701C123.98 157.724 123.845 157.746 123.699 157.769C123.272 157.836 122.823 157.882 122.396 157.938C122.171 157.972 121.936 157.994 121.711 158.039C121.475 158.073 121.239 158.084 121.015 158.129C120.902 158.163 120.79 158.163 120.666 158.174C120.273 158.22 119.869 158.276 119.476 158.332C119.431 158.332 119.375 158.343 119.319 158.355C119.173 158.377 119.015 158.4 118.869 158.422C118.735 158.445 118.589 158.467 118.454 158.479C118.342 158.501 118.297 158.558 118.297 158.67C118.297 158.727 118.297 158.76 118.319 158.805C118.342 158.974 118.375 159.121 118.398 159.29C118.431 159.504 118.465 159.729 118.499 159.954C118.667 161.002 118.813 162.061 118.971 163.12C119.027 163.503 119.083 163.886 119.139 164.281C119.206 164.731 119.263 165.182 119.33 165.633C119.386 165.993 119.442 166.376 119.476 166.748C119.498 166.883 119.51 167.018 119.521 167.153C119.521 167.176 119.521 167.199 119.521 167.232C119.543 167.289 119.588 167.322 119.644 167.322C119.667 167.322 119.701 167.322 119.723 167.311C120.004 167.266 120.273 167.232 120.543 167.199C121.194 167.097 121.868 166.996 122.52 166.883C122.643 166.861 122.789 166.861 122.924 166.838C123.16 166.804 123.418 166.759 123.654 166.725L123.665 166.737ZM136.368 158.546C136.278 157.893 136.177 157.228 136.076 156.575C136.053 156.428 136.031 156.271 136.009 156.135C135.975 156.011 135.93 155.978 135.818 156C135.795 156 135.773 156 135.739 156C135.514 156.034 135.279 156.068 135.031 156.113C134.717 156.169 134.391 156.192 134.077 156.271C134.043 156.293 133.987 156.282 133.953 156.293C133.796 156.293 133.639 156.293 133.481 156.327C133.1 156.372 132.718 156.44 132.336 156.496C132.01 156.541 131.673 156.609 131.348 156.654C131.067 156.699 130.797 156.732 130.516 156.778C130.314 156.823 130.112 156.845 129.921 156.879C129.169 156.992 128.405 157.082 127.641 157.194C127.551 157.206 127.461 157.217 127.36 157.239C127.293 157.262 127.271 157.296 127.248 157.363C127.248 157.397 127.248 157.431 127.248 157.453C127.282 157.668 127.293 157.882 127.338 158.084C127.405 158.58 127.506 159.053 127.574 159.549C127.585 159.74 127.63 159.932 127.652 160.112C127.652 160.191 127.697 160.214 127.776 160.202C127.978 160.169 128.18 160.146 128.382 160.112C128.551 160.09 128.708 160.056 128.877 160.033C129.281 159.966 129.685 159.909 130.067 159.853C130.157 159.842 130.236 159.831 130.325 159.831C130.393 159.831 130.415 159.853 130.438 159.921C130.438 159.955 130.438 159.988 130.449 160.011C130.505 160.292 130.539 160.552 130.573 160.822C130.629 161.137 130.696 161.464 130.741 161.78C130.842 162.478 130.943 163.165 131.044 163.875V163.898C131.112 164.179 131.145 164.461 131.168 164.743C131.168 164.821 131.168 164.9 131.202 164.968C131.224 165.137 131.258 165.295 131.291 165.452V165.565C131.325 165.621 131.37 165.655 131.437 165.666C131.471 165.666 131.505 165.666 131.527 165.655C131.718 165.633 131.909 165.61 132.1 165.587C132.785 165.475 133.482 165.373 134.178 165.272C134.245 165.272 134.313 165.238 134.38 165.216C134.492 165.193 134.515 165.148 134.492 165.035C134.447 164.81 134.402 164.585 134.369 164.359C134.245 163.515 134.122 162.67 134.009 161.825C133.976 161.554 133.931 161.284 133.897 161.014C133.875 160.856 133.83 160.709 133.807 160.563C133.762 160.225 133.706 159.876 133.661 159.538C133.639 159.391 133.672 159.346 133.818 159.324C134.133 159.279 134.436 159.233 134.739 159.188C135.189 159.121 135.649 159.053 136.087 158.997C136.166 158.997 136.233 158.974 136.323 158.963C136.39 158.941 136.402 158.918 136.402 158.85C136.402 158.76 136.379 158.67 136.368 158.58V158.546ZM148.206 163.041C148.071 162.906 147.97 162.726 147.903 162.546C147.858 162.433 147.835 162.309 147.802 162.196C147.734 161.87 147.667 161.498 147.577 161.171C147.51 160.867 147.431 160.574 147.341 160.27C147.285 160.09 147.195 159.909 147.072 159.752C146.903 159.583 146.735 159.436 146.499 159.369C146.364 159.312 146.218 159.245 146.083 159.233C146.061 159.233 146.038 159.233 146.027 159.2C146.027 159.188 146.027 159.166 146.027 159.132C146.027 159.121 146.049 159.098 146.072 159.098C146.308 158.963 146.487 158.772 146.645 158.546C146.757 158.411 146.824 158.265 146.892 158.096C146.97 157.859 147.027 157.622 147.027 157.363C147.038 156.924 146.948 156.518 146.701 156.147C146.667 156.124 146.656 156.079 146.633 156.045C146.521 155.775 146.297 155.606 146.083 155.437C145.937 155.313 145.769 155.234 145.6 155.144C145.544 155.11 145.488 155.099 145.42 155.076C145.039 154.93 144.623 154.896 144.219 154.885C143.882 154.874 143.534 154.885 143.208 154.941C143.028 154.964 142.86 154.964 142.691 154.986C142.242 155.054 141.782 155.121 141.321 155.2C141.096 155.234 140.872 155.279 140.647 155.313C140.232 155.358 139.816 155.403 139.4 155.471C139.075 155.516 138.76 155.561 138.435 155.606C138.187 155.64 137.929 155.673 137.682 155.719C137.592 155.73 137.087 155.797 136.862 155.82C136.784 155.865 136.873 156.293 136.896 156.383C136.93 156.53 136.952 156.676 136.974 156.823C136.974 156.89 136.997 156.958 137.008 157.037C137.042 157.239 137.076 157.442 137.109 157.645C137.132 157.825 137.143 158.005 137.188 158.174C137.244 158.467 137.278 158.749 137.323 159.031C137.412 159.662 137.502 160.281 137.592 160.901C137.682 161.509 137.761 162.106 137.851 162.703C137.873 162.872 137.895 163.03 137.918 163.199C137.94 163.3 137.963 163.413 137.974 163.526C138.019 163.841 138.064 164.157 138.109 164.472C138.109 164.551 138.176 164.596 138.255 164.596C138.289 164.596 138.333 164.585 138.367 164.585C139.176 164.472 139.984 164.348 140.782 164.224C140.872 164.213 140.962 164.213 141.051 164.191C141.175 164.157 141.231 164.078 141.22 163.954C141.22 163.931 141.22 163.92 141.22 163.886C141.175 163.593 141.13 163.289 141.096 162.985C141.04 162.579 140.984 162.174 140.928 161.768C140.928 161.723 140.917 161.667 140.905 161.633C140.905 161.543 140.939 161.498 141.029 161.487C141.175 161.453 141.332 161.419 141.467 161.397C141.815 161.34 142.163 161.273 142.523 161.261H142.624C142.927 161.194 143.23 161.149 143.511 161.104H143.534C143.792 161.092 144.061 161.182 144.129 161.509C144.185 161.735 144.275 161.949 144.286 162.185C144.342 162.579 144.477 162.996 144.589 163.379C144.623 163.515 144.713 163.605 144.859 163.638C144.938 163.661 145.027 163.65 145.117 163.638C145.364 163.605 145.6 163.56 145.859 163.515C146.083 163.481 146.33 163.458 146.555 163.424C146.881 163.368 147.24 163.334 147.566 163.278C147.768 163.244 147.981 163.222 148.195 163.188C148.24 163.188 148.284 163.177 148.318 163.109C148.273 163.075 148.24 163.041 148.217 163.008L148.206 163.041ZM140.703 158.941C140.512 158.963 140.501 158.941 140.456 158.76C140.434 158.614 140.411 158.456 140.389 158.321C140.389 158.276 140.378 158.208 140.389 158.152C140.389 158.107 140.411 158.062 140.467 158.051C140.524 158.028 140.602 158.005 140.67 157.994C140.894 157.96 141.141 157.927 141.366 157.904C141.433 157.904 141.501 157.882 141.568 157.87C141.826 157.803 142.096 157.791 142.366 157.758C142.478 157.746 142.601 157.713 142.714 157.69C142.837 157.69 142.961 157.656 143.107 157.656C143.275 157.645 143.388 157.746 143.433 157.904C143.455 157.983 143.466 158.051 143.466 158.129C143.477 158.321 143.354 158.512 143.163 158.546C142.995 158.591 142.804 158.625 142.624 158.659C142.354 158.693 142.096 158.738 141.826 158.772C141.445 158.817 141.085 158.862 140.703 158.918V158.941ZM153.395 162.456C153.473 162.456 153.552 162.456 153.619 162.433C154.001 162.377 154.361 162.343 154.731 162.287C155.214 162.219 155.686 162.14 156.158 162.073C156.528 162.016 156.888 161.982 157.258 161.926C157.315 161.926 157.371 161.915 157.438 161.892C157.505 161.892 157.528 161.825 157.539 161.78C157.539 161.723 157.539 161.667 157.528 161.611C157.505 161.532 157.483 161.464 157.472 161.385C157.427 161.081 157.382 160.788 157.348 160.484C157.303 160.18 157.258 159.876 157.202 159.571C157.191 159.481 157.18 159.402 157.169 159.312C157.157 159.211 157.146 159.098 157.135 158.997C157.135 158.929 157.079 158.907 157.023 158.907C157 158.907 156.966 158.907 156.933 158.918C156.54 158.974 156.135 159.031 155.742 159.087C155.102 159.177 154.462 159.279 153.822 159.357C153.395 159.425 152.979 159.481 152.552 159.538C152.463 159.549 152.373 159.549 152.283 159.56C152.227 159.56 152.193 159.538 152.182 159.481C152.148 159.357 152.137 159.233 152.126 159.098C152.126 159.053 152.148 159.008 152.215 158.986H152.283C152.418 158.941 152.564 158.929 152.687 158.907C153.035 158.862 153.384 158.805 153.732 158.772C154.372 158.681 155.023 158.58 155.686 158.49C155.697 158.49 155.731 158.49 155.753 158.49C155.843 158.479 155.866 158.445 155.866 158.355V158.321C155.787 157.837 155.72 157.352 155.652 156.868C155.652 156.823 155.63 156.766 155.619 156.732C155.585 156.676 155.54 156.631 155.473 156.642C155.383 156.654 155.293 156.654 155.203 156.665C154.821 156.721 154.439 156.789 154.057 156.834C153.676 156.89 153.282 156.935 152.901 156.992C152.631 157.025 152.373 157.082 152.103 157.115C152.058 157.115 151.991 157.127 151.923 157.127C151.867 157.127 151.845 157.104 151.834 157.048C151.811 156.98 151.8 156.901 151.789 156.834C151.766 156.597 151.71 156.541 152.047 156.485C152.193 156.462 152.35 156.451 152.496 156.428C152.755 156.394 152.99 156.361 153.238 156.316C153.597 156.282 153.945 156.225 154.293 156.18C154.9 156.09 155.495 156.011 156.09 155.91C156.214 155.887 156.337 155.865 156.461 155.842C156.54 155.82 156.573 155.775 156.562 155.696C156.562 155.606 156.551 155.516 156.54 155.426C156.461 154.851 156.371 154.288 156.292 153.736C156.259 153.589 156.248 153.432 156.214 153.285C156.191 153.116 156.146 153.105 156 153.127H155.933C155.54 153.195 155.136 153.251 154.754 153.308C154.451 153.353 154.136 153.386 153.822 153.42C153.698 153.443 153.563 153.465 153.417 153.488C152.99 153.555 152.541 153.601 152.114 153.668C151.89 153.702 151.654 153.724 151.429 153.769C151.193 153.803 150.958 153.815 150.733 153.86C150.621 153.893 150.508 153.893 150.385 153.916C149.992 153.961 149.587 154.017 149.194 154.074C149.149 154.074 149.093 154.085 149.048 154.096C148.891 154.119 148.745 154.141 148.599 154.164C148.464 154.186 148.318 154.209 148.183 154.22C148.071 154.231 148.026 154.299 148.026 154.412C148.026 154.468 148.026 154.502 148.049 154.547C148.071 154.716 148.105 154.862 148.127 155.02C148.161 155.234 148.195 155.459 148.217 155.685C148.374 156.732 148.532 157.791 148.689 158.85C148.745 159.233 148.801 159.617 148.857 160.011C148.925 160.461 148.992 160.912 149.048 161.363C149.104 161.735 149.161 162.106 149.194 162.478C149.217 162.613 149.228 162.748 149.239 162.884V162.963C149.273 163.019 149.318 163.053 149.374 163.041C149.396 163.041 149.419 163.041 149.453 163.041C149.733 162.996 150.003 162.963 150.272 162.929C150.924 162.816 151.598 162.726 152.249 162.613C152.373 162.591 152.519 162.591 152.654 162.568C152.889 162.534 153.148 162.489 153.384 162.444L153.395 162.456ZM61.4208 179.467L61.477 179.895L61.5781 180.571C61.623 180.819 61.6567 181.089 61.7016 181.337C61.7578 181.608 61.769 181.912 61.8139 182.182C61.8588 182.475 61.9038 182.746 61.9487 183.038C62.0161 183.534 62.0722 184.007 62.1509 184.503C62.1845 184.728 62.2295 184.942 62.2744 185.168C62.2856 185.269 62.2969 185.382 62.3081 185.483C62.3643 185.832 62.4204 186.193 62.4766 186.542C62.5327 186.959 62.6001 187.376 62.6563 187.793L62.6787 187.917C62.7012 187.973 62.7349 188.018 62.8135 188.018H62.9034C63.2403 187.962 63.5997 187.917 63.9366 187.872C64.3522 187.815 64.7565 187.748 65.1721 187.691C65.2732 187.68 65.3743 187.658 65.4754 187.635C65.5877 187.624 65.7 187.601 65.8123 187.59C65.8797 187.59 65.9358 187.59 65.992 187.567C66.138 187.545 66.2952 187.511 66.43 187.5C66.7333 187.466 67.0477 187.41 67.351 187.376C67.8003 187.342 68.227 187.263 68.6651 187.196C69.1368 187.117 69.6197 187.027 70.0802 186.959C70.2262 186.936 70.3835 186.914 70.5183 186.891C70.7317 186.858 70.7204 186.801 70.698 186.655C70.6755 186.463 70.6306 186.261 70.5969 186.08C70.5632 185.81 70.507 185.551 70.4958 185.28C70.4958 185.168 70.4621 185.055 70.4509 184.954C70.4284 184.818 70.4059 184.695 70.3947 184.559C70.3947 184.379 70.3385 184.221 70.3049 184.052C70.2936 183.962 70.2599 183.928 70.1701 183.94C70.0016 183.94 69.8556 183.974 69.7096 184.041C69.6647 184.064 69.6197 184.097 69.5748 184.097C69.4625 184.12 69.3502 184.131 69.2379 184.131C69.1593 184.131 69.0919 184.165 69.0132 184.154C68.8672 184.12 68.7325 184.154 68.5865 184.154C68.418 184.176 68.2495 184.199 68.081 184.221C67.2948 184.334 66.5311 184.447 65.7674 184.559C65.7224 184.559 65.6663 184.571 65.6101 184.559C65.5427 184.559 65.4866 184.526 65.4641 184.447C65.4641 184.379 65.4304 184.334 65.4304 184.266C65.3743 183.872 65.3181 183.467 65.262 183.061C65.2283 182.858 65.217 182.655 65.1833 182.453C65.1384 182.126 65.0823 181.81 65.0373 181.495C64.9475 180.977 64.8913 180.459 64.8127 179.952C64.7678 179.625 64.7341 179.309 64.7004 178.983C64.6892 178.791 64.6892 178.712 64.4084 178.757C64.2961 178.791 64.195 178.814 64.0827 178.814C63.5997 178.881 63.1168 178.949 62.6338 179.005C62.2632 179.062 61.9038 179.107 61.5219 179.163C61.4994 179.163 61.4657 179.185 61.4096 179.197C61.4096 179.276 61.4096 179.343 61.4208 179.388V179.467ZM75.7072 186.182C75.7858 186.182 75.8644 186.182 75.9318 186.159C76.3137 186.103 76.6731 186.069 77.0437 186.013C77.5266 185.945 77.9984 185.866 78.4701 185.799C78.8407 185.742 79.2001 185.708 79.5708 185.652C79.6157 185.652 79.6831 185.641 79.7505 185.618C79.8179 185.618 79.8403 185.551 79.8515 185.506C79.8515 185.449 79.8515 185.393 79.8515 185.337C79.8291 185.258 79.8066 185.19 79.7954 185.111C79.7505 184.807 79.7055 184.514 79.6719 184.21C79.6269 183.906 79.582 183.602 79.5258 183.298L79.4921 183.05C79.4809 182.948 79.4697 182.836 79.4585 182.734C79.4585 182.667 79.4023 182.633 79.3461 182.644C79.3237 182.644 79.29 182.644 79.2563 182.655C78.8632 182.712 78.4589 182.768 78.077 182.824C77.4368 182.915 76.7966 183.005 76.1564 183.095C75.7296 183.162 75.3141 183.219 74.8873 183.275C74.7974 183.286 74.7076 183.286 74.6177 183.298C74.5616 183.298 74.5279 183.275 74.5166 183.219C74.4829 183.095 74.4717 182.971 74.4605 182.836C74.4605 182.791 74.4829 182.746 74.5503 182.723H74.6177C74.7525 182.678 74.8985 182.667 75.022 182.644C75.3702 182.599 75.7184 182.543 76.0666 182.509C76.7068 182.419 77.3694 182.317 78.0208 182.227C78.0321 182.227 78.0658 182.227 78.0882 182.227C78.1781 182.216 78.2005 182.182 78.2005 182.092V182.058C78.1219 181.574 78.0545 181.089 77.9871 180.605C77.9871 180.56 77.9647 180.504 77.9534 180.47C77.9198 180.413 77.8748 180.368 77.8074 180.368C77.7176 180.38 77.6277 180.38 77.5379 180.391C77.156 180.447 76.7741 180.515 76.3923 180.56C76.0104 180.616 75.6173 180.661 75.2354 180.718C74.9659 180.751 74.7076 180.808 74.438 180.842C74.3931 180.842 74.3257 180.853 74.2583 180.853C74.2022 180.853 74.1797 180.83 74.1685 180.774C74.146 180.695 74.1348 180.628 74.1235 180.56C74.1011 180.323 74.0449 180.267 74.3819 180.211C74.5279 180.188 74.6851 180.177 74.8423 180.154C75.0894 180.121 75.3365 180.087 75.5836 180.042C75.943 180.008 76.2912 179.952 76.6394 179.907C77.2459 179.816 77.8411 179.738 78.4364 179.636C78.5599 179.614 78.6835 179.591 78.807 179.569C78.8856 179.546 78.9081 179.501 78.8969 179.422C78.8969 179.332 78.8857 179.242 78.8744 179.152C78.7958 178.577 78.7059 178.014 78.6273 177.462C78.5936 177.315 78.5824 177.158 78.5487 177.011C78.5262 176.842 78.4813 176.831 78.3353 176.853H78.2679C77.8748 176.921 77.4705 176.977 77.0886 177.034C76.7854 177.079 76.4709 177.113 76.1564 177.146C76.0329 177.169 75.8981 177.191 75.7521 177.214C75.3253 177.282 74.876 177.327 74.4492 177.383C74.2246 177.417 73.9888 177.439 73.7641 177.484C73.5283 177.518 73.2924 177.529 73.0678 177.574C72.9555 177.597 72.8432 177.608 72.7196 177.62C72.3265 177.665 71.9222 177.721 71.5291 177.777C71.4842 177.777 71.428 177.789 71.3831 177.8C71.2371 177.822 71.0798 177.845 70.9338 177.867L70.5183 177.924C70.4059 177.935 70.361 178.003 70.361 178.115C70.361 178.172 70.361 178.205 70.3835 178.25C70.4059 178.419 70.4396 178.566 70.4621 178.735C70.4958 178.949 70.5295 179.174 70.5632 179.411C70.7317 180.459 70.8777 181.518 71.0349 182.577C71.0911 182.96 71.1472 183.343 71.2034 183.737C71.2708 184.188 71.3269 184.638 71.3943 185.089C71.4505 185.461 71.5066 185.832 71.5403 186.204C71.5628 186.339 71.574 186.475 71.5852 186.61V186.689C71.6189 186.756 71.6639 186.779 71.72 186.779C71.7425 186.779 71.7649 186.779 71.7986 186.779C72.0794 186.734 72.349 186.7 72.6185 186.655C73.27 186.553 73.9438 186.452 74.5953 186.351C74.7188 186.328 74.8648 186.328 74.9996 186.306C75.2354 186.272 75.4938 186.227 75.7296 186.193L75.7072 186.182ZM87.2194 184.537L88.3874 184.368C88.6682 184.323 88.9378 184.289 89.2185 184.244C89.3196 184.244 89.4207 184.21 89.5218 184.199C89.6903 184.188 89.8475 184.165 90.016 184.143C90.162 184.12 90.162 184.109 90.1507 183.951C90.0497 183.253 89.9374 182.565 89.8475 181.878C89.8026 181.551 89.7689 181.213 89.724 180.887C89.6903 180.673 89.7015 180.65 89.9149 180.616C90.2968 180.56 90.6674 180.504 91.0605 180.47C91.2514 180.447 91.4424 180.413 91.6445 180.391C91.7793 180.368 91.9365 180.346 92.0713 180.335C92.4195 180.29 92.7677 180.233 93.1158 180.199C93.2506 180.177 93.4079 180.154 93.5539 180.132C93.7336 180.109 93.7673 180.064 93.7223 179.884C93.6999 179.749 93.6774 179.602 93.6662 179.456C93.6213 179.14 93.5763 178.814 93.5314 178.498C93.4865 178.262 93.4416 178.217 93.1832 178.25C92.9698 178.284 92.7564 178.307 92.543 178.341C92.0713 178.408 91.5996 178.476 91.1279 178.543C90.6562 178.611 90.2069 178.679 89.7464 178.746C89.679 178.746 89.6341 178.757 89.5667 178.769C89.4656 178.769 89.4095 178.735 89.3982 178.633L89.3533 178.295C89.3309 178.126 89.3421 178.115 89.4993 178.081C89.5218 178.07 89.5442 178.059 89.5892 178.059C89.7689 178.036 89.9374 178.003 90.1058 177.98C90.4091 177.935 90.7123 177.901 91.0156 177.867C91.4536 177.8 91.9141 177.732 92.3633 177.676L94.1042 177.428C94.1042 177.428 94.2053 177.417 94.239 177.405C94.2839 177.383 94.3064 177.36 94.3176 177.304V177.259C94.2951 177.067 94.2727 176.876 94.3064 176.684C94.3064 176.639 94.3064 176.606 94.3064 176.572C94.3064 176.493 94.3064 176.414 94.3064 176.324C94.3064 176.256 94.3064 176.2 94.2951 176.132C94.239 175.704 94.1716 175.276 94.1154 174.848C94.1154 174.803 94.1042 174.747 94.0817 174.69C94.0817 174.612 94.0256 174.6 93.9357 174.6C93.9133 174.6 93.902 174.623 93.8796 174.623C93.464 174.679 93.0597 174.735 92.6441 174.803C92.2286 174.859 91.813 174.927 91.3974 174.983C91.1054 175.028 90.8246 175.085 90.5438 175.118C90.308 175.152 90.0609 175.186 89.8363 175.22C89.6116 175.242 89.387 175.287 89.1736 175.321C89.0051 175.344 88.8591 175.355 88.6907 175.378C88.1291 175.456 87.5563 175.547 86.9947 175.625C86.6016 175.682 86.1973 175.727 85.8042 175.783C85.7817 175.783 85.7368 175.783 85.7031 175.806C85.6582 175.806 85.6245 175.851 85.6133 175.907V175.997C85.6582 176.223 85.6807 176.47 85.7256 176.696C85.8154 177.203 85.8716 177.71 85.939 178.217C85.9951 178.611 86.0513 179.005 86.1074 179.377C86.1636 179.738 86.2085 180.098 86.2759 180.447C86.3208 180.774 86.3545 181.089 86.3995 181.427C86.5118 182.137 86.6016 182.847 86.7139 183.557C86.7589 183.861 86.8038 184.165 86.8487 184.469C86.8487 184.514 86.8599 184.559 86.8824 184.627C87.006 184.604 87.1295 184.593 87.253 184.571L87.2194 184.537ZM100.304 182.633C100.383 182.633 100.461 182.633 100.529 182.61C100.91 182.554 101.27 182.52 101.64 182.464C102.123 182.396 102.595 182.317 103.067 182.25C103.437 182.194 103.797 182.16 104.168 182.103C104.212 182.103 104.28 182.081 104.347 182.07C104.415 182.07 104.437 182.002 104.448 181.957C104.448 181.901 104.448 181.844 104.448 181.788C104.426 181.709 104.403 181.641 104.392 181.563C104.347 181.258 104.302 180.966 104.269 180.661C104.224 180.357 104.179 180.053 104.123 179.749L104.089 179.501C104.078 179.4 104.066 179.287 104.055 179.186C104.055 179.118 103.999 179.084 103.943 179.095C103.92 179.095 103.887 179.095 103.853 179.107C103.46 179.163 103.056 179.219 102.674 179.276C102.034 179.366 101.393 179.456 100.753 179.546C100.326 179.602 99.9108 179.67 99.4841 179.726C99.3942 179.738 99.3043 179.738 99.2145 179.749C99.1583 179.749 99.1246 179.726 99.1134 179.67C99.0797 179.546 99.0685 179.422 99.0573 179.287C99.0573 179.242 99.0797 179.197 99.1471 179.174C99.1696 179.174 99.1808 179.174 99.2145 179.174C99.3493 179.14 99.4953 179.118 99.6188 179.107C99.967 179.062 100.315 179.005 100.663 178.971C101.304 178.881 101.966 178.78 102.618 178.69C102.629 178.69 102.663 178.69 102.685 178.69C102.775 178.679 102.797 178.645 102.797 178.555V178.521C102.719 178.036 102.651 177.552 102.584 177.067C102.584 177.022 102.561 176.966 102.55 176.932C102.517 176.876 102.472 176.831 102.404 176.831C102.314 176.842 102.225 176.842 102.135 176.853C101.753 176.91 101.371 176.977 100.989 177.022C100.607 177.079 100.214 177.124 99.8322 177.18C99.5627 177.214 99.3043 177.27 99.0348 177.304C98.9899 177.304 98.9225 177.315 98.8551 177.315C98.7989 177.315 98.7765 177.293 98.7652 177.236C98.7428 177.158 98.7315 177.09 98.7203 177.022C98.6978 176.775 98.6417 176.73 98.9786 176.673C99.1246 176.651 99.2819 176.639 99.4391 176.617C99.6862 176.583 99.9333 176.549 100.18 176.515C100.54 176.482 100.888 176.425 101.236 176.38C101.843 176.29 102.438 176.211 103.033 176.11C103.157 176.087 103.28 176.065 103.404 176.042C103.482 176.02 103.505 175.975 103.494 175.896C103.494 175.806 103.482 175.716 103.471 175.625C103.393 175.062 103.303 174.488 103.224 173.936C103.19 173.789 103.179 173.631 103.145 173.485C103.123 173.316 103.078 173.305 102.932 173.327H102.865C102.472 173.395 102.067 173.451 101.685 173.507C101.382 173.553 101.068 173.586 100.753 173.62C100.63 173.643 100.495 173.676 100.349 173.688C99.9221 173.744 99.4728 173.8 99.046 173.857C98.8214 173.891 98.5855 173.913 98.3609 173.958C98.125 173.992 97.8892 174.003 97.6646 174.048C97.5522 174.082 97.4399 174.082 97.3164 174.093C96.9233 174.138 96.519 174.195 96.1259 174.251C96.0809 174.251 96.0248 174.262 95.9798 174.274C95.8338 174.296 95.6766 174.319 95.5306 174.341L95.115 174.397C95.0027 174.409 94.9578 174.476 94.9578 174.589C94.9578 174.645 94.9578 174.679 94.9803 174.724C95.0027 174.893 95.0364 175.04 95.0589 175.197C95.0926 175.411 95.1263 175.637 95.16 175.862C95.3172 176.91 95.4744 177.969 95.6317 179.028C95.6878 179.411 95.744 179.794 95.8001 180.188C95.8675 180.639 95.9237 181.089 95.9911 181.54C96.0472 181.901 96.1034 182.284 96.1371 182.655C96.1595 182.791 96.1708 182.926 96.182 183.061V183.14C96.2157 183.196 96.2606 183.23 96.3168 183.219H96.3954C96.6762 183.174 96.9457 183.129 97.2153 183.095C97.8667 182.982 98.5406 182.892 99.192 182.779C99.3156 182.757 99.4616 182.757 99.5964 182.734C99.8322 182.7 100.091 182.655 100.326 182.61L100.304 182.633ZM114.5 175.907C114.444 175.592 114.411 175.276 114.366 174.961C114.31 174.578 114.253 174.217 114.208 173.845C114.107 173.215 114.029 172.572 113.939 171.941C113.939 171.908 113.939 171.874 113.916 171.84C113.871 171.694 113.804 171.671 113.692 171.694C113.535 171.727 113.355 171.75 113.186 171.772C112.535 171.885 111.895 171.975 111.232 172.065C111.109 172.088 110.974 172.088 110.861 172.122C110.772 172.133 110.738 172.178 110.749 172.257V172.347C110.805 172.651 110.85 172.955 110.895 173.248C110.974 173.924 111.109 174.578 111.176 175.242C111.176 175.265 111.198 175.287 111.198 175.31C111.232 175.535 111.266 175.749 111.311 175.963C111.311 176.031 111.311 176.076 111.322 176.144C111.344 176.279 111.367 176.425 111.389 176.561C111.389 176.583 111.389 176.617 111.389 176.639C111.389 176.741 111.389 176.842 111.389 176.944C111.356 177.36 111.176 177.687 110.85 177.935C110.693 178.059 110.491 178.149 110.289 178.194C110.176 178.228 110.053 178.239 109.94 178.262C109.851 178.273 109.75 178.262 109.66 178.262C109.469 178.262 109.278 178.228 109.109 178.172C108.963 178.115 108.817 178.048 108.694 177.958C108.537 177.879 108.413 177.777 108.357 177.608C108.357 177.586 108.334 177.563 108.323 177.541C108.267 177.405 108.222 177.259 108.2 177.101C108.121 176.572 108.031 176.031 107.953 175.502C107.863 174.882 107.773 174.251 107.683 173.631C107.649 173.395 107.627 173.147 107.582 172.91C107.548 172.674 107.514 172.64 107.29 172.685C106.897 172.741 106.492 172.764 106.099 172.843C106.032 172.843 105.976 172.865 105.908 172.865C105.807 172.877 105.695 172.899 105.594 172.91C105.257 172.944 104.909 173 104.572 173.046C104.471 173.057 104.358 173.079 104.257 173.124C104.235 173.203 104.257 173.271 104.257 173.327C104.336 173.913 104.426 174.476 104.504 175.062C104.65 175.952 104.785 176.865 104.931 177.777C104.987 178.183 105.055 178.588 105.201 178.96C105.302 179.231 105.392 179.49 105.549 179.726C105.628 179.828 105.695 179.952 105.785 180.053C105.863 180.154 105.965 180.233 106.066 180.323C106.313 180.549 106.605 180.695 106.908 180.842C106.942 180.864 106.964 180.875 106.998 180.875C107.133 180.932 107.267 180.977 107.425 181.033C107.728 181.146 108.031 181.258 108.357 181.258C108.492 181.258 108.615 181.281 108.75 181.292C108.918 181.292 109.087 181.292 109.244 181.315C109.289 181.315 109.312 181.315 109.334 181.303C109.401 181.303 109.446 181.303 109.502 181.292C109.682 181.292 109.851 181.303 110.019 181.258C110.042 181.258 110.053 181.258 110.086 181.258C110.356 181.27 110.614 181.191 110.895 181.146C111.153 181.101 111.423 181.011 111.704 180.932C111.94 180.853 112.142 180.729 112.355 180.616C112.468 180.56 112.569 180.504 112.67 180.459C112.861 180.346 113.052 180.222 113.209 180.087C113.344 179.963 113.467 179.839 113.579 179.681C113.647 179.58 113.703 179.467 113.793 179.377C113.916 179.242 114.006 179.084 114.119 178.926C114.31 178.633 114.411 178.273 114.489 177.935C114.545 177.631 114.579 177.304 114.568 176.977C114.568 176.628 114.568 176.268 114.5 175.918V175.907ZM123.71 171.829V171.806C123.71 171.806 123.699 171.739 123.676 171.705V171.615C123.676 171.615 123.654 171.536 123.643 171.502V171.389C123.643 171.389 123.62 171.356 123.632 171.322C123.609 171.063 123.587 170.804 123.519 170.522C123.486 170.364 123.34 170.342 123.205 170.364C123.149 170.364 123.104 170.376 123.07 170.387C123.025 170.387 122.958 170.398 122.902 170.409C122.823 170.409 122.733 170.432 122.666 170.443C122.553 170.477 122.43 170.488 122.317 170.511C122.194 170.533 122.082 170.545 121.958 170.567C121.79 170.59 121.621 170.623 121.441 170.657H121.363C121.284 170.68 121.194 170.702 121.127 170.713C121.037 170.725 120.902 170.781 120.902 170.916V170.939C120.902 170.939 120.902 171.029 120.902 171.085V171.164C120.902 171.164 120.914 171.175 120.925 171.164C120.925 171.175 120.925 171.187 120.925 171.22C120.936 171.243 120.947 171.266 120.947 171.288C120.947 171.344 120.958 171.401 120.97 171.457C120.97 171.491 120.981 171.547 120.992 171.581C121.015 171.727 121.015 171.75 121.015 171.761C121.015 171.773 121.015 171.784 121.037 171.964C121.048 172.054 121.071 172.156 121.082 172.246C121.093 172.325 121.104 172.415 121.116 172.482C121.149 172.696 121.183 172.922 121.194 173.136C121.206 173.237 121.228 173.338 121.239 173.44V173.462C121.262 173.586 121.284 173.722 121.295 173.845C121.295 173.868 121.295 173.89 121.295 173.913L121.318 174.037L121.352 174.33C121.385 174.6 121.43 174.859 121.464 175.13L121.509 175.434L121.554 175.727C121.576 175.907 121.599 176.065 121.621 176.234C121.621 176.245 121.621 176.268 121.621 176.301C121.655 176.392 121.756 176.437 121.902 176.425C121.969 176.425 122.025 176.425 122.093 176.414C122.183 176.403 122.273 176.392 122.362 176.38L122.666 176.335C122.913 176.301 123.171 176.268 123.418 176.223C123.553 176.223 123.699 176.2 123.834 176.177H123.867C123.867 176.177 123.924 176.166 123.946 176.166C124.137 176.121 124.238 176.031 124.249 175.918C124.249 175.873 124.249 175.851 124.249 175.817C124.238 175.704 124.216 175.603 124.204 175.502C124.193 175.4 124.171 175.299 124.159 175.209C124.137 175.017 124.103 174.814 124.081 174.623C124.047 174.319 124.002 174.014 123.957 173.699L123.89 173.203C123.867 173.057 123.845 172.899 123.823 172.753C123.789 172.494 123.755 172.246 123.71 172.009C123.721 171.998 123.71 171.987 123.71 171.953C123.71 171.93 123.71 171.908 123.699 171.874V171.851L123.71 171.829ZM124.597 178.667C124.53 178.194 124.451 177.721 124.384 177.236C124.384 177.236 124.373 177.135 124.362 177.09C124.317 176.955 124.216 176.865 124.07 176.876C124.058 176.876 124.025 176.876 124.002 176.876C123.912 176.876 123.834 176.876 123.744 176.899C123.53 176.932 122.329 177.09 122.329 177.09C122.306 177.09 122.295 177.09 122.261 177.09C122.228 177.09 122.183 177.09 122.138 177.113C121.947 177.135 121.868 177.236 121.891 177.439C121.891 177.484 121.902 177.552 121.913 177.608V177.631L122.037 178.498L122.149 179.174C122.171 179.354 122.351 179.478 122.52 179.456L124.171 179.219H124.216C124.216 179.219 124.305 179.197 124.339 179.197C124.53 179.152 124.609 179.05 124.597 178.848C124.597 178.802 124.586 178.735 124.575 178.679V178.656L124.597 178.667Z" fill="#E42C2C"/>
<path d="M291.026 92.0726C308.222 94.4895 324.113 82.4546 326.523 65.2062C328.932 47.9578 316.934 32.0078 299.739 29.6008C282.543 27.1838 266.642 39.2187 264.242 56.4671C261.833 73.7156 273.831 89.6656 291.026 92.0726Z" fill="#F8EDD3"/>
<path d="M291.504 88.6575C306.817 90.8048 320.976 80.0982 323.117 64.7275C325.258 49.3667 314.584 35.1645 299.26 33.0172C283.947 30.8699 269.788 41.5765 267.647 56.9472C265.506 72.308 276.18 86.5102 291.504 88.6575Z" fill="#F8EDD3" stroke="#007F05" stroke-width="2.31318" stroke-miterlimit="10"/>
<path d="M292.988 79.3285C302.984 80.7267 312.224 73.7355 313.618 63.708C315.012 53.6806 308.043 44.4122 298.046 43.0139C288.049 41.6157 278.809 48.6069 277.415 58.6344C276.021 68.6618 282.991 77.9302 292.988 79.3285Z" fill="#0085CD"/>
<path d="M286.208 45.4018C288.886 44.3031 287.751 49.986 287.452 51.3943C287.153 52.8025 288.05 54.9997 284.903 54.76C281.757 54.5303 281.478 57.2769 281.478 57.2769C281.478 57.2769 281 60.5029 277.246 60.8624C276.968 55.609 281.219 47.4292 286.218 45.3918L286.208 45.4018Z" fill="#007B00"/>
<path d="M277.256 61.9698C277.256 61.9698 283.151 60.8412 282.514 65.4055L281.876 69.9697C281.876 69.9697 284.843 70.1795 285.282 72.2069C285.72 74.2344 287.034 77.4104 287.034 77.4104C287.034 77.4104 277.894 73.3255 277.256 61.9598V61.9698Z" fill="#007B00"/>
<path d="M291.225 43.3533C291.225 43.3533 289.443 45.98 292.639 46.0699C295.826 46.1598 297.498 45.98 298.514 46.8889C299.519 47.8077 305.334 45.7104 305.334 45.7104C305.334 45.7104 299.699 41.6654 291.235 43.3533H291.225Z" fill="#007B00"/>
<path d="M288.836 78.2399C288.836 78.2399 290.848 76.6619 292.421 77.2212C293.994 77.7805 295.478 78.969 296.165 77.7505C296.852 76.5321 302.477 76.7218 302.836 77.2612C302.836 77.2612 304.24 76.0427 305.046 76.8117C304.27 77.6207 296.125 81.4359 288.836 78.2399Z" fill="#007B00"/>
<path d="M294.442 56.5065C296.314 56.946 292.58 57.2256 292.659 58.8036C292.739 60.3817 293.914 58.8835 293.904 60.3517C293.904 61.8199 293.605 61.0908 293.904 61.8199C294.193 62.549 294.969 63.348 295.587 62.7387C296.204 62.1395 297.021 60.4815 297.08 60.0521C297.14 59.6226 297.887 58.4541 298.166 58.5939C298.434 58.7337 300.356 59.0034 300.346 59.7824C300.336 60.5614 303.114 61.6401 303.114 61.6401C303.114 61.6401 301.69 61.3405 301.71 62.6189C301.73 63.8973 303.174 67.5227 305.155 67.313C307.137 67.1033 309.546 65.2855 309.646 64.5165C309.755 63.7475 309.726 62.5689 310.104 61.2506C310.482 59.9322 312.055 60.5415 311.896 61.7C311.737 62.8586 311.926 67.5727 312.613 67.6725C313.31 65.9347 314.515 59.6126 312.583 54.5889C310.661 49.5652 309.317 50.1645 308.77 50.1844C308.222 50.2044 306.041 48.6464 305.215 50.0746C304.369 51.5228 302.935 50.3442 302.905 51.2231C302.875 52.102 302.756 52.971 303.522 53.0708C304.289 53.1807 303.154 54.2893 301.909 54.1195C300.665 53.9497 297.518 53.4004 297.389 54.2693C297.269 55.1382 294.193 51.9622 293.994 53.4004C293.795 54.8386 293.396 56.2568 294.442 56.4965V56.5065Z" fill="#007B00"/>
<path d="M294.063 48.6172C292.958 49.6359 290.817 50.3151 292.062 50.4948C293.306 50.6646 295.227 53.0017 295.556 51.3737C295.884 49.7558 294.073 48.6172 294.073 48.6172H294.063Z" fill="#007B00"/>
<path d="M292.56 63.0293C290.19 62.7796 287.86 63.239 287.989 64.3276C288.119 65.4263 286.098 69.9506 288.876 70.44C291.654 70.9194 291.325 74.6547 292.659 74.9144C293.993 75.1741 297.05 73.5461 297.409 70.9494C297.767 68.3526 299.818 66.2852 298.046 66.3851C296.274 66.4849 294.959 63.2989 292.55 63.0393L292.56 63.0293Z" fill="#007B00"/>
<path d="M301.132 69.5018C299.519 70.141 299.689 71.4593 300.823 71.709C301.958 71.9687 303.302 68.6328 301.132 69.5018Z" fill="#007B00"/>
<path d="M291.494 67.144C291.036 70.4499 294.422 70.9293 294.422 70.9293C294.422 70.9293 297.548 71.3688 298.016 68.0629" stroke="#442009" stroke-width="1.98754" stroke-miterlimit="10"/>
<path d="M315.391 54.66C315.122 54.6101 314.833 54.7099 314.574 54.9197C314.684 52.9322 314.076 51.3142 313.081 51.1744C312.085 51.0345 311.069 52.4028 310.631 54.3304C310.323 54.1207 309.994 54.0108 309.655 54.0408C308.461 54.1407 307.634 55.8985 307.813 57.9559C307.863 58.5352 307.993 59.0745 308.172 59.5539C308.64 60.9721 309.914 62.0907 311.537 62.3204C313.27 62.5601 314.893 61.7312 315.689 60.3429C316.028 59.8036 316.287 59.0945 316.436 58.2855C316.755 56.4478 316.297 54.8298 315.411 54.67L315.391 54.66Z" fill="#ED0000"/>
<path d="M314.087 56.8771C313.908 56.8472 313.728 56.9071 313.549 57.0469C313.619 55.7486 313.221 54.6899 312.573 54.6C311.926 54.5101 311.259 55.399 310.97 56.6574C310.771 56.5176 310.552 56.4477 310.333 56.4677C309.557 56.5376 309.019 57.6861 309.128 59.0245C309.158 59.404 309.248 59.7536 309.357 60.0632C309.666 60.992 310.493 61.7211 311.558 61.8709C312.693 62.0307 313.748 61.4814 314.266 60.5825C314.485 60.2329 314.654 59.7635 314.754 59.2342C314.963 58.0357 314.664 56.977 314.087 56.8771Z" fill="#FFB200"/>
<path d="M299.011 64.4571C299.539 60.6619 295.646 60.1126 295.646 60.1126C295.646 60.1126 292.052 59.6132 291.524 63.3985" stroke="#442009" stroke-width="2.27949" stroke-miterlimit="10"/>
<path d="M276.689 58.116C276.689 58.116 276.689 58.1859 276.689 58.2158C276.31 62.8101 279.636 67.0747 284.176 67.8038C289.125 68.5928 293.735 65.1571 294.422 60.2033V60.1634C294.691 58.1759 293.207 56.3681 291.226 56.0885L281.169 54.6803C278.979 54.3706 276.908 55.9087 276.698 58.116H276.689Z" fill="#442009"/>
<path d="M297.061 60.9827C297.061 60.9827 297.051 61.0526 297.061 61.0825C296.682 65.6768 300.008 69.9414 304.548 70.6705C309.497 71.4595 314.107 68.0238 314.794 63.07V63.0301C315.063 61.0426 313.579 59.2348 311.598 58.9552L301.541 57.547C299.351 57.2373 297.28 58.7754 297.071 60.9827H297.061Z" fill="#442009"/>
<path d="M285.55 46.52C285.281 46.47 285.002 46.5699 284.733 46.7797C284.843 44.8021 284.236 43.1941 283.24 43.0543C282.254 42.9145 281.239 44.2728 280.801 46.1904C280.492 45.9807 280.163 45.8708 279.825 45.9008C278.64 46.0106 277.813 47.7484 277.993 49.7959C278.042 50.3752 278.172 50.9045 278.351 51.3839C278.819 52.8021 280.084 53.9107 281.697 54.1404C283.419 54.3801 285.032 53.5512 285.819 52.1729C286.147 51.6436 286.416 50.9245 286.556 50.1255C286.874 48.2978 286.416 46.6898 285.54 46.53L285.55 46.52Z" fill="#ED0000"/>
<path d="M284.256 48.7158C284.076 48.6858 283.897 48.7458 283.728 48.8856C283.798 47.5972 283.399 46.5385 282.752 46.4486C282.105 46.3587 281.448 47.2476 281.159 48.4961C280.96 48.3563 280.741 48.2863 280.522 48.3063C279.745 48.3762 279.217 49.5148 279.327 50.8531C279.357 51.2326 279.446 51.5822 279.556 51.8918C279.865 52.8107 280.681 53.5398 281.746 53.6896C282.872 53.8494 283.927 53.3001 284.445 52.4012C284.664 52.0516 284.833 51.5822 284.923 51.0629C285.132 49.8644 284.833 48.8157 284.256 48.7158Z" fill="#FFB200"/>
<path d="M307.396 81.3358C309.726 81.6654 311.886 80.0274 312.205 77.6904C312.533 75.3533 310.911 73.186 308.571 72.8664C306.241 72.5368 304.08 74.1748 303.761 76.5118C303.433 78.8489 305.056 81.0162 307.396 81.3358Z" fill="#0085CD"/>
<path d="M317.372 70.8991C317.959 70.2798 317.94 69.3011 317.312 68.7118C316.695 68.1225 315.719 68.1425 315.132 68.7617L308.242 76.0226C307.654 76.6419 307.674 77.6206 308.301 78.2099C308.919 78.7992 309.894 78.7792 310.482 78.16L317.372 70.8991Z" fill="#0085CD"/>
<path d="M311.108 66.0157C311.227 65.1668 310.64 64.3878 309.794 64.2679C308.948 64.1481 308.171 64.7373 308.052 65.5863L306.648 75.5138C306.529 76.3628 307.116 77.1418 307.962 77.2617C308.808 77.3815 309.585 76.7922 309.704 75.9433L311.108 66.0157Z" fill="#0085CD"/>
<path d="M311.686 78.1792C311.686 78.1792 309.157 73.2553 307.783 75.4326C306.41 77.6199 308.391 79.877 308.391 79.877" stroke="#0075A8" stroke-width="1.15659" stroke-miterlimit="10" stroke-linecap="round"/>
<defs>
<filter id="filter0_d_1253_16933" x="0" y="0" width="376.173" height="170.681" filterUnits="userSpaceOnUse" color-interpolation-filters="sRGB">
<feFlood flood-opacity="0" result="BackgroundImageFix"/>
<feColorMatrix in="SourceAlpha" type="matrix" values="0 0 0 0 0 0 0 0 0 0 0 0 0 0 0 0 0 0 127 0" result="hardAlpha"/>
<feOffset dy="6.73742"/>
<feComposite in2="hardAlpha" operator="out"/>
<feColorMatrix type="matrix" values="0 0 0 0 0.807843 0 0 0 0 0.882353 0 0 0 0 0.811765 0 0 0 1 0"/>
<feBlend mode="normal" in2="BackgroundImageFix" result="effect1_dropShadow_1253_16933"/>
<feBlend mode="normal" in="SourceGraphic" in2="effect1_dropShadow_1253_16933" result="shape"/>
</filter>
</defs>
</svg>
