<svg width="55" height="53" viewBox="0 0 55 53" fill="none" xmlns="http://www.w3.org/2000/svg">
<circle cx="27.1623" cy="26.4461" r="20.6836" transform="rotate(-18.0293 27.1623 26.4461)" fill="#FFC700"/>
<path d="M19.7817 28.4385C20.637 28.1421 20.8778 26.5958 20.3195 24.985C19.7611 23.3741 18.6151 22.3085 17.7598 22.605C16.9044 22.9015 16.6637 24.4477 17.222 26.0586C17.7804 27.6694 18.9264 28.735 19.7817 28.4385Z" fill="#6B3600"/>
<path d="M34.7267 23.2574C35.582 22.961 35.8228 21.4147 35.2644 19.8039C34.7061 18.193 33.5601 17.1274 32.7047 17.4239C31.8494 17.7204 31.6086 19.2666 32.167 20.8775C32.7253 22.4884 33.8714 23.5539 34.7267 23.2574Z" fill="#6B3600"/>
<path d="M24.3475 29.5163C25.8684 33.9044 29.766 32.5534 29.766 32.5534C29.766 32.5534 33.3539 31.3099 31.833 26.9218" stroke="#6B3600" stroke-width="2.73187" stroke-miterlimit="10"/>
<path d="M13.5678 38.091C16.2336 37.167 17.6456 34.2569 16.7216 31.5911C15.7977 28.9253 12.8875 27.5133 10.2217 28.4373C7.55593 29.3612 6.14391 32.2713 7.0679 34.9371C7.99189 37.603 10.902 39.015 13.5678 38.091Z" fill="#FA5569"/>
<path d="M45.2196 27.6687C47.8855 26.7447 49.2975 23.8346 48.3735 21.1688C47.4495 18.503 44.5394 17.091 41.8736 18.015C39.2078 18.9389 37.7958 21.849 38.7198 24.5149C39.6437 27.1807 42.5538 28.5927 45.2196 27.6687Z" fill="#FA5569"/>
</svg>
