<svg width="81" height="81" viewBox="0 0 81 81" fill="none" xmlns="http://www.w3.org/2000/svg">
<g opacity="0.7">
<circle cx="40.4398" cy="40.4404" r="31.4794" transform="rotate(-21.9305 40.4398 40.4404)" fill="white" stroke="#2F6E60" stroke-width="0.797141"/>
<circle cx="40.4403" cy="40.443" r="26.7013" transform="rotate(-21.9305 40.4403 40.443)" stroke="#2F6E60" stroke-width="0.797141"/>
<path d="M44.0242 37.0674C44.259 37.6506 44.9222 37.933 45.5054 37.6982L45.6531 37.6387C46.1384 37.4433 46.6902 37.6783 46.8855 38.1636L52.425 51.9223C52.4575 52.0031 52.4184 52.095 52.3376 52.1276L40.1359 57.0401C40.0551 57.0727 39.9632 57.0335 39.9306 56.9527L34.3912 43.194C34.1958 42.7087 34.4308 42.157 34.9161 41.9616L35.0638 41.9021C35.647 41.6673 35.9295 41.0042 35.6947 40.421C35.4691 39.8608 35.4723 39.2353 35.7033 38.682C35.9344 38.1287 36.3745 37.693 36.9267 37.4706L41.0915 35.7938C41.6438 35.5714 42.2631 35.5807 42.813 35.8195C43.363 36.0584 43.7987 36.5072 44.0242 37.0674ZM47.9922 37.9069C47.7606 37.3319 48.0391 36.678 48.6142 36.4465C49.1664 36.2242 49.7857 36.2334 50.3357 36.4723C50.8857 36.7111 51.3213 37.16 51.5469 37.7201L55.7984 48.2799C56.0239 48.84 56.0208 49.4655 55.7897 50.0188C55.5587 50.5721 55.1186 51.0079 54.5663 51.2302C53.9913 51.4618 53.3374 51.1833 53.1059 50.6082L47.9922 37.9069ZM31.955 43.1538C32.5301 42.9222 33.1839 43.2007 33.4154 43.7757L38.5292 56.4771C38.7607 57.0521 38.4822 57.706 37.9072 57.9375C37.3549 58.1598 36.7356 58.1506 36.1857 57.9117C35.6357 57.6729 35.2 57.224 34.9745 56.6639L30.7229 46.1041C30.2553 44.9425 30.8097 43.6149 31.955 43.1538ZM38.305 39.37C38.0134 39.4874 37.8722 39.819 37.9896 40.1106C38.107 40.4022 38.4386 40.5434 38.7302 40.426L41.839 39.1743C42.1306 39.0569 42.2718 38.7253 42.1544 38.4337C42.037 38.1421 41.7054 38.0009 41.4138 38.1183L38.305 39.37Z" fill="#2F6E60"/>
<path d="M24.3749 51.57C27.7236 48.4278 32.2931 47.0445 36.065 46.8633C38.831 46.7303 44.9368 45.3431 47.9757 42.068C51.0146 38.7929 56.0881 36.7515 61.1668 37.2695" stroke="#2F6E60" stroke-width="0.627411"/>
<path d="M25.2401 53.7185C28.5888 50.5763 33.1583 49.193 36.9302 49.0117C39.6962 48.8788 45.8021 47.4915 48.8409 44.2164C51.8798 40.9413 56.9534 38.8999 62.032 39.4179" stroke="#2F6E60" stroke-width="0.627411"/>
<path d="M26.2772 56.2956C29.6259 53.1534 34.1955 51.7701 37.9673 51.5889C40.7333 51.4559 46.8392 50.0686 49.8781 46.7935C52.9169 43.5185 57.9905 41.4771 63.0691 41.9951" stroke="#2F6E60" stroke-width="0.627411"/>
<path d="M27.2299 58.6599C30.5786 55.5177 35.1481 54.1344 38.9199 53.9531C41.686 53.8202 47.7918 52.4329 50.8307 49.1578C53.8696 45.8827 58.9431 43.8413 64.0218 44.3593" stroke="#2F6E60" stroke-width="0.627411"/>
<path d="M21.1284 34.9464C21.0549 35.2073 20.9813 35.4681 20.9057 35.7367C20.8559 35.9131 20.8084 36.0819 20.7586 36.2584C20.737 36.3351 20.7403 36.3526 20.8149 36.3819C20.8358 36.3961 20.8588 36.4026 20.8741 36.4069C21.0012 36.4262 21.1141 36.4663 21.2271 36.5064C21.2424 36.5107 21.2654 36.5172 21.2808 36.5215C21.352 36.5333 21.421 36.5528 21.4901 36.5722C21.5766 36.5883 21.6534 36.61 21.7378 36.6337C21.786 36.639 21.8155 36.6225 21.8361 36.5786C21.8404 36.5633 21.8426 36.5556 21.8469 36.5403C21.8902 36.3868 21.9356 36.2257 21.9788 36.0723C21.9961 36.0109 22.0233 35.944 22.0504 35.8771C22.0634 35.8311 22.1039 35.8342 22.1336 35.8757C22.1578 35.9074 22.1799 35.9467 22.1866 35.9817C22.2076 36.0539 22.221 36.1239 22.2246 36.1995C22.2338 36.3429 22.2234 36.4973 22.1922 36.6376C22.1674 36.7548 22.135 36.8699 22.1124 36.9795C22.0931 37.1066 22.0377 37.2152 21.9767 37.314C21.9299 37.3919 21.8699 37.4578 21.8253 37.528C21.736 37.6685 21.6148 37.7751 21.4728 37.8676C21.2936 37.9745 21.0934 38.0091 20.8898 38.0263C20.7212 38.0368 20.5666 37.9683 20.4196 37.9021C20.2781 37.8456 20.1607 37.7628 20.0574 37.6592C19.9014 37.5075 19.7868 37.3262 19.739 37.1139C19.699 36.9619 19.7073 36.8151 19.7078 36.6662C19.7131 36.618 19.7129 36.56 19.7259 36.5139C19.7603 36.3332 19.8352 36.1555 19.9178 35.98C19.9754 35.8637 20.0615 35.7638 20.1477 35.6638C20.2175 35.5924 20.2928 35.5308 20.3936 35.5261C20.4187 35.5249 20.4439 35.5237 20.4691 35.5225C20.5523 35.5211 20.5643 35.508 20.5859 35.4312C20.5903 35.4159 20.5946 35.4005 20.5989 35.3852C20.6335 35.2624 20.6604 35.1375 20.6972 35.0071C20.7621 34.7769 20.8368 34.5412 20.9038 34.3034C20.9557 34.1192 21.0131 33.9449 21.0628 33.7685C21.0737 33.7301 21.0845 33.6917 21.0876 33.6512C21.0984 33.6128 21.0797 33.591 21.0414 33.5802C21.0282 33.5682 21.0107 33.5715 20.9953 33.5672C20.8517 33.5185 20.7028 33.5179 20.5517 33.525C20.3426 33.5323 20.138 33.5823 19.9346 33.6575C19.8133 33.7061 19.6919 33.7548 19.5684 33.811C19.4624 33.864 19.3674 33.9366 19.2702 34.0169C19.0814 34.1873 18.9288 34.3761 18.7663 34.5705C18.7401 34.6046 18.7118 34.6463 18.6933 34.6825C18.6216 34.8196 18.5443 34.9469 18.4802 35.0862C18.4226 35.2025 18.3671 35.3111 18.3248 35.4317C18.2588 35.6367 18.1906 35.8493 18.1245 36.0543C18.0563 36.267 17.9957 36.4818 17.9757 36.6998C17.9502 36.9079 17.917 37.1139 17.9495 37.3218C17.955 37.3317 17.9507 37.347 17.9562 37.3568C17.9556 37.5058 17.9572 37.647 17.9643 37.7981C17.9748 37.9667 17.9852 38.1353 18.0461 38.3015C18.0549 38.3288 18.0638 38.3562 18.065 38.3813C18.0972 38.5312 18.1646 38.6744 18.2319 38.8176C18.2738 38.904 18.3354 38.9793 18.3871 39.0602C18.4367 39.1487 18.506 39.2262 18.5697 39.2938C18.6335 39.3615 18.6917 39.4193 18.7555 39.487C18.806 39.5426 18.8588 39.5906 18.9235 39.6254C18.9784 39.6657 19.0256 39.7039 19.0805 39.7442C19.1277 39.7824 19.1771 39.8129 19.2342 39.8455C19.2627 39.8618 19.2934 39.8705 19.3219 39.8868C19.5194 40.0087 19.7278 40.0923 19.9503 40.155C20.0654 40.1874 20.1805 40.2199 20.2977 40.2446C20.3843 40.2607 20.4653 40.267 20.554 40.2755C20.6022 40.2808 20.6504 40.2861 20.6986 40.2914C20.8706 40.2984 21.038 40.2628 21.2032 40.2348C21.3159 40.2169 21.421 40.1968 21.5227 40.1592C21.6495 40.1204 21.7632 40.0697 21.8791 40.0112C22.1185 39.8965 22.3413 39.7522 22.5477 39.5785C22.7082 39.4498 22.8555 39.3091 22.9863 39.1389C23.117 38.9687 23.2402 38.7964 23.3556 38.6219C23.3762 38.578 23.3969 38.5341 23.4175 38.4903C23.4653 38.3795 23.5153 38.2611 23.563 38.1503C23.637 38.0055 23.6802 37.852 23.7333 37.6931C23.7809 37.5243 23.8383 37.35 23.865 37.167C23.8833 37.0728 23.9092 36.9807 23.9177 36.892C23.9314 36.7551 23.9507 36.628 23.9644 36.4911C23.9789 36.2633 23.9956 36.0278 23.9422 35.8057C23.9312 35.786 23.9377 35.763 23.9344 35.7455C23.9162 35.5748 23.8729 35.4052 23.8296 35.2356C23.783 35.0486 23.697 34.8835 23.611 34.7185C23.5173 34.5513 23.4095 34.405 23.282 34.2697C23.1336 34.1202 22.9843 34.0036 22.8033 33.9111C22.5937 33.8024 22.382 33.7013 22.1475 33.6518C22.0631 33.628 21.9787 33.6042 21.8922 33.5881C21.8056 33.572 21.7191 33.5559 21.6325 33.5398C21.569 33.5301 21.5395 33.5467 21.5123 33.6135C21.496 33.6421 21.495 33.6749 21.4842 33.7133C21.3696 34.1199 21.2528 34.5342 21.1361 34.9486C21.1284 34.9464 21.1284 34.9464 21.1284 34.9464Z" fill="#2F6E60"/>
<path d="M29.011 26.7966C28.8984 26.8093 28.7653 26.7802 28.6586 26.7398C28.583 26.7099 28.5141 26.6844 28.4471 26.6411C28.26 26.5488 28.0615 26.43 27.8788 26.331C27.7094 26.2406 27.5358 26.1569 27.3577 26.0798C27.2487 26.0284 27.1309 25.9903 27.0049 25.9943C26.8612 25.9964 26.718 26.0272 26.5885 26.0954C26.5075 26.1475 26.4217 26.1774 26.3564 26.2492C26.3453 26.2515 26.33 26.2606 26.3233 26.2563C26.3056 26.2543 26.2922 26.2457 26.2898 26.2346C26.2831 26.2303 26.2851 26.2126 26.2827 26.2016C26.3223 26.0374 26.3045 25.874 26.2689 25.7087C26.2452 25.5985 26.2128 25.5017 26.1584 25.4096C26.0812 25.2648 25.9866 25.1468 25.8723 25.0445C25.6706 24.8573 25.4367 24.7346 25.1642 24.701C25.1398 24.6947 25.1154 24.6884 25.091 24.6822C24.9177 24.6272 24.7414 24.6651 24.5694 24.6964C24.4635 24.7134 24.3537 24.7658 24.2458 24.8006C24.2085 24.8144 24.1734 24.8392 24.136 24.853C23.9035 24.978 23.7225 25.1553 23.5507 25.348C23.4114 25.5047 23.2789 25.6659 23.1688 25.851C23.1126 25.938 23.0386 26.0231 22.9757 26.1059C22.8157 26.3536 22.6667 26.599 22.511 26.8401C22.4331 26.9606 22.362 27.0854 22.2798 27.2127C22.1371 27.4336 21.9877 27.6503 21.8449 27.8713C21.7301 28.0343 21.6244 28.2128 21.5162 28.3802C21.4297 28.5141 21.3432 28.648 21.2567 28.7819C21.2221 28.8355 21.0401 29.088 20.9579 29.2152C20.9587 29.2727 21.1927 29.3953 21.2462 29.4299C21.3199 29.4775 21.4002 29.5294 21.4739 29.577C21.5141 29.6029 21.5476 29.6246 21.5877 29.6505C21.6992 29.713 21.813 29.7865 21.9245 29.849C22.0182 29.9096 22.1033 29.9835 22.2014 30.0374C22.3574 30.1191 22.5071 30.2253 22.6611 30.3248C22.9892 30.5367 23.3173 30.7486 23.6521 30.9649C23.9668 31.1682 24.2925 31.3691 24.6073 31.5723C24.6943 31.6286 24.7814 31.6848 24.8684 31.741C24.9287 31.78 24.9933 31.8122 25.0468 31.8468C25.2209 31.9592 25.384 32.0741 25.5557 32.1755C25.5959 32.2014 25.64 32.1919 25.6659 32.1518C25.6856 32.136 25.6986 32.1159 25.7072 32.1025C25.9817 31.663 26.2585 31.2344 26.5353 30.8059C26.5655 30.759 26.5958 30.7121 26.6194 30.6609C26.656 30.5896 26.6441 30.5345 26.5771 30.4913C26.5704 30.4869 26.5571 30.4783 26.5504 30.474C26.3896 30.3702 26.2289 30.2664 26.0749 30.1669C25.8607 30.0285 25.6397 29.8858 25.4254 29.7474C25.4053 29.7344 25.3785 29.7171 25.3561 29.6931C25.3135 29.6561 25.3088 29.6341 25.3367 29.5762C25.3776 29.4982 25.4228 29.4135 25.4747 29.3332C25.5981 29.1567 25.7059 28.9606 25.847 28.7861C25.86 28.766 25.8663 28.7415 25.8793 28.7215C25.9787 28.5675 26.0825 28.4067 26.1797 28.2417L26.184 28.235C26.2906 28.1141 26.4484 28.0167 26.6244 28.1114C26.756 28.1869 26.8938 28.238 27.0143 28.3158C27.2219 28.4499 27.4755 28.5568 27.6961 28.6708C27.774 28.7116 27.8512 28.695 27.9279 28.6497C27.9716 28.6115 28.0086 28.5689 28.0388 28.5221C28.1143 28.3905 28.2008 28.2566 28.283 28.1294C28.3652 28.0021 28.443 27.8816 28.5252 27.7544C28.6376 27.5803 28.7611 27.4038 28.8736 27.2297C28.9404 27.1116 29.0139 26.9977 29.0831 26.8906C29.1004 26.8638 29.1244 26.8413 29.0972 26.7953C29.0685 26.7957 29.0397 26.7961 29.011 26.7966ZM23.988 28.6671C23.9231 28.7675 23.9121 28.7699 23.805 28.7007C23.727 28.6598 23.6466 28.6079 23.5663 28.556C23.5395 28.5387 23.517 28.5147 23.4902 28.4974C23.4678 28.4734 23.4563 28.4471 23.4669 28.416C23.4862 28.3715 23.5011 28.3337 23.5271 28.2935C23.6049 28.173 23.6895 28.0567 23.7673 27.9362C23.7933 27.896 23.8216 27.8669 23.8408 27.8224C23.9183 27.6731 24.0225 27.5412 24.1133 27.4005C24.1523 27.3403 24.1912 27.28 24.2301 27.2197C24.2777 27.1461 24.3209 27.0791 24.3709 27.0165C24.4448 26.9314 24.533 26.9124 24.6354 26.9596C24.6756 26.9855 24.7201 27.0048 24.7559 27.0374C24.841 27.1114 24.8762 27.2479 24.829 27.3503C24.7708 27.4551 24.717 27.5532 24.6564 27.6469C24.5723 27.7919 24.4748 27.9282 24.3839 28.0688C24.3839 28.0688 24.3839 28.0688 24.3772 28.0645C24.2475 28.2653 24.1244 28.4705 23.988 28.6671Z" fill="#2F6E60"/>
<path d="M34.0633 24.1384C34.1076 24.1205 34.155 24.11 34.1993 24.0922C34.4138 24.0058 34.6282 23.9194 34.85 23.8301C35.1236 23.7198 35.4045 23.6067 35.6855 23.4935C35.8999 23.4071 36.107 23.3237 36.3214 23.2373C36.3584 23.2224 36.3953 23.2075 36.4249 23.1956C36.4589 23.1733 36.4795 23.1392 36.472 23.0993C36.4675 23.0667 36.4556 23.0371 36.4363 23.0105C36.4184 22.9662 36.3932 22.9248 36.3753 22.8804C36.3038 22.703 36.2323 22.5255 36.1638 22.3555C36.0893 22.1706 36.0105 21.9961 35.939 21.8187C35.9211 21.7743 35.9003 21.7226 35.8824 21.6782C35.8556 21.6116 35.8317 21.5525 35.8049 21.4859C35.79 21.449 35.7693 21.4401 35.7294 21.4476C35.7146 21.4536 35.6924 21.4625 35.6776 21.4685C35.441 21.5638 35.2118 21.6561 34.9752 21.7515C34.5981 21.9034 34.2284 22.0523 33.8543 22.2116C33.6103 22.3099 33.3589 22.4112 33.1119 22.5021C33.0601 22.5229 33.0084 22.5438 32.9536 22.5572C32.9241 22.5691 32.8855 22.5589 32.8736 22.5293C32.8438 22.4554 32.817 22.3888 32.7872 22.3149C32.7724 22.2779 32.793 22.2438 32.8226 22.2319C32.8344 22.2185 32.8492 22.2126 32.864 22.2066C32.9379 22.1768 33.0192 22.1441 33.1006 22.1113C33.3002 22.0309 33.5072 21.9475 33.7069 21.8671C34.0914 21.7122 34.4714 21.5677 34.8559 21.4128C34.8707 21.4068 34.8855 21.4009 34.9003 21.3949C34.9491 21.3667 34.9579 21.3459 34.9474 21.2986C34.9444 21.2912 34.9415 21.2838 34.9385 21.2764C34.8223 20.988 34.7017 20.71 34.5856 20.4217C34.5736 20.3921 34.5647 20.3699 34.5454 20.3433C34.5231 20.3093 34.492 20.2961 34.4476 20.3139C34.3929 20.3274 34.3411 20.3482 34.2894 20.3691C34.0676 20.4585 33.8457 20.5478 33.6239 20.6372C33.3947 20.7295 33.1625 20.8145 32.9407 20.9038C32.7824 20.959 32.6301 21.0289 32.4749 21.0915C32.4379 21.1064 32.4083 21.1183 32.3714 21.1332C32.3388 21.1377 32.3107 21.1318 32.2958 21.0949C32.2779 21.0505 32.2556 21.0165 32.2451 20.9692C32.1915 20.8361 32.147 20.811 32.3541 20.7276C32.4428 20.6919 32.5315 20.6561 32.6232 20.6278C32.7637 20.5712 32.9116 20.5116 33.0521 20.455C33.2591 20.3716 33.4662 20.2882 33.6732 20.2048C34.0281 20.0618 34.383 19.9189 34.7379 19.7759C34.8119 19.7461 34.8754 19.7119 34.9464 19.6747C34.9952 19.6465 35.004 19.6257 34.9905 19.571C34.9697 19.5192 34.9488 19.4675 34.928 19.4157C34.7969 19.0904 34.6629 18.7577 34.5289 18.4249C34.4931 18.3362 34.4574 18.2475 34.4216 18.1587C34.3755 18.0656 34.3548 18.0568 34.266 18.0925C34.2513 18.0985 34.2365 18.1044 34.2217 18.1104C33.9925 18.2027 33.7633 18.2951 33.534 18.3874C33.3492 18.4619 33.1614 18.5289 32.9839 18.6004C32.9026 18.6332 32.8242 18.6734 32.7503 18.7031C32.4885 18.8 32.2371 18.9013 31.9753 18.9981C31.8422 19.0517 31.7092 19.1054 31.5761 19.159C31.446 19.22 31.3039 19.2514 31.1768 19.3198C31.1132 19.354 31.0333 19.369 30.9668 19.3958C30.7302 19.4911 30.501 19.5835 30.2614 19.6714C30.2318 19.6833 30.2096 19.6923 30.18 19.7042C30.0913 19.7399 30.0026 19.7757 29.9168 19.8188C29.8355 19.8516 29.7438 19.8799 29.6654 19.9201C29.6063 19.9439 29.5886 19.9854 29.5977 20.0505C29.6096 20.0801 29.6215 20.1096 29.6334 20.1392C29.6765 20.225 29.7227 20.3181 29.7584 20.4068C29.812 20.5399 29.8656 20.673 29.9163 20.7987C30.1665 21.4198 30.4167 22.0409 30.6639 22.6546C30.7562 22.8838 30.8486 23.113 30.9379 23.3349C31.0452 23.601 31.1598 23.8643 31.267 24.1304C31.3534 24.3449 31.4324 24.5623 31.5218 24.7841C31.5515 24.858 31.5769 24.9423 31.6097 25.0237C31.6053 25.034 31.6112 25.0488 31.6246 25.0606C31.6424 25.105 31.6706 25.1109 31.7179 25.1004C31.7327 25.0944 31.7401 25.0914 31.7549 25.0855C31.9176 25.02 32.0802 24.9544 32.2399 24.8815C32.6244 24.7266 33.0059 24.5643 33.3904 24.4094C33.4717 24.3767 33.556 24.3513 33.63 24.3215C33.7779 24.262 33.9154 24.198 34.0603 24.131L34.0633 24.1384Z" fill="#2F6E60"/>
<path d="M43.0244 22.3921C43.071 22.4028 43.1158 22.4212 43.1625 22.4318C43.3878 22.4832 43.6132 22.5347 43.8464 22.5879C44.1339 22.6535 44.4293 22.7208 44.7246 22.7882C44.95 22.8396 45.1676 22.8893 45.393 22.9407C45.4318 22.9496 45.4707 22.9584 45.5018 22.9655C45.5424 22.9666 45.5788 22.9504 45.5954 22.9133C45.6103 22.884 45.6174 22.8529 45.6167 22.8201C45.6273 22.7734 45.6302 22.725 45.6409 22.6784C45.6834 22.4919 45.726 22.3053 45.7667 22.1266C45.8111 21.9323 45.8459 21.744 45.8884 21.5575C45.899 21.5109 45.9115 21.4565 45.9221 21.4098C45.9381 21.3399 45.9522 21.2777 45.9682 21.2078C45.9771 21.1689 45.9651 21.1498 45.928 21.1332C45.9124 21.1296 45.8891 21.1243 45.8736 21.1208C45.6249 21.064 45.384 21.0091 45.1353 20.9523C44.7389 20.8619 44.3503 20.7732 43.9522 20.6906C43.6957 20.6321 43.4315 20.5718 43.1768 20.5055C43.1224 20.4931 43.068 20.4807 43.0154 20.4605C42.9843 20.4534 42.9585 20.423 42.9656 20.3919C42.9833 20.3142 42.9993 20.2442 43.017 20.1665C43.0259 20.1277 43.0623 20.1114 43.0934 20.1185C43.1107 20.1143 43.1262 20.1179 43.1418 20.1214C43.2195 20.1391 43.305 20.1586 43.3905 20.1781C43.6003 20.226 43.8179 20.2757 44.0278 20.3235C44.4319 20.4157 44.8265 20.5139 45.2306 20.6061C45.2461 20.6097 45.2617 20.6132 45.2772 20.6168C45.3334 20.6214 45.3525 20.6094 45.3709 20.5646C45.3727 20.5568 45.3744 20.549 45.3762 20.5412C45.4454 20.2381 45.505 19.9411 45.5741 19.638C45.5812 19.6069 45.5865 19.5836 45.5859 19.5507C45.5869 19.5101 45.569 19.4814 45.5223 19.4708C45.4697 19.4506 45.4153 19.4382 45.3609 19.4258C45.1277 19.3726 44.8946 19.3194 44.6614 19.2662C44.4205 19.2112 44.1814 19.1485 43.9482 19.0953C43.7868 19.0503 43.6218 19.0208 43.4586 18.9836C43.4197 18.9747 43.3886 18.9676 43.3498 18.9588C43.3205 18.9439 43.3007 18.9231 43.3096 18.8842C43.3202 18.8376 43.3213 18.7969 43.3397 18.7521C43.3716 18.6122 43.3494 18.5662 43.567 18.6159C43.6603 18.6372 43.7535 18.6584 43.845 18.6875C43.9927 18.7212 44.1481 18.7566 44.2958 18.7903C44.5134 18.84 44.731 18.8896 44.9486 18.9393C45.3217 19.0244 45.6947 19.1095 46.0677 19.1946C46.1455 19.2123 46.2172 19.2205 46.2967 19.2305C46.3528 19.2351 46.3719 19.2231 46.3921 19.1705C46.4045 19.1161 46.4169 19.0617 46.4293 19.0073C46.5074 18.6653 46.5871 18.3156 46.6669 17.9659C46.6882 17.8726 46.7095 17.7793 46.7308 17.6861C46.746 17.5833 46.734 17.5642 46.6408 17.5429C46.6252 17.5394 46.6097 17.5358 46.5942 17.5323C46.3532 17.4773 46.1123 17.4223 45.8714 17.3674C45.6771 17.323 45.4846 17.2709 45.2981 17.2284C45.2126 17.2089 45.1253 17.1972 45.0476 17.1794C44.7774 17.1096 44.5131 17.0493 44.2429 16.9795C44.103 16.9476 43.9631 16.9156 43.8232 16.8837C43.6815 16.8596 43.547 16.8044 43.4035 16.788C43.3318 16.7798 43.2576 16.7465 43.1877 16.7306C42.939 16.6738 42.6981 16.6189 42.4512 16.5544C42.4201 16.5473 42.3968 16.5419 42.3657 16.5348C42.2724 16.5136 42.1791 16.4923 42.0841 16.4788C41.9986 16.4593 41.9071 16.4302 41.8199 16.4185C41.7577 16.4043 41.7195 16.4283 41.6898 16.4869C41.6827 16.518 41.6756 16.5491 41.6685 16.5802C41.655 16.6752 41.6397 16.778 41.6185 16.8713C41.5865 17.0112 41.5546 17.1511 41.5245 17.2832C41.3755 17.936 41.2266 18.5889 41.0794 19.2339C41.0245 19.4748 40.9695 19.7158 40.9163 19.9489C40.8525 20.2287 40.7964 20.5102 40.7326 20.79C40.6812 21.0154 40.622 21.239 40.5688 21.4722C40.5511 21.5499 40.5238 21.6336 40.5043 21.7191C40.4947 21.7251 40.4912 21.7406 40.4954 21.7579C40.4848 21.8046 40.5045 21.8254 40.5494 21.8438C40.5649 21.8474 40.5727 21.8492 40.5883 21.8527C40.7592 21.8917 40.9302 21.9307 41.103 21.962C41.5071 22.0542 41.913 22.1386 42.3171 22.2308C42.4026 22.2503 42.4863 22.2776 42.564 22.2953C42.7195 22.3308 42.8689 22.3567 43.0261 22.3844L43.0244 22.3921Z" fill="#2F6E60"/>
<path d="M53.9978 24.0585C53.989 23.9235 53.981 23.7998 53.9722 23.6648C53.9591 23.4623 53.9459 23.2598 53.9328 23.0573C53.9291 23.001 53.9367 22.9441 53.9331 22.8878C53.9294 22.8316 53.9318 22.7806 53.9281 22.7243C53.9091 22.4318 53.8901 22.1394 53.8712 21.8469C53.8647 21.6609 53.8583 21.4749 53.8519 21.2889C53.8395 21.0977 53.827 20.9064 53.8259 20.7145C53.8193 20.6132 53.7864 20.5419 53.7146 20.4788C53.5835 20.3743 53.4637 20.2691 53.3379 20.1587C52.9905 19.8536 52.6491 19.5538 52.3076 19.254C52.247 19.1902 52.1811 19.1323 52.1152 19.0745C52.0553 19.0219 52.0156 19.0188 51.963 19.0787C51.9149 19.1214 51.8736 19.1805 51.8315 19.2285C51.6579 19.4261 51.4836 19.6125 51.3161 19.8155C51.0478 20.121 50.7856 20.4317 50.5173 20.7372C50.3701 20.9049 50.2108 21.0621 50.0815 21.2456C50.071 21.2576 50.0545 21.2643 50.0387 21.2823C49.9914 21.3362 49.944 21.3901 49.8967 21.444C49.7487 21.6005 49.6187 21.7727 49.4707 21.9292C49.4121 21.9838 49.3595 22.0437 49.3069 22.1036C49.1228 22.3133 48.9334 22.5289 48.7441 22.7446C48.7388 22.7505 48.7336 22.7565 48.7283 22.7625C48.6269 22.8538 48.5495 22.9662 48.4601 23.068C48.4496 23.08 48.439 23.092 48.4345 23.1092C48.4089 23.1504 48.4111 23.1842 48.4471 23.2157C48.5609 23.3157 48.6634 23.4163 48.7773 23.5163C48.8491 23.5794 48.9203 23.6312 48.9922 23.6943C49.2318 23.9047 49.4773 24.1204 49.7169 24.3308C49.7529 24.3623 49.7828 24.3886 49.824 24.4142C49.8652 24.4398 49.8877 24.4383 49.9133 24.3971C49.9494 24.3439 49.9915 24.296 50.0335 24.2481C50.1801 24.0691 50.3386 23.9007 50.4911 23.727C50.6437 23.5532 50.7902 23.3743 50.9427 23.2006C51.2162 22.8891 51.4957 22.5829 51.764 22.2774C51.7955 22.2414 51.8218 22.2115 51.8594 22.1808C51.8969 22.1501 51.9321 22.1704 51.9403 22.2095C51.941 22.2207 51.947 22.226 51.9418 22.232C51.9527 22.4007 51.9637 22.5694 51.9694 22.7442C51.9707 22.8514 51.9667 22.9646 51.9681 23.0719C51.9767 23.2916 51.9853 23.5113 51.9939 23.7311C51.9983 23.7986 52.0087 23.8713 52.0078 23.9448C52.0135 24.1195 52.0139 24.3003 52.0196 24.475C52.02 24.6557 52.0257 24.8305 52.0262 25.0112C52.0266 25.1919 52.027 25.3726 52.0387 25.5526C52.0392 25.7333 52.0516 25.9246 52.052 26.1053C52.0564 26.1728 52.0548 26.2351 52.0532 26.2973C52.0463 26.3655 52.0672 26.4263 52.1264 26.4676C52.2095 26.53 52.2814 26.5931 52.3592 26.6615C52.4723 26.7502 52.5742 26.8396 52.682 26.9343C52.7119 26.9606 52.7359 26.9816 52.7606 27.0139C52.8145 27.0613 52.8684 27.1086 52.9163 27.1507C52.9822 27.2085 53.0481 27.2664 53.108 27.319C53.1978 27.3979 53.2817 27.4715 53.3715 27.5504C53.4075 27.582 53.4487 27.6075 53.4899 27.6331C53.5079 27.6489 53.5304 27.6474 53.5461 27.6294C53.5619 27.6115 53.583 27.5875 53.5987 27.5695C53.6829 27.4737 53.7723 27.3719 53.8565 27.276C54.0833 27.0297 54.3043 26.7781 54.5364 26.5258C54.6679 26.3761 54.8046 26.2203 54.9361 26.0706C55.1097 25.8729 55.278 25.6812 55.4516 25.4836C55.9039 24.9684 56.3562 24.4533 56.8086 23.9382C56.8559 23.8843 56.9085 23.8244 56.9558 23.7704C57.0137 23.7046 57.0716 23.6387 57.1294 23.5728C57.1767 23.5189 57.1693 23.4911 57.1214 23.449C57.1094 23.4385 57.1034 23.4333 57.0974 23.428C56.732 23.1072 56.3726 22.7916 56.002 22.4767C55.9361 22.4189 55.8815 22.3603 55.8103 22.3084C55.7624 22.2663 55.7399 22.2678 55.7038 22.321C55.6039 22.4348 55.5152 22.5479 55.4153 22.6617C55.2372 22.8766 55.0591 23.0915 54.8697 23.3071C54.8224 23.361 54.7803 23.409 54.733 23.4629C54.6015 23.6126 54.4752 23.7564 54.3437 23.9061C54.2754 23.984 54.207 24.0619 54.1386 24.1397C54.1123 24.1697 54.0913 24.1937 54.0403 24.1913C53.9984 24.1545 54.0007 24.1035 53.9978 24.0585Z" fill="#2F6E60"/>
</g>
</svg>
