<svg width="135" height="118" viewBox="0 0 135 118" fill="none" xmlns="http://www.w3.org/2000/svg">
<path d="M71.9971 5.41634L80.4063 27.1414L102.454 15.2017L97.27 37.3831L123.545 36.7224L106.157 53.4167L129.618 64.2122L104.686 70.9461L119.048 90.305L93.2507 85.2743L94.6649 108.009L74.916 92.562L63.0034 112.582L54.5942 90.8565L32.5467 102.796L37.7305 80.6148L11.4559 81.2755L28.8437 64.5812L5.38203 53.7857L30.3148 47.0518L15.9527 27.6929L41.7498 32.7236L40.3355 9.98844L60.0845 25.4359L71.9971 5.41634Z" fill="#FFB514"/>
<path d="M49.2928 46.2586L47.9144 66.2248L41.4405 66.0174L41.3424 46.004L49.2928 46.2586ZM44.3719 75.6617C43.274 75.6265 42.3445 75.213 41.5835 74.4212C40.8322 73.6202 40.4791 72.6662 40.524 71.5591C40.5491 70.4798 40.962 69.5693 41.7626 68.8275C42.5728 68.086 43.5268 67.7328 44.6247 67.768C45.6658 67.8013 46.5717 68.214 47.3422 69.0062C48.1221 69.7986 48.4995 70.7344 48.4745 71.8137C48.4414 72.5517 48.2258 73.2175 47.8278 73.8111C47.4396 74.3956 46.9416 74.8581 46.3338 75.1986C45.7263 75.5297 45.0723 75.6841 44.3719 75.6617ZM63.5043 46.7138L62.1259 66.6799L55.6519 66.4725L55.5538 46.4591L63.5043 46.7138ZM58.5834 76.1168C57.4855 76.0816 56.556 75.6681 55.795 74.8763C55.0437 74.0753 54.6905 73.1213 54.7355 72.0142C54.7605 70.9349 55.1734 70.0244 55.9741 69.2826C56.7842 68.5411 57.7383 68.1879 58.8362 68.2231C59.8773 68.2564 60.7831 68.6692 61.5536 69.4613C62.3336 70.2537 62.711 71.1895 62.6859 72.2688C62.6528 73.0068 62.4373 73.6726 62.0393 74.2662C61.6511 74.8507 61.153 75.3132 60.5452 75.6538C59.9377 75.9849 59.2838 76.1392 58.5834 76.1168ZM77.7158 47.1689L76.3374 67.135L69.8634 66.9276L69.7653 46.9143L77.7158 47.1689ZM72.7949 76.5719C71.6969 76.5367 70.7675 76.1232 70.0064 75.3314C69.2552 74.5304 68.902 73.5764 68.9469 72.4693C68.972 71.39 69.3849 70.4795 70.1856 69.7377C70.9957 68.9962 71.9497 68.643 73.0476 68.6782C74.0888 68.7115 74.9946 69.1243 75.7651 69.9164C76.545 70.7088 76.9225 71.6446 76.8974 72.7239C76.8643 73.4619 76.6487 74.1277 76.2507 74.7213C75.8625 75.3058 75.3645 75.7683 74.7567 76.1089C74.1492 76.44 73.4952 76.5943 72.7949 76.5719ZM91.9272 47.624L90.5488 67.5901L84.0749 67.3828L83.9768 47.3694L91.9272 47.624ZM87.0063 77.027C85.9084 76.9918 84.9789 76.5783 84.2179 75.7865C83.4666 74.9856 83.1135 74.0315 83.1584 72.9244C83.1835 71.8451 83.5964 70.9346 84.397 70.1928C85.2072 69.4513 86.1612 69.0981 87.2591 69.1333C88.3002 69.1666 89.2061 69.5794 89.9765 70.3715C90.7565 71.1639 91.1339 72.0998 91.1089 73.179C91.0757 73.917 90.8602 74.5828 90.4622 75.1764C90.074 75.7609 89.576 76.2234 88.9682 76.564C88.3607 76.8951 87.7067 77.0494 87.0063 77.027Z" fill="#FFE1E7"/>
<path d="M47.2928 44.2586L45.9144 64.2248L39.4405 64.0174L39.3424 44.004L47.2928 44.2586ZM42.3719 73.6617C41.274 73.6265 40.3445 73.213 39.5835 72.4212C38.8322 71.6202 38.4791 70.6662 38.524 69.5591C38.5491 68.4798 38.962 67.5693 39.7626 66.8275C40.5728 66.086 41.5268 65.7328 42.6247 65.768C43.6658 65.8013 44.5717 66.214 45.3422 67.0062C46.1221 67.7986 46.4995 68.7344 46.4745 69.8137C46.4414 70.5517 46.2258 71.2175 45.8278 71.8111C45.4396 72.3956 44.9416 72.8581 44.3338 73.1986C43.7263 73.5297 43.0723 73.6841 42.3719 73.6617ZM61.5043 44.7138L60.1259 64.6799L53.6519 64.4725L53.5538 44.4591L61.5043 44.7138ZM56.5834 74.1168C55.4855 74.0816 54.556 73.6681 53.795 72.8763C53.0437 72.0753 52.6905 71.1213 52.7355 70.0142C52.7605 68.9349 53.1734 68.0244 53.9741 67.2826C54.7842 66.5411 55.7383 66.1879 56.8362 66.2231C57.8773 66.2564 58.7831 66.6692 59.5536 67.4613C60.3336 68.2537 60.711 69.1895 60.6859 70.2688C60.6528 71.0068 60.4373 71.6726 60.0393 72.2662C59.6511 72.8507 59.153 73.3132 58.5452 73.6538C57.9377 73.9849 57.2838 74.1392 56.5834 74.1168ZM75.7158 45.1689L74.3374 65.135L67.8634 64.9276L67.7653 44.9143L75.7158 45.1689ZM70.7949 74.5719C69.6969 74.5367 68.7675 74.1232 68.0064 73.3314C67.2552 72.5304 66.902 71.5764 66.9469 70.4693C66.972 69.39 67.3849 68.4795 68.1856 67.7377C68.9957 66.9962 69.9497 66.643 71.0476 66.6782C72.0888 66.7115 72.9946 67.1243 73.7651 67.9164C74.545 68.7088 74.9225 69.6446 74.8974 70.7239C74.8643 71.4619 74.6487 72.1277 74.2507 72.7213C73.8625 73.3058 73.3645 73.7683 72.7567 74.1089C72.1492 74.44 71.4952 74.5943 70.7949 74.5719ZM89.9272 45.624L88.5488 65.5901L82.0749 65.3828L81.9768 45.3694L89.9272 45.624ZM85.0063 75.027C83.9084 74.9918 82.9789 74.5783 82.2179 73.7865C81.4666 72.9856 81.1135 72.0315 81.1584 70.9244C81.1835 69.8451 81.5964 68.9346 82.397 68.1928C83.2072 67.4513 84.1612 67.0981 85.2591 67.1333C86.3002 67.1666 87.2061 67.5794 87.9765 68.3715C88.7565 69.1639 89.1339 70.0998 89.1089 71.179C89.0757 71.917 88.8602 72.5828 88.4622 73.1764C88.074 73.7609 87.576 74.2234 86.9682 74.564C86.3607 74.8951 85.7067 75.0494 85.0063 75.027Z" fill="#FA5569"/>
</svg>
