<svg width="32" height="32" viewBox="0 0 32 32" fill="none" xmlns="http://www.w3.org/2000/svg">
<path d="M14.0371 30.037C21.7896 31.1211 28.953 25.7154 30.0371 17.963C31.1213 10.2106 25.7156 3.04714 17.9631 1.963C10.2107 0.878866 3.04728 6.28458 1.96315 14.037C0.879009 21.7894 6.28472 28.9529 14.0371 30.037Z" fill="#F8EDD3"/>
<path d="M14.2521 28.5001C21.1557 29.4655 27.5347 24.6517 28.5002 17.7481C29.4656 10.8445 24.6518 4.46545 17.7482 3.50002C10.8446 2.53459 4.46553 7.34841 3.5001 14.252C2.53467 21.1556 7.34849 27.5347 14.2521 28.5001Z" fill="#F8EDD3" stroke="#007F05" stroke-width="0.923565" stroke-miterlimit="10"/>
<path d="M14.9193 24.3073C19.4251 24.9374 23.5885 21.7956 24.2186 17.2898C24.8487 12.7841 21.7069 8.62062 17.2011 7.99052C12.6954 7.36041 8.53192 10.5022 7.90182 15.008C7.27171 19.5138 10.4135 23.6772 14.9193 24.3073Z" fill="#0085CD"/>
<path d="M11.8649 9.06213C13.0716 8.56936 12.5627 11.1243 12.4269 11.7561C12.2925 12.3882 12.695 13.3755 11.2764 13.2705C9.85782 13.1655 9.73065 14.4034 9.73065 14.4034C9.73065 14.4034 9.51445 15.8508 7.82383 16.0156C7.69633 13.6534 9.6125 9.98135 11.8649 9.06213Z" fill="#007B00"/>
<path d="M7.83032 16.5074C7.83032 16.5074 10.4848 15.9982 10.1977 18.0513L9.91058 20.1044C9.91058 20.1044 11.2466 20.1978 11.4453 21.1091C11.644 22.0205 12.2361 23.4478 12.2361 23.4478C12.2361 23.4478 8.11477 21.6127 7.83053 16.5059L7.83032 16.5074Z" fill="#007B00"/>
<path d="M14.128 8.14302C14.128 8.14302 13.3259 9.32326 14.763 9.36191C16.2 9.40056 16.9556 9.3194 17.4093 9.73199C17.8631 10.1446 20.4835 9.20025 20.4835 9.20025C20.4835 9.20025 17.9416 7.3824 14.128 8.14302Z" fill="#007B00"/>
<path d="M13.0508 23.8182C13.0508 23.8182 13.9555 23.1086 14.6659 23.3611C15.3748 23.6133 16.0447 24.145 16.354 23.5972C16.6634 23.0493 19.2009 23.1362 19.3613 23.3792C19.3613 23.3792 19.9939 22.8306 20.3574 23.177C20.0082 23.5385 16.3349 25.2559 13.0508 23.8182Z" fill="#007B00"/>
<path d="M15.5768 14.054C16.419 14.2514 14.7383 14.3778 14.7724 15.0869C14.8064 15.7961 15.3402 15.1219 15.3351 15.7827C15.3317 16.4422 15.1996 16.116 15.3317 16.4422C15.4637 16.7685 15.8132 17.1267 16.09 16.856C16.3667 16.5854 16.7357 15.8408 16.7626 15.6485C16.7895 15.4563 17.1279 14.9309 17.251 14.9925C17.374 15.0541 18.2376 15.1749 18.2329 15.5264C18.2281 15.878 19.4806 16.3609 19.4806 16.3609C19.4806 16.3609 18.8393 16.2268 18.8464 16.8005C18.8549 17.3744 19.5072 19.0061 20.4011 18.9106C21.2949 18.8151 22.3784 17.9988 22.4267 17.6534C22.475 17.308 22.4604 16.7776 22.6321 16.1845C22.8039 15.5914 23.5126 15.8667 23.44 16.3863C23.3673 16.906 23.4521 19.0264 23.7612 19.0712C24.0774 18.2885 24.6166 15.4514 23.7486 13.1939C22.8806 10.9363 22.2751 11.2039 22.0302 11.214C21.7838 11.224 20.8005 10.5245 20.4275 11.166C20.0486 11.8174 19.3984 11.287 19.3863 11.6804C19.3742 12.0737 19.3211 12.4644 19.6665 12.5128C20.0119 12.5611 19.5008 13.0623 18.9406 12.9839C18.3804 12.9056 16.9597 12.6625 16.9053 13.0515C16.8509 13.4405 15.4655 12.0141 15.375 12.6614C15.2844 13.3087 15.1066 13.9454 15.5768 14.054Z" fill="#007B00"/>
<path d="M15.405 10.5086C14.9075 10.9673 13.9414 11.2732 14.5016 11.3515C15.0618 11.4299 15.9292 12.4761 16.0755 11.7477C16.2217 11.0194 15.405 10.5086 15.405 10.5086Z" fill="#007B00"/>
<path d="M14.7281 16.9813C13.6614 16.8674 12.6111 17.0742 12.6694 17.5663C12.7277 18.0583 11.8151 20.0944 13.068 20.311C14.3195 20.5273 14.1739 22.2036 14.7732 22.3196C15.3741 22.4358 16.752 21.7036 16.915 20.5381C17.078 19.3726 18.0011 18.4436 17.2019 18.4865C16.4027 18.5294 15.8113 17.0976 14.7264 16.9826L14.7281 16.9813Z" fill="#007B00"/>
<path d="M18.5922 19.8902C17.8672 20.1793 17.941 20.7684 18.4533 20.883C18.9654 20.999 19.5718 19.4989 18.5922 19.8902Z" fill="#007B00"/>
<path d="M14.2488 18.834C14.0411 20.3194 15.57 20.5332 15.57 20.5332C15.57 20.5332 16.9803 20.7304 17.188 19.245" stroke="#442009" stroke-width="0.793144" stroke-miterlimit="10"/>
<path d="M25.0201 13.2235C24.8976 13.2018 24.7705 13.2453 24.6503 13.3387C24.7017 12.4455 24.4235 11.719 23.976 11.6564C23.5284 11.5939 23.0674 12.2077 22.8698 13.0729C22.7316 12.977 22.5824 12.927 22.4289 12.9408C21.8894 12.9878 21.5188 13.7767 21.5994 14.7006C21.6227 14.9611 21.6792 15.2033 21.7596 15.4166C21.9704 16.0556 22.5449 16.557 23.2778 16.6595C24.0573 16.7685 24.7882 16.393 25.1477 15.771C25.2978 15.5302 25.4178 15.2085 25.4824 14.8455C25.6271 14.0189 25.4207 13.2933 25.0203 13.222L25.0201 13.2235Z" fill="#ED0000"/>
<path d="M24.431 14.2173C24.3503 14.2029 24.2682 14.2313 24.1893 14.2922C24.2218 13.7087 24.0416 13.2348 23.7487 13.1939C23.4558 13.1529 23.1563 13.5536 23.0267 14.1189C22.936 14.0557 22.8394 14.0238 22.7387 14.0327C22.3868 14.0631 22.1447 14.579 22.1967 15.1819C22.2111 15.3524 22.2487 15.5107 22.3012 15.6498C22.4388 16.0672 22.8141 16.3953 23.2932 16.4623C23.8023 16.5335 24.2792 16.2878 24.5137 15.8811C24.6108 15.7232 24.6906 15.5138 24.7316 15.2761C24.8269 14.7366 24.6912 14.2613 24.4297 14.2155L24.431 14.2173Z" fill="#FFB200"/>
<path d="M17.6346 17.6268C17.873 15.9221 16.1173 15.6766 16.1173 15.6766C16.1173 15.6766 14.4982 15.4502 14.2598 17.1549" stroke="#442009" stroke-width="0.911433" stroke-miterlimit="10"/>
<path d="M7.57303 14.7773C7.57093 14.7923 7.56883 14.8073 7.56952 14.8243C7.39697 16.8903 8.89942 18.8048 10.9456 19.1307C13.1745 19.4853 15.2525 17.9414 15.5638 15.7156L15.5661 15.6991C15.6865 14.8048 15.0158 13.9944 14.1222 13.8694L9.58943 13.2355C8.60418 13.0977 7.66684 13.7889 7.57282 14.7788L7.57303 14.7773Z" fill="#442009"/>
<path d="M16.7571 16.0615C16.755 16.0765 16.7529 16.0915 16.7536 16.1084C16.5811 18.1745 18.0835 20.089 20.1296 20.4149C22.3586 20.7695 24.4366 19.2256 24.7478 16.9998L24.7501 16.9832C24.8706 16.089 24.1999 15.2785 23.3063 15.1536L18.7735 14.5197C17.7883 14.3819 16.8509 15.0731 16.7569 16.063L16.7571 16.0615Z" fill="#442009"/>
<path d="M11.5681 9.56561C11.4456 9.54388 11.32 9.58758 11.1998 9.68101C11.2506 8.79231 10.9748 8.07079 10.5287 8.00841C10.0826 7.94603 9.62526 8.55583 9.42834 9.41644C9.29015 9.32055 9.14224 9.2723 8.99043 9.28476C8.45397 9.33224 8.08568 10.1153 8.16539 11.0345C8.18738 11.2933 8.24407 11.534 8.32599 11.7476C8.53568 12.3833 9.10593 12.8826 9.83586 12.9847C10.6109 13.093 11.3383 12.7201 11.6944 12.1007C11.8428 11.8611 11.9641 11.5412 12.0267 11.1809C12.1708 10.3589 11.9655 9.6365 11.5679 9.56711L11.5681 9.56561Z" fill="#ED0000"/>
<path d="M10.9827 10.5539C10.9035 10.5397 10.8214 10.5681 10.7425 10.629C10.7761 10.0488 10.5957 9.57639 10.3043 9.53565C10.0129 9.4949 9.71513 9.89427 9.58617 10.4551C9.49698 10.3921 9.39887 10.36 9.2996 10.369C8.94924 10.3997 8.70926 10.9113 8.76144 11.5127C8.77609 11.6816 8.81387 11.8385 8.8664 11.9776C9.00446 12.3919 9.37538 12.7179 9.85299 12.7847C10.3591 12.8555 10.8343 12.6111 11.0669 12.2072C11.1638 12.0508 11.2421 11.8412 11.2841 11.6067C11.3775 11.07 11.2444 10.5981 10.9844 10.5526L10.9827 10.5539Z" fill="#FFB200"/>
<path d="M21.4146 25.2097C22.4656 25.3566 23.4367 24.6238 23.5837 23.5728C23.7307 22.5219 22.9978 21.5508 21.9469 21.4038C20.8959 21.2568 19.9248 21.9897 19.7778 23.0406C19.6309 24.0916 20.3637 25.0627 21.4146 25.2097Z" fill="#0085CD"/>
<path d="M25.9103 20.5215C26.1753 20.243 26.1643 19.8024 25.8857 19.5374C25.6072 19.2724 25.1666 19.2834 24.9016 19.5619L21.7972 22.8253C21.5322 23.1038 21.5432 23.5444 21.8217 23.8094C22.1003 24.0743 22.5409 24.0633 22.8058 23.7848L25.9103 20.5215Z" fill="#0085CD"/>
<path d="M23.0907 18.3258C23.1446 17.9452 22.8797 17.5929 22.4991 17.539C22.1184 17.4851 21.7662 17.75 21.7123 18.1306L21.0807 22.5902C21.0268 22.9708 21.2916 23.3231 21.6723 23.377C22.0529 23.4309 22.4052 23.1661 22.4591 22.7854L23.0907 18.3258Z" fill="#0085CD"/>
<path d="M23.3495 23.7904C23.3495 23.7904 22.2089 21.5775 21.5909 22.5584C20.9729 23.5392 21.8659 24.5553 21.8659 24.5553" stroke="#0075A8" stroke-width="0.462541" stroke-miterlimit="10" stroke-linecap="round"/>
</svg>
