<svg width="21" height="18" viewBox="0 0 21 18" fill="none" xmlns="http://www.w3.org/2000/svg">
<path d="M14.128 2.44987C14.128 3.0069 14.5796 3.45846 15.1366 3.45847L15.2941 3.45847C15.7641 3.45847 16.1452 3.83954 16.1452 4.3096L16.1451 17.4389C16.1451 17.5161 16.0825 17.5787 16.0053 17.5787L4.18187 17.5786C4.10466 17.5786 4.04207 17.516 4.04207 17.4388L4.04214 4.30953C4.04215 3.83947 4.42321 3.45841 4.89328 3.45841L5.05074 3.45841C5.60777 3.45841 6.05933 3.00686 6.05933 2.44983V2.44983C6.05933 1.91484 6.27186 1.40176 6.65016 1.02347C7.02845 0.64518 7.54153 0.43266 8.07652 0.432663L12.1109 0.432685C12.6459 0.432688 13.1589 0.645214 13.5372 1.02351C13.9155 1.40181 14.128 1.91488 14.128 2.44987V2.44987ZM17.1538 4.46707C17.1538 3.91004 17.6054 3.45848 18.1624 3.45848V3.45848C18.6974 3.45849 19.2105 3.67101 19.5887 4.04931C19.967 4.42761 20.1796 4.94068 20.1796 5.47567L20.1795 15.5616C20.1795 16.0965 19.967 16.6096 19.5887 16.9879C19.2104 17.3662 18.6973 17.5787 18.1623 17.5787V17.5787C17.6053 17.5787 17.1537 17.1272 17.1537 16.5701L17.1538 4.46707ZM2.02497 3.45839C2.582 3.4584 3.03356 3.90996 3.03355 4.46699L3.03349 16.57C3.03348 17.1271 2.58192 17.5786 2.02489 17.5786V17.5786C1.4899 17.5786 0.976829 17.3661 0.598537 16.9878C0.220245 16.6095 0.00772437 16.0964 0.00772738 15.5614L0.00778413 5.47556C0.00779037 4.36611 0.915525 3.45839 2.02497 3.45839V3.45839ZM8.5808 2.44984C8.30229 2.44984 8.07651 2.67562 8.07651 2.95413V2.95413C8.0765 3.23265 8.30228 3.45843 8.5808 3.45843L11.6066 3.45845C11.8851 3.45845 12.1109 3.23267 12.1109 2.95416V2.95416C12.1109 2.67564 11.8851 2.44986 11.6066 2.44986L8.5808 2.44984Z" fill="white"/>
</svg>
