<svg width="31" height="32" viewBox="0 0 31 32" fill="none" xmlns="http://www.w3.org/2000/svg">
<g clip-path="url(#clip0_1_2)">
<path d="M13.2616 29.2529C20.5859 30.4638 27.4855 25.3877 28.6723 17.9152C29.8592 10.4426 24.8838 3.40335 17.5595 2.19248C10.2352 0.981606 3.33561 6.05768 2.14877 13.5302C0.961925 21.0027 5.93731 28.042 13.2616 29.2529Z" fill="white"/>
<path d="M13.6166 27.0188C19.7595 28.0343 25.5135 23.777 26.5015 17.5559C27.4896 11.3349 23.3478 5.44157 17.2049 4.42601C11.062 3.41045 5.30804 7.66779 4.31997 13.8888C3.33191 20.1098 7.47372 26.0032 13.6166 27.0188Z" fill="white" stroke="white" stroke-width="2"/>
<path d="M15.0309 9.79546C15.1525 9.43081 15.6683 9.43081 15.7899 9.79546L17.1443 13.8581C17.1824 13.9726 17.2703 14.0638 17.3833 14.1061L20.6908 15.3466C21.0368 15.4764 21.0368 15.9659 20.6908 16.0957L17.3833 17.3361C17.2703 17.3785 17.1824 17.4697 17.1443 17.5842L15.7899 21.6468C15.6683 22.0115 15.1525 22.0115 15.0309 21.6468L13.6765 17.5842C13.6383 17.4697 13.5505 17.3785 13.4375 17.3361L10.13 16.0957C9.78396 15.9659 9.78396 15.4764 10.13 15.3466L13.4375 14.1061C13.5505 14.0638 13.6383 13.9726 13.6765 13.8581L15.0309 9.79546Z" stroke="white" stroke-width="1.75" stroke-linecap="round" stroke-linejoin="round"/>
</g>
<defs>
<clipPath id="clip0_1_2">
<rect width="31" height="32" fill="white"/>
</clipPath>
</defs>
</svg>
